<svg width="220" height="88" viewBox="0 0 220 88" fill="none" xmlns="http://www.w3.org/2000/svg">
<path d="M163.94 67.1981C167.557 69.9286 172.274 72.269 177.132 73.9002C181.884 75.4605 186.777 76.3116 190.82 76.0988C194.579 75.8861 197.947 74.9641 200.997 73.3683C204.047 71.7371 206.777 69.4322 209.224 66.418L209.614 66.7371C208.089 68.6166 206.458 70.2123 204.72 71.5598C204.082 72.0563 203.727 72.6946 203.621 73.5102L203.408 75.5669L203.16 73.6165C203.16 73.4392 203.018 73.262 202.841 73.191C202.664 73.1201 202.486 73.1201 202.309 73.191C201.954 73.4038 201.6 73.6166 201.21 73.7939C198.089 75.4605 194.649 76.3825 190.82 76.5953C188.018 76.7371 184.862 76.418 181.635 75.6733C181.352 75.6024 181.068 75.6733 180.82 75.8506C180.571 76.0279 180.43 76.2761 180.394 76.5598L180.004 80.8506L179.649 76.808C179.543 75.7797 178.905 74.9641 177.912 74.6449C177.593 74.5385 177.274 74.4322 176.954 74.3258C172.025 72.6946 167.274 70.3187 163.621 67.5527L163.94 67.1272V67.1981Z" fill="url(#paint0_radial_2076_8863)"/>
<path d="M142.554 68.3342C139.327 71.1356 135.214 73.5115 130.462 75.2845C129.576 75.6037 129.008 76.3838 128.973 77.3058L128.512 86.4193L128.051 77.3058C128.051 77.0221 127.909 76.7739 127.661 76.5966C127.412 76.4193 127.129 76.3838 126.881 76.4547C120.604 78.3342 113.441 79.2916 105.817 79.1498C105.037 79.1498 104.363 79.7172 104.327 80.4973L103.937 85.9938L103.512 80.3555C103.441 79.6108 102.873 79.0434 102.129 79.0079C93.9018 78.4406 85.3202 76.5611 76.916 73.086C76.7741 73.015 76.6678 73.0505 76.5259 73.086C76.4195 73.1569 76.3486 73.2633 76.3486 73.4051L76.0649 77.9796L75.8167 73.5469C75.8167 72.9441 75.4266 72.4122 74.8592 72.164C74.5756 72.0576 74.3273 71.9157 74.0436 71.7739C73.8663 71.703 73.689 71.703 73.5472 71.7739C73.3699 71.8803 73.299 72.0221 73.2635 72.1994L72.8025 79.6817L72.377 72.2704C72.3415 71.4193 71.845 70.7101 71.1004 70.32C68.5472 69.0079 65.994 67.554 63.5117 65.9228L65.0365 65.3555C78.299 74.0434 91.7741 78.086 105.178 78.5115C120.498 78.9725 133.193 75.2491 141.49 67.6959L142.554 68.2633V68.3342Z" fill="url(#paint1_radial_2076_8863)"/>
<path d="M156.951 67.9087C153.121 70.7456 149.469 73.1569 145.852 75.1782C145.001 75.6746 144.469 76.4902 144.433 77.4832L144.22 81.4193L143.972 77.4122C143.972 77.164 143.83 76.9512 143.618 76.8094C143.405 76.6675 143.157 76.6675 142.908 76.8094C139.469 78.547 136.135 79.9299 132.873 80.9583C132.235 81.1711 131.809 81.703 131.774 82.3768L131.561 87.5186L131.313 82.164C131.313 81.9867 131.206 81.8094 131.064 81.703C130.923 81.5966 130.745 81.5611 130.568 81.5966C126.455 82.7314 122.412 83.3342 118.405 83.4761C116.809 83.547 115.213 83.547 113.653 83.4761C113.121 83.4761 112.625 83.8661 112.589 84.398L112.341 87.3413L112.093 84.2207C112.057 83.7243 111.667 83.3342 111.171 83.2987C101.667 82.4477 92.2347 79.2916 82.1992 74.8945L82.3411 74.5754C94.8943 80.0718 106.455 83.6179 118.369 83.1214C130.32 82.6604 142.625 78.1569 156.738 67.625L156.951 67.9087Z" fill="url(#paint2_radial_2076_8863)"/>
<path fill-rule="evenodd" clip-rule="evenodd" d="M7.16312 2.41104C21.6312 1.9855 34.7163 0.602532 49.3617 0.0351562C59.2908 0.247922 72.4468 0.850753 84.8936 0.389761C107.73 0.921675 131.418 0.95714 137.624 0.850757C161.986 1.66636 187.34 2.55289 213.227 3.33303C214.291 3.54579 216.738 5.35431 217.163 6.4536C217.943 9.96424 218.723 12.9075 219.291 15.9926C219.433 18.1203 219.965 24.5387 219.965 28.794C219.255 41.8082 218.227 54.3259 217.73 63.8649C217.128 64.8933 212.482 67.2337 209.823 68.0493C183.652 69.0068 156.738 69.5741 127.908 70.6025C102.092 69.3614 69.5745 68.0139 43.4752 68.333C29.7163 67.5174 17.1631 67.1273 6.02837 67.1983C4.78723 66.6663 2.69504 64.716 2.23404 63.9004C1.02837 50.9571 0.496454 38.9358 0 26.0281C0.390071 18.333 1.73759 12.943 2.19858 6.6309C2.7305 5.60253 5.92198 2.97842 7.12766 2.51743L7.16312 2.41104Z" fill="url(#paint3_radial_2076_8863)"/>
<path fill-rule="evenodd" clip-rule="evenodd" d="M4.85815 24.5376C5.6383 20.0341 7.2695 16.027 8.33333 10.566L2.19858 6.52344C1.77305 12.871 0.390071 18.2256 0 25.9206L4.82269 24.5022L4.85815 24.5376Z" fill="url(#paint4_radial_2076_8863)"/>
<path fill-rule="evenodd" clip-rule="evenodd" d="M2.19922 6.5591L8.33397 10.6016C8.54673 10.4243 10.0361 8.97045 10.2489 8.79314L7.16376 2.41016C5.95808 2.90661 2.7666 5.53072 2.23468 6.52363L2.19922 6.5591Z" fill="url(#paint5_radial_2076_8863)"/>
<path fill-rule="evenodd" clip-rule="evenodd" d="M7.16016 2.41104L10.2453 8.79402C23.7204 8.33303 40.6708 6.41814 53.0467 5.24793L49.3587 0.0351562C34.7134 0.602532 21.6637 1.9855 7.16016 2.41104Z" fill="url(#paint6_radial_2076_8863)"/>
<path fill-rule="evenodd" clip-rule="evenodd" d="M49.3281 0.0351562L53.0161 5.24793C63.4771 5.177 76.1366 5.24792 86.4912 6.91458L85.0728 0.425229C85.0728 0.425229 84.931 0.425229 84.86 0.425229C72.3778 0.886222 59.2217 0.247916 49.3281 0.0706113V0.0351562Z" fill="url(#paint7_radial_2076_8863)"/>
<path fill-rule="evenodd" clip-rule="evenodd" d="M85.0703 0.425781L86.4887 6.91514C97.659 5.88677 107.056 5.85132 117.624 7.34068C124.361 6.87968 129.928 6.84422 136.17 5.85131L137.588 0.851309C131.418 0.957692 107.836 0.922235 85.0703 0.425781Z" fill="url(#paint8_radial_2076_8863)"/>
<path fill-rule="evenodd" clip-rule="evenodd" d="M137.625 0.851562L136.207 5.85156C159.328 7.41184 186.845 8.33384 210.179 9.68135L213.193 3.33383C187.306 2.55369 161.952 1.66717 137.59 0.851562H137.625Z" fill="url(#paint9_radial_2076_8863)"/>
<path fill-rule="evenodd" clip-rule="evenodd" d="M213.19 3.33234L210.176 9.67986C210.601 9.96355 211.027 10.3536 211.417 10.8146L217.162 6.41745C216.701 5.31816 214.254 3.5451 213.225 3.29688L213.19 3.33234Z" fill="url(#paint10_radial_2076_8863)"/>
<path fill-rule="evenodd" clip-rule="evenodd" d="M217.163 6.41827L211.418 10.8154C211.666 12.8722 211.773 14.9289 212.163 16.9147C213.191 20.9927 214.716 26.702 215 28.7587H219.964C219.964 24.4679 219.432 18.0495 219.29 15.9218C218.723 12.8722 217.943 9.92891 217.163 6.38281V6.41827Z" fill="url(#paint11_radial_2076_8863)"/>
<path fill-rule="evenodd" clip-rule="evenodd" d="M219.966 28.7227H215.001C214.15 38.9709 214.115 50.5666 213.512 61.1695L217.767 63.7936C218.263 54.2546 219.292 41.7723 220.001 28.7227H219.966Z" fill="url(#paint12_radial_2076_8863)"/>
<path fill-rule="evenodd" clip-rule="evenodd" d="M213.472 61.1719C212.55 61.6329 211.487 62.0939 210.707 62.413L209.855 67.9804C212.515 67.1648 217.16 64.8243 217.763 63.796L213.508 61.1719H213.472Z" fill="url(#paint13_radial_2076_8863)"/>
<path fill-rule="evenodd" clip-rule="evenodd" d="M210.708 62.375C183.793 63.3679 154.751 64.5736 127.871 65.531L127.942 70.531C156.807 69.5027 183.687 68.9353 209.857 67.9778L210.708 62.4105V62.375Z" fill="url(#paint14_radial_2076_8863)"/>
<path fill-rule="evenodd" clip-rule="evenodd" d="M127.836 65.5313C116.311 64.432 94.0412 62.4107 85.2823 62.3043C75.3887 62.0916 61.488 62.5171 47.5873 62.6944L43.793 68.2618C69.8213 67.9426 102.162 69.2901 127.871 70.5313L127.8 65.5313H127.836Z" fill="url(#paint15_radial_2076_8863)"/>
<path fill-rule="evenodd" clip-rule="evenodd" d="M43.8285 68.2606L47.6228 62.6932C36.8072 62.0549 19.9632 60.3173 9.04122 60.2109L6.0625 67.1613C17.1973 67.0904 29.7504 67.4804 43.5093 68.296C43.6157 68.296 43.7221 68.296 43.8285 68.296V68.2606Z" fill="url(#paint16_radial_2076_8863)"/>
<path fill-rule="evenodd" clip-rule="evenodd" d="M6.06355 67.1259L9.04227 60.1756C8.4749 60.1047 7.62384 59.6082 7.37561 59.2891L2.30469 63.8281C2.76568 64.6437 4.85788 66.5586 6.09901 67.1259H6.06355Z" fill="url(#paint17_radial_2076_8863)"/>
<path fill-rule="evenodd" clip-rule="evenodd" d="M2.2695 63.865L7.34043 59.326C6.34752 47.8012 5.31915 36.1345 4.82269 24.5742L0 25.9927C0.531915 38.9359 1.02837 50.9572 2.23404 63.865H2.2695Z" fill="url(#paint18_radial_2076_8863)"/>
<path fill-rule="evenodd" clip-rule="evenodd" d="M39.0777 19.007C41.8082 17.234 44.5032 15.3546 47.1273 13.1205C48.333 11.2056 49.5387 9.25527 50.7798 7.34038C51.3472 6.41839 51.5954 5.85101 50.9926 5.46094C38.8295 6.63115 22.9784 8.36874 10.2479 8.82973C10.0352 8.97158 8.54579 10.4609 8.33302 10.6382C7.30465 15.7092 5.85076 19.539 5.03516 23.6524C5.177 23.8652 5.28338 23.9716 5.46068 24.0425C6.6309 24.6099 29.3259 20.3191 34.8224 19.3971C35.9217 19.2198 38.1912 19.2553 39.1132 19.0425L39.0777 19.007Z" fill="url(#paint19_radial_2076_8863)"/>
<path fill-rule="evenodd" clip-rule="evenodd" d="M47.9087 13.4764C45.8874 14.7885 43.937 16.1715 41.9867 17.6254C40.9583 18.4055 40.3555 18.9729 40.3555 19.1502C40.3555 19.292 40.9583 19.6821 42.2704 20.0367C66.0292 26.2424 88.4406 33.9729 109.433 44.1857C110.462 44.2566 110.568 43.9729 111.526 42.6963C117.164 34.9658 124.646 28.4764 133.334 22.6963C134.824 21.7034 134.611 21.4197 134.575 20.4977C134.398 16.5615 134.859 10.9587 135.32 9.11474C135.001 12.98 134.965 16.8807 135.072 20.214C135.072 21.0651 135.036 21.4197 136.029 20.9587C137.731 20.1431 142.731 17.0935 148.228 14.4693C153.76 11.8452 159.753 9.75303 161.809 8.37005C163.121 7.48353 162.306 7.37716 161.384 7.34169C152.731 6.91616 144.221 6.45516 136.242 5.92325C130.001 6.91616 124.398 6.95161 117.696 7.4126C107.093 5.92324 97.7313 5.99417 86.5611 6.98708C76.242 5.35587 63.6179 5.24948 53.1923 5.32041C51.242 6.84523 49.0789 10.9942 47.9796 13.5474L47.9087 13.4764Z" fill="url(#paint20_radial_2076_8863)"/>
<path fill-rule="evenodd" clip-rule="evenodd" d="M107.767 44.2916C94.6815 38.0859 59.8233 24.4689 43.1921 20.781C37.6247 19.5398 36.5609 20.1072 31.0644 20.9228C21.1708 22.4122 6.52543 24.4689 5.2843 24.8944C5.14245 24.9299 5.03607 25.0363 4.92969 25.1781C5.42614 36.5256 6.41905 47.9796 7.41195 59.2916C7.66018 59.6108 8.51125 60.0718 9.07862 60.1781C11.5609 60.1781 14.3978 60.32 17.3765 60.4973C27.412 61.0646 39.3268 62.1994 47.6602 62.6959C61.5254 62.5186 75.4261 62.093 85.3552 62.3058C89.0432 62.3412 95.0715 62.7313 101.703 63.2278C109.043 63.6533 116.384 64.5398 123.759 64.7171C125.284 64.7526 126.561 64.5753 126.738 64.4334C127.093 64.1852 125.816 61.632 124.504 59.2561C120.32 55.4973 116.242 51.7029 112.199 47.6604C110.355 45.8164 110.178 45.3554 107.802 44.2561L107.767 44.2916Z" fill="url(#paint21_radial_2076_8863)"/>
<path fill-rule="evenodd" clip-rule="evenodd" d="M148.368 14.6791C135.531 20.7429 120.602 31.4166 112.304 42.7642C111.205 44.2535 111.205 44.6436 111.666 46.0975C115.496 50.3883 120.035 54.7145 125.354 59.1117C126.063 60.4592 127.234 62.9769 128.262 64.0407C128.617 64.4308 129.113 64.6436 130.141 64.7854C136.453 65.5656 142.836 64.75 149.219 64.7145C159.716 62.5869 170.07 60.1755 179.858 56.6294C184.716 54.8209 189.255 52.5514 193.404 49.7145C199.29 45.4592 205.035 40.9911 210.531 36.2039C211.95 34.5727 213.085 32.5159 214.113 30.4592C214.822 29.1117 214.964 28.5443 214.858 27.8351C214.822 27.6223 214.751 27.4095 214.716 27.1613C214.077 24.5372 213.014 20.1755 212.163 16.9131C211.773 14.8918 211.666 12.8705 211.418 10.8138C211.028 10.3528 210.638 9.96275 210.177 9.67906C196.914 8.89892 182.269 8.29608 167.836 7.58686C167.163 7.58686 166.453 7.51593 165.78 7.48047C165.106 7.48047 164.432 7.58685 163.758 7.87054C163.12 8.15423 162.695 8.57976 161.489 9.50174C157.34 10.9202 152.624 12.6578 148.368 14.6791Z" fill="url(#paint22_radial_2076_8863)"/>
<path fill-rule="evenodd" clip-rule="evenodd" d="M192.024 51.8445C187.982 53.6175 184.081 55.6388 180.251 57.7665C170.464 60.7806 159.968 62.9083 149.188 64.7523C161.989 64.2558 175.003 63.7593 187.805 63.2629C195.57 62.9792 203.23 62.6601 210.748 62.4118C211.563 62.0927 212.627 61.6672 213.514 61.1707C214.081 51.5253 214.152 40.9934 214.826 31.4899C214.684 31.1352 214.578 30.9579 214.471 30.9225C214.081 30.7452 211.492 35.8516 211.102 37.0927C205.641 40.9225 201.563 44.1494 196.563 48.5111C194.436 50.3906 195.606 50.426 197.663 51.8445C199.436 53.0856 201.067 54.2558 202.875 55.7097C199.4 53.7239 195.677 50.2842 192.06 51.8799L192.024 51.8445Z" fill="url(#paint23_radial_2076_8863)"/>
<path opacity="0.75" fill-rule="evenodd" clip-rule="evenodd" d="M8.05142 4.25532C22.1649 3.72341 36.7039 3.97163 50.6401 1.84397L85.5337 2.44682C103.051 1.66668 120.179 2.41135 137.059 2.87234C152.98 3.29788 199.115 2.12766 212.094 5.39007C212.803 5.31915 215.108 6.4539 215.285 7.87234C218.158 11.5957 218.725 15.7092 219.612 20.2128C219.47 18.3688 219.363 16.8085 219.293 15.9574C218.725 12.9078 217.945 9.96454 217.165 6.41844C216.704 5.31915 214.257 3.5461 213.229 3.29787C187.342 2.51773 161.988 1.63122 137.626 0.815615C131.42 0.921998 107.732 0.886533 84.8954 0.354618C72.4131 0.815611 59.2571 0.177305 49.3635 0C34.7181 0.567376 21.6684 1.95036 7.16489 2.37589C5.95922 2.87235 2.76773 5.49646 2.23582 6.48937C1.84575 11.9858 0.781915 16.7376 0.25 22.9078C1.88121 17.695 3.90248 12.6596 3.40603 7.23404C5.28546 6.48936 6.56206 5.67376 8.08688 4.1844L8.05142 4.25532Z" fill="#007AFF"/>
<path fill-rule="evenodd" clip-rule="evenodd" d="M187.766 63.2638C192.907 63.1929 198.085 63.0511 203.227 62.9447C205.461 62.9447 207.695 62.8028 209.893 62.9447C210.071 62.9447 210.248 63.1929 210.248 63.3702C210.248 64.5049 210.141 65.6751 210 66.7744C210.283 65.4978 210.39 64.1503 210.815 62.9447C210.993 62.4128 213.12 61.5262 213.723 61.739C214.929 62.2 216.028 62.9092 217.198 63.4766C216.383 62.8383 215.602 62.2354 214.787 61.5971C213.723 60.7815 213.865 60.7106 213.936 59.3631C214.042 57.2354 214.219 55.1078 214.326 52.9801C214.326 45.4624 214.574 38.6893 215.177 31.1716C215.248 30.4624 215.248 29.4695 215.567 29.1149C215.709 28.973 218.936 28.7603 219.361 28.6893C219.042 28.6893 215.602 28.4057 215.567 28.3347C215.071 27.6255 214.645 25.0369 214.255 23.8312C213.971 22.4482 213.652 21.0652 213.368 19.6823C213.191 18.8312 213.014 17.9092 213.262 17.661C213.368 17.5546 213.829 17.2709 214.397 17.1291C215.319 16.8454 216.276 16.5617 217.198 16.3135C215.886 16.5617 214.858 16.8099 213.546 16.739C212.375 16.6681 212.553 16.1362 212.446 14.9659C212.375 14.2213 211.985 13.4057 211.914 12.661C211.808 11.5262 211.595 11.1362 212.482 10.356C213.794 9.18581 215.071 8.05106 216.383 6.88084C215.106 7.80283 213.829 8.72481 212.553 9.6468C211.134 10.6752 210.602 9.54041 211.241 7.98013C211.808 6.56169 212.375 5.14325 212.943 3.76027C212.198 5.10779 211.418 6.45531 210.673 7.80282C209.787 9.39857 209.361 9.04396 207.517 8.97304C195.709 8.65389 184.007 7.83829 172.234 6.88084C167.34 6.739 138.297 6.20708 137.021 5.21417C136.595 4.85956 137.127 3.33475 137.482 1.13617C136.099 4.96595 136.844 5.14325 132.446 5.95885C128.723 6.24254 122.446 7.05814 118.971 6.66807C118.085 6.56169 117.907 6.56169 117.907 5.67517C117.907 4.75318 117.837 3.79573 117.801 2.87375C117.695 3.90212 117.553 4.85956 117.446 5.88793C117.376 6.59715 116.844 6.31347 116.134 6.24254C112.695 5.78155 109.29 5.42695 105.815 5.24964C99.7159 5.32056 94.645 5.88793 88.5812 6.278C86.1698 6.20708 86.0989 4.0085 85.1415 0.958851C85.2479 1.77445 85.8152 4.75318 85.5315 5.35602C85.2833 5.85247 84.645 5.74608 83.4748 5.6397C80.6025 5.35601 77.7301 5.07233 74.8932 4.78864C70.1769 4.61134 65.4961 4.54041 60.7443 4.50495C58.333 4.46949 54.6096 4.93049 52.7301 4.29219C52.5883 4.22127 50.1415 1.13616 49.7869 0.746094C50.106 1.38439 51.3471 3.5475 51.2053 4.11488C51.028 4.75317 49.8932 4.71772 48.9358 4.78864C46.2762 4.96595 43.8649 5.17872 41.2053 5.24964C31.3826 6.49078 22.2337 7.30637 12.3755 7.94467C11.028 8.01559 10.6734 8.40567 9.99964 7.27092C9.11311 5.81702 8.26205 4.39857 7.37553 2.94467C8.12021 4.93049 8.79396 6.49076 9.32588 8.5475C9.43226 8.93757 8.08474 9.6468 7.58829 9.39857C5.81524 8.51205 4.36134 7.80283 2.65921 6.80992C3.82943 7.76737 4.64503 8.61843 5.81524 9.57587C7.55283 10.9943 7.37552 10.4269 6.84361 12.5901C6.028 15.9943 5.17694 19.3986 4.36134 22.8028C4.00673 24.2213 3.97127 24.2213 2.62375 24.7177C1.80815 25.0369 1.3117 25.4269 0.496094 25.7461C1.3117 25.5688 2.16276 25.3915 2.97836 25.2496C3.86489 25.0723 4.43226 24.8241 4.46772 25.8525C4.46772 27.2709 4.50318 28.6893 4.53864 30.1432C4.92871 35.2496 5.31879 40.3206 5.70886 45.4269C6.06347 49.6468 6.45354 53.8666 6.80815 58.0865C6.80815 58.4057 6.73723 58.7603 6.59538 59.0794C6.16985 60.0014 4.00673 62.0581 3.22659 62.9092C4.53865 61.9518 5.88616 60.9943 7.19822 60.0014C7.3046 59.8596 8.4039 60.1787 8.54574 60.5688C8.26205 61.4908 7.9429 62.3773 7.65921 63.2993C8.15567 62.4482 8.61666 61.5617 9.11311 60.7106C9.29042 60.5333 9.53864 60.4269 9.85779 60.3915C11.2053 60.3915 12.5883 60.3915 13.9358 60.3915C15.0351 60.3915 16.2053 60.3915 17.3401 60.4269C14.3613 60.2496 11.5599 60.1432 9.04219 60.1078C8.47482 60.0369 7.62375 59.5404 7.37553 59.2213C6.38262 47.9092 5.38971 36.4553 4.89326 25.1078C4.99964 24.9659 5.10602 24.895 5.24787 24.8241C6.489 24.3631 21.1344 22.3064 31.028 20.8525C36.5245 20.0369 37.6237 19.4695 43.1557 20.7106C59.7869 24.3986 94.645 38.0156 107.73 44.2213C110.106 45.356 110.283 45.817 112.127 47.6255C116.17 51.6326 120.248 55.4624 124.432 59.2213C125.744 61.6326 126.985 64.1858 126.666 64.3986C126.489 64.5404 125.248 64.7177 123.688 64.6823C116.312 64.5049 108.971 63.583 101.631 63.1929C109.326 64.1858 117.163 64.6822 125.354 65.6752C126.383 65.7815 126.915 65.8525 127.269 66.1716C127.517 66.3844 127.801 68.0156 127.907 69.6468C128.156 67.4128 128.156 66.0652 128.581 65.9234C128.758 65.8525 129.68 65.8525 130.638 65.817C136.808 65.7106 142.978 65.3206 149.149 64.7177C159.929 62.8738 170.461 60.7106 180.212 57.7319C184.042 55.6397 187.943 53.6184 191.985 51.8099C195.602 50.2142 199.326 53.6184 202.801 55.6397C201.028 54.2213 199.397 53.0156 197.588 51.7745C195.532 50.356 194.361 50.3205 196.489 48.4411C201.489 44.0794 205.602 40.8525 211.028 37.0227C211.418 35.7815 214.007 30.6752 214.397 30.8525C214.503 30.8879 214.61 31.0652 214.751 31.4198C214.113 40.9588 214.007 51.4553 213.439 61.1007C212.517 61.5617 211.453 62.0227 210.673 62.3418C203.156 62.6255 195.496 62.9092 187.73 63.1929L187.766 63.2638ZM149.149 64.7532C142.801 64.7532 136.383 65.6042 130.071 64.8241C129.078 64.6823 128.581 64.4695 128.191 64.0794C127.163 62.9801 126.028 60.4979 125.283 59.1503C119.964 54.7532 115.425 50.3915 111.595 46.1362C111.17 44.7177 111.134 44.3277 112.234 42.8028C120.532 31.4553 135.461 20.7815 148.297 14.7177C152.553 12.6964 157.305 10.9943 161.418 9.54042C162.624 8.58297 163.049 8.15744 163.688 7.90922C165.035 7.34184 166.383 7.5546 167.801 7.62552C182.198 8.29928 196.844 8.93758 210.141 9.71772C210.567 10.0014 210.993 10.3915 211.383 10.8525C211.631 12.9092 211.737 14.9659 212.127 16.9518C212.943 20.2142 214.007 24.6113 214.68 27.2C214.964 28.3702 214.964 28.7603 214.078 30.4979C213.014 32.5901 211.879 34.6113 210.496 36.2425C204.964 41.0298 199.219 45.4624 193.368 49.7532C189.219 52.5901 184.68 54.8241 179.822 56.6681C170.035 60.2142 159.68 62.6255 149.184 64.7532H149.149ZM109.432 44.1858C88.4393 33.973 66.028 26.2425 42.2691 20.0369C40.9571 19.6823 40.3897 19.3276 40.3542 19.1503C40.3542 18.973 40.9216 18.4057 41.9854 17.6255C43.9358 16.1716 45.8862 14.7886 47.9074 13.4766C49.0422 10.9234 51.2053 6.77446 53.1202 5.24964C63.5457 5.17872 76.1698 5.28509 86.489 6.9163C97.6592 5.88793 107.056 5.85248 117.624 7.34184C124.361 6.88085 129.929 6.84538 136.17 5.85247C144.042 6.38439 152.446 6.84538 161.028 7.27092C162.021 7.30638 163.156 7.34184 161.737 8.33474C159.716 9.71772 153.723 11.8099 148.156 14.434C142.624 17.0582 137.659 20.1078 135.957 20.9234C134.964 21.4198 135.035 21.0298 135 20.1787C134.929 16.8454 134.929 12.9092 135.248 9.07942C134.787 10.9234 134.361 16.5262 134.503 20.4624C134.539 21.3844 134.716 21.6681 133.262 22.661C124.574 28.4766 117.127 34.9305 111.454 42.661C110.496 43.973 110.39 44.2213 109.361 44.1503L109.432 44.1858ZM5.0351 23.6184C5.88617 19.4695 7.34006 15.6752 8.33297 10.6042C8.54573 10.4269 10.0351 8.97304 10.2479 8.79574C22.9784 8.37021 38.8294 6.63262 50.9925 5.42694C51.5954 5.81701 51.3472 6.38439 50.7798 7.30637C49.5741 9.22126 48.3684 11.1716 47.1273 13.0865C44.5386 15.356 41.8436 17.2355 39.0776 18.973C38.1557 19.1858 35.8862 19.1503 34.7869 19.3276C29.2904 20.2496 6.59538 24.5404 5.42517 23.973C5.28332 23.9021 5.14148 23.7957 4.99964 23.583L5.0351 23.6184Z" fill="url(#paint24_radial_2076_8863)"/>
<g style="mix-blend-mode:screen" opacity="0.5">
<path fill-rule="evenodd" clip-rule="evenodd" d="M37.4838 41.1721C36.8455 41.1012 36.1363 41.3494 35.7108 41.8458C34.8597 42.8742 34.2569 44.1508 33.9732 45.4274C33.6895 46.7749 35.9945 48.087 37.1292 48.1224C38.0157 48.1224 39.0796 47.8033 39.6115 47.0941C40.4626 45.9593 39.2214 41.3494 37.4484 41.1721H37.4838Z" fill="#373FA5"/>
</g>
<g style="mix-blend-mode:screen" opacity="0.5">
<path fill-rule="evenodd" clip-rule="evenodd" d="M24.7864 28.5819C22.9424 29.0429 21.063 29.8231 19.7155 31.1351C18.0843 32.7309 16.0275 37.6954 17.2332 39.894C17.907 41.0997 19.2899 42.1635 20.6729 42.2344C22.8006 42.3762 25.1055 41.7379 26.8077 40.4614C28.4389 39.2202 29.2899 37.4117 30.5665 35.816C31.3821 34.7876 32.3396 33.7592 33.0133 32.589C34.1481 30.6387 32.3041 28.6174 30.8857 28.3692C28.5453 27.9791 27.0914 28.0146 24.7864 28.6174V28.5819Z" fill="#373FA5"/>
</g>
<g style="mix-blend-mode:screen" opacity="0.5">
<path fill-rule="evenodd" clip-rule="evenodd" d="M198.581 27.4477C196.205 27.9087 193.652 31.9513 193.084 34.3626C192.482 36.8449 193.581 38.1924 194.787 37.696C197.411 36.6676 204.857 33.6534 205.354 30.4619C205.602 28.8307 204.787 27.3768 203.084 27.0931C201.595 26.8449 200.07 27.164 198.581 27.4477Z" fill="#373FA5"/>
</g>
<path fill-rule="evenodd" clip-rule="evenodd" d="M198.19 26.9868C195.814 27.4478 193.261 31.4903 192.694 33.9017C192.091 36.384 193.19 37.7315 194.396 37.235C197.02 36.2066 204.467 33.1925 204.963 30.001C205.211 28.3698 204.396 26.9159 202.694 26.6322C201.204 26.384 199.68 26.7031 198.19 26.9868Z" fill="url(#paint25_radial_2076_8863)"/>
<path fill-rule="evenodd" clip-rule="evenodd" d="M37.0893 40.7463C36.451 40.6754 35.7418 40.9236 35.3163 41.42C34.4652 42.4484 33.8624 43.725 33.5787 45.0016C33.295 46.3491 35.5999 47.6612 36.7347 47.6966C37.6212 47.6966 38.685 47.3775 39.217 46.6683C40.068 45.5335 38.8269 40.9236 37.0538 40.7463H37.0893Z" fill="url(#paint26_radial_2076_8863)"/>
<path fill-rule="evenodd" clip-rule="evenodd" d="M24.396 28.1551C22.552 28.6161 20.6726 29.3962 19.3251 30.7083C17.7293 32.304 15.6372 37.2686 16.8428 39.4671C17.5166 40.6728 18.8996 41.7366 20.2825 41.8076C22.4102 41.9494 24.7152 41.3111 26.4173 40.0345C28.0485 38.7934 28.8996 36.9849 30.1762 35.3891C30.9918 34.3608 31.9492 33.3324 32.623 32.1622C33.7577 30.2118 31.9137 28.1905 30.4953 27.9423C28.1549 27.5522 26.701 27.5877 24.396 28.1551Z" fill="url(#paint27_radial_2076_8863)"/>
<g filter="url(#filter0_dddd_2076_8863)">
<path d="M67.2545 27.3172L67.0851 27.5205C63.7425 27.1817 60.75 27.2382 58.1075 27.6899C58.1075 28.2093 58.1527 28.7627 58.243 29.3499C58.3559 29.9371 58.4237 30.4114 58.4463 30.7728C60.0724 30.7953 62.0147 30.513 64.2733 29.9258C64.5217 31.8456 64.5782 33.9008 64.4427 36.0916C63.9006 36.0916 63.2795 36.1029 62.5794 36.1254C61.8792 36.148 61.1791 36.1706 60.479 36.1932C59.7788 36.1932 59.1577 36.2045 58.6157 36.2271C58.6383 36.4529 58.6608 36.7127 58.6834 37.0063C58.706 37.2999 58.7286 37.5596 58.7512 37.7855C58.7738 38.0113 58.7964 38.271 58.8189 38.5646C58.8641 38.8583 58.898 39.1293 58.9206 39.3777C61.6986 39.1744 64.7927 38.7453 68.2031 38.0904C68.2483 40.3715 68.0563 42.5848 67.6272 44.7304C62.6584 44.0077 57.6332 44.0754 52.5516 44.9337C53.5679 37.6387 53.2743 29.8468 51.6707 21.558C55.6683 21.8968 60.9532 21.75 67.5255 21.1176C67.4804 21.7951 67.4352 22.8341 67.39 24.2343C67.3448 25.612 67.2997 26.6397 67.2545 27.3172ZM82.8957 33.2797C85.7866 36.8256 87.8983 39.1744 89.2309 40.3263C87.0853 41.9073 85.3462 43.4882 84.0137 45.0692C83.4265 43.9625 81.8116 41.704 79.1692 38.2936C76.6622 41.7492 75.149 44.0077 74.6295 45.0692C72.6872 43.6011 70.8917 41.9976 69.243 40.2585C70.3948 39.2196 72.3371 36.8482 75.0699 33.1442C73.6471 31.4051 72.3484 29.8693 71.174 28.5368C70.0222 27.1817 69.1526 26.2331 68.5654 25.6911C69.6269 25.0135 71.4902 23.6245 74.1552 21.5241C74.607 22.4953 76.1202 24.6522 78.6949 27.9948C80.6824 25.0135 81.9697 22.8228 82.5569 21.4225C83.099 21.9194 83.8443 22.5518 84.7929 23.3196C85.764 24.0875 86.5545 24.7086 87.1643 25.1829C87.7967 25.6572 88.2145 25.9621 88.4178 26.0976C86.7239 28.2658 84.8832 30.6598 82.8957 33.2797ZM100.934 22.8115C102.357 23.5568 103.384 24.686 104.017 26.1993C104.672 27.6899 104.796 29.237 104.389 30.8405C103.915 32.7603 102.887 34.296 101.306 35.4479C99.748 36.5771 97.9638 37.1079 95.9537 37.0401C95.7956 39.773 95.7505 42.5058 95.8182 45.2386C95.8182 45.0805 95.0165 44.9562 93.4129 44.8659C91.8319 44.7982 90.6688 44.7756 89.9235 44.7982C90.443 37.0514 90.6801 29.3047 90.6349 21.558C94.3841 21.4225 97.354 21.6596 99.5448 22.2694C100.042 22.4049 100.505 22.5856 100.934 22.8115ZM100.222 29.6887C100.268 29.2144 100.132 28.774 99.8158 28.3674C99.5222 27.9383 99.1157 27.5995 98.5962 27.3511C98.0993 27.1027 97.6137 26.9107 97.1395 26.7752C96.6652 26.6171 96.1909 26.5042 95.7166 26.4364C95.7166 26.4816 95.7166 26.6284 95.7166 26.8768C95.7392 27.1027 95.7505 27.3737 95.7505 27.6899C95.7731 28.0061 95.7843 28.3561 95.7843 28.7401C95.7843 29.124 95.7843 29.508 95.7843 29.8919C95.8069 30.2533 95.8182 30.5921 95.8182 30.9083C95.8182 31.2019 95.8069 31.4503 95.7843 31.6536C95.7843 31.8343 95.7731 31.9246 95.7505 31.9246C96.9927 31.8794 97.9977 31.6875 98.7656 31.3487C99.6916 30.9196 100.177 30.3662 100.222 29.6887ZM119.091 39.0728C119.294 41.5572 119.509 43.5447 119.735 45.0353C119.712 45.0353 119.689 45.024 119.667 45.0014C119.667 45.0014 119.656 45.0014 119.633 45.0014C115.184 44.3916 110.723 44.3352 106.251 44.832C106.319 43.5898 106.353 41.7604 106.353 39.3438C106.353 36.9272 106.263 33.9799 106.082 30.5017C105.901 27.0236 105.664 24.2118 105.37 22.0662C105.37 22.0436 105.596 22.021 106.048 21.9984C106.522 21.9758 107.098 21.942 107.776 21.8968C108.453 21.8516 109.142 21.8064 109.842 21.7613C110.542 21.6935 111.175 21.6371 111.739 21.5919C112.304 21.5467 112.643 21.5128 112.756 21.4902C111.672 27.5657 111.491 33.675 112.214 39.8181C112.236 39.8181 112.733 39.773 113.704 39.6826C114.698 39.5923 115.703 39.4906 116.719 39.3777C117.736 39.2648 118.526 39.1632 119.091 39.0728ZM135.98 30.0952C136.115 30.9083 136.16 31.823 136.115 32.8393C136.07 33.8556 135.991 34.8946 135.878 35.9561C135.765 36.995 135.528 38.0226 135.167 39.0389C134.828 40.0553 134.41 40.9813 133.913 41.8169C133.439 42.63 132.795 43.3188 131.982 43.8835C131.192 44.4481 130.3 44.8094 129.306 44.9675C127.386 45.2386 125.715 44.9901 124.292 44.2222C122.869 43.4543 121.808 42.3477 121.107 40.9022C120.43 39.4568 120.08 37.7742 120.057 35.8544C120.035 31.8343 120.577 28.6272 121.683 26.2331C122.429 24.5844 123.614 23.2858 125.241 22.3372C126.822 21.4112 128.515 21.1966 130.322 21.6935C132.129 22.1904 133.484 23.1954 134.388 24.7086C135.155 25.996 135.675 27.656 135.946 29.6887C135.946 29.8242 135.957 29.9597 135.98 30.0952ZM129.645 37.6838C130.006 34.4316 129.972 31.2583 129.543 28.1642C129.475 27.6221 129.272 27.1478 128.933 26.7413C128.594 26.3348 128.199 26.3122 127.747 26.6735C127.228 27.0575 126.81 27.8028 126.494 28.9095C126.178 30.0162 125.986 31.0325 125.918 31.9585C125.85 32.8619 125.816 33.7314 125.816 34.5671C125.816 34.6348 125.816 34.7477 125.816 34.9058C125.839 37.9774 126.257 39.8407 127.07 40.4957C127.251 40.6312 127.499 40.6989 127.815 40.6989C128.199 40.7215 128.493 40.6425 128.696 40.4618C129.148 40.0779 129.464 39.1519 129.645 37.6838ZM150.847 37.7516C151.118 38.2033 151.705 39.0728 152.608 40.3602C153.512 41.6475 153.986 42.2686 154.031 42.2234C152.495 43.4205 150.813 44.369 148.983 45.0692C148.983 45.0692 148.757 44.6062 148.306 43.6802C147.877 42.7542 147.323 41.6136 146.646 40.2585C145.968 38.8808 145.392 37.7177 144.918 36.7691C144.466 36.8369 144.048 36.8708 143.664 36.8708C143.642 39.6036 143.732 42.3251 143.936 45.0353C143.936 44.9675 143.653 44.9111 143.089 44.8659C142.547 44.8207 141.903 44.8094 141.158 44.832C140.435 44.832 139.78 44.8433 139.193 44.8659C138.628 44.8885 138.244 44.8998 138.041 44.8998C138.154 37.1531 137.996 29.4064 137.566 21.6596C141.293 21.3434 144.263 21.4338 146.476 21.9307C146.973 22.0436 147.448 22.2017 147.899 22.4049C149.367 23.0825 150.451 24.1553 151.151 25.6233C151.874 27.0914 152.077 28.6385 151.761 30.2646C151.4 32.0714 150.53 33.5733 149.153 34.7703C149.604 35.7189 150.169 36.7127 150.847 37.7516ZM146.171 31.0438C147.075 30.5695 147.538 29.9936 147.56 29.316C147.56 28.9095 147.448 28.5368 147.222 28.198C146.996 27.8593 146.713 27.5882 146.375 27.385C146.059 27.1591 145.675 26.9672 145.223 26.8091C144.771 26.651 144.353 26.538 143.969 26.4703C143.608 26.3799 143.247 26.3235 142.885 26.3009C142.885 26.3235 142.897 26.5493 142.919 26.9784C142.964 27.4076 142.998 27.8706 143.021 28.3674C143.066 28.8643 143.1 29.3951 143.122 29.9597C143.168 30.5017 143.19 30.9309 143.19 31.247C143.213 31.5407 143.213 31.71 143.19 31.7552C144.432 31.6649 145.426 31.4277 146.171 31.0438ZM170.725 38.3614C170.747 38.4743 170.759 38.7227 170.759 39.1067C170.759 39.4906 170.759 39.7504 170.759 39.8859C170.759 40.0214 170.759 40.2698 170.759 40.6312C170.781 40.9926 170.793 41.2636 170.793 41.4443C170.793 41.6024 170.793 41.8395 170.793 42.1557C170.815 42.4719 170.827 42.7316 170.827 42.9349C170.849 43.1381 170.872 43.3753 170.894 43.6463C170.917 43.8947 170.928 44.1319 170.928 44.3577C170.951 44.5836 170.985 44.8094 171.03 45.0353C169.991 44.8094 167.439 44.6401 163.373 44.5271C159.308 44.3916 156.508 44.3916 154.972 44.5271C155.13 41.0716 155.22 37.3338 155.243 33.3136C155.265 29.2934 155.175 25.4314 154.972 21.7274C161.205 21.6822 166.287 21.6032 170.217 21.4902C170.172 22.0549 170.138 22.6647 170.115 23.3196C170.093 23.9746 170.07 24.6296 170.047 25.2846C170.025 25.9395 170.002 26.5606 169.98 27.1478C168.624 26.8542 167.021 26.7187 165.169 26.7413C163.34 26.7413 161.962 26.8542 161.036 27.0801C161.036 29.2708 161.047 30.6824 161.07 31.3148C163.215 31.36 165.158 31.2245 166.897 30.9083C166.942 32.0375 167.066 33.8443 167.269 36.3287C166.592 36.3287 165.553 36.3174 164.153 36.2948C162.775 36.2497 161.792 36.2271 161.205 36.2271C161.205 36.4981 161.284 37.5709 161.442 39.4455C165.327 39.1744 168.421 38.8131 170.725 38.3614Z" fill="#B6F6FF"/>
<path d="M67.2545 27.3172L67.0851 27.5205C63.7425 27.1817 60.75 27.2382 58.1075 27.6899C58.1075 28.2093 58.1527 28.7627 58.243 29.3499C58.3559 29.9371 58.4237 30.4114 58.4463 30.7728C60.0724 30.7953 62.0147 30.513 64.2733 29.9258C64.5217 31.8456 64.5782 33.9008 64.4427 36.0916C63.9006 36.0916 63.2795 36.1029 62.5794 36.1254C61.8792 36.148 61.1791 36.1706 60.479 36.1932C59.7788 36.1932 59.1577 36.2045 58.6157 36.2271C58.6383 36.4529 58.6608 36.7127 58.6834 37.0063C58.706 37.2999 58.7286 37.5596 58.7512 37.7855C58.7738 38.0113 58.7964 38.271 58.8189 38.5646C58.8641 38.8583 58.898 39.1293 58.9206 39.3777C61.6986 39.1744 64.7927 38.7453 68.2031 38.0904C68.2483 40.3715 68.0563 42.5848 67.6272 44.7304C62.6584 44.0077 57.6332 44.0754 52.5516 44.9337C53.5679 37.6387 53.2743 29.8468 51.6707 21.558C55.6683 21.8968 60.9532 21.75 67.5255 21.1176C67.4804 21.7951 67.4352 22.8341 67.39 24.2343C67.3448 25.612 67.2997 26.6397 67.2545 27.3172ZM82.8957 33.2797C85.7866 36.8256 87.8983 39.1744 89.2309 40.3263C87.0853 41.9073 85.3462 43.4882 84.0137 45.0692C83.4265 43.9625 81.8116 41.704 79.1692 38.2936C76.6622 41.7492 75.149 44.0077 74.6295 45.0692C72.6872 43.6011 70.8917 41.9976 69.243 40.2585C70.3948 39.2196 72.3371 36.8482 75.0699 33.1442C73.6471 31.4051 72.3484 29.8693 71.174 28.5368C70.0222 27.1817 69.1526 26.2331 68.5654 25.6911C69.6269 25.0135 71.4902 23.6245 74.1552 21.5241C74.607 22.4953 76.1202 24.6522 78.6949 27.9948C80.6824 25.0135 81.9697 22.8228 82.5569 21.4225C83.099 21.9194 83.8443 22.5518 84.7929 23.3196C85.764 24.0875 86.5545 24.7086 87.1643 25.1829C87.7967 25.6572 88.2145 25.9621 88.4178 26.0976C86.7239 28.2658 84.8832 30.6598 82.8957 33.2797ZM100.934 22.8115C102.357 23.5568 103.384 24.686 104.017 26.1993C104.672 27.6899 104.796 29.237 104.389 30.8405C103.915 32.7603 102.887 34.296 101.306 35.4479C99.748 36.5771 97.9638 37.1079 95.9537 37.0401C95.7956 39.773 95.7505 42.5058 95.8182 45.2386C95.8182 45.0805 95.0165 44.9562 93.4129 44.8659C91.8319 44.7982 90.6688 44.7756 89.9235 44.7982C90.443 37.0514 90.6801 29.3047 90.6349 21.558C94.3841 21.4225 97.354 21.6596 99.5448 22.2694C100.042 22.4049 100.505 22.5856 100.934 22.8115ZM100.222 29.6887C100.268 29.2144 100.132 28.774 99.8158 28.3674C99.5222 27.9383 99.1157 27.5995 98.5962 27.3511C98.0993 27.1027 97.6137 26.9107 97.1395 26.7752C96.6652 26.6171 96.1909 26.5042 95.7166 26.4364C95.7166 26.4816 95.7166 26.6284 95.7166 26.8768C95.7392 27.1027 95.7505 27.3737 95.7505 27.6899C95.7731 28.0061 95.7843 28.3561 95.7843 28.7401C95.7843 29.124 95.7843 29.508 95.7843 29.8919C95.8069 30.2533 95.8182 30.5921 95.8182 30.9083C95.8182 31.2019 95.8069 31.4503 95.7843 31.6536C95.7843 31.8343 95.7731 31.9246 95.7505 31.9246C96.9927 31.8794 97.9977 31.6875 98.7656 31.3487C99.6916 30.9196 100.177 30.3662 100.222 29.6887ZM119.091 39.0728C119.294 41.5572 119.509 43.5447 119.735 45.0353C119.712 45.0353 119.689 45.024 119.667 45.0014C119.667 45.0014 119.656 45.0014 119.633 45.0014C115.184 44.3916 110.723 44.3352 106.251 44.832C106.319 43.5898 106.353 41.7604 106.353 39.3438C106.353 36.9272 106.263 33.9799 106.082 30.5017C105.901 27.0236 105.664 24.2118 105.37 22.0662C105.37 22.0436 105.596 22.021 106.048 21.9984C106.522 21.9758 107.098 21.942 107.776 21.8968C108.453 21.8516 109.142 21.8064 109.842 21.7613C110.542 21.6935 111.175 21.6371 111.739 21.5919C112.304 21.5467 112.643 21.5128 112.756 21.4902C111.672 27.5657 111.491 33.675 112.214 39.8181C112.236 39.8181 112.733 39.773 113.704 39.6826C114.698 39.5923 115.703 39.4906 116.719 39.3777C117.736 39.2648 118.526 39.1632 119.091 39.0728ZM135.98 30.0952C136.115 30.9083 136.16 31.823 136.115 32.8393C136.07 33.8556 135.991 34.8946 135.878 35.9561C135.765 36.995 135.528 38.0226 135.167 39.0389C134.828 40.0553 134.41 40.9813 133.913 41.8169C133.439 42.63 132.795 43.3188 131.982 43.8835C131.192 44.4481 130.3 44.8094 129.306 44.9675C127.386 45.2386 125.715 44.9901 124.292 44.2222C122.869 43.4543 121.808 42.3477 121.107 40.9022C120.43 39.4568 120.08 37.7742 120.057 35.8544C120.035 31.8343 120.577 28.6272 121.683 26.2331C122.429 24.5844 123.614 23.2858 125.241 22.3372C126.822 21.4112 128.515 21.1966 130.322 21.6935C132.129 22.1904 133.484 23.1954 134.388 24.7086C135.155 25.996 135.675 27.656 135.946 29.6887C135.946 29.8242 135.957 29.9597 135.98 30.0952ZM129.645 37.6838C130.006 34.4316 129.972 31.2583 129.543 28.1642C129.475 27.6221 129.272 27.1478 128.933 26.7413C128.594 26.3348 128.199 26.3122 127.747 26.6735C127.228 27.0575 126.81 27.8028 126.494 28.9095C126.178 30.0162 125.986 31.0325 125.918 31.9585C125.85 32.8619 125.816 33.7314 125.816 34.5671C125.816 34.6348 125.816 34.7477 125.816 34.9058C125.839 37.9774 126.257 39.8407 127.07 40.4957C127.251 40.6312 127.499 40.6989 127.815 40.6989C128.199 40.7215 128.493 40.6425 128.696 40.4618C129.148 40.0779 129.464 39.1519 129.645 37.6838ZM150.847 37.7516C151.118 38.2033 151.705 39.0728 152.608 40.3602C153.512 41.6475 153.986 42.2686 154.031 42.2234C152.495 43.4205 150.813 44.369 148.983 45.0692C148.983 45.0692 148.757 44.6062 148.306 43.6802C147.877 42.7542 147.323 41.6136 146.646 40.2585C145.968 38.8808 145.392 37.7177 144.918 36.7691C144.466 36.8369 144.048 36.8708 143.664 36.8708C143.642 39.6036 143.732 42.3251 143.936 45.0353C143.936 44.9675 143.653 44.9111 143.089 44.8659C142.547 44.8207 141.903 44.8094 141.158 44.832C140.435 44.832 139.78 44.8433 139.193 44.8659C138.628 44.8885 138.244 44.8998 138.041 44.8998C138.154 37.1531 137.996 29.4064 137.566 21.6596C141.293 21.3434 144.263 21.4338 146.476 21.9307C146.973 22.0436 147.448 22.2017 147.899 22.4049C149.367 23.0825 150.451 24.1553 151.151 25.6233C151.874 27.0914 152.077 28.6385 151.761 30.2646C151.4 32.0714 150.53 33.5733 149.153 34.7703C149.604 35.7189 150.169 36.7127 150.847 37.7516ZM146.171 31.0438C147.075 30.5695 147.538 29.9936 147.56 29.316C147.56 28.9095 147.448 28.5368 147.222 28.198C146.996 27.8593 146.713 27.5882 146.375 27.385C146.059 27.1591 145.675 26.9672 145.223 26.8091C144.771 26.651 144.353 26.538 143.969 26.4703C143.608 26.3799 143.247 26.3235 142.885 26.3009C142.885 26.3235 142.897 26.5493 142.919 26.9784C142.964 27.4076 142.998 27.8706 143.021 28.3674C143.066 28.8643 143.1 29.3951 143.122 29.9597C143.168 30.5017 143.19 30.9309 143.19 31.247C143.213 31.5407 143.213 31.71 143.19 31.7552C144.432 31.6649 145.426 31.4277 146.171 31.0438ZM170.725 38.3614C170.747 38.4743 170.759 38.7227 170.759 39.1067C170.759 39.4906 170.759 39.7504 170.759 39.8859C170.759 40.0214 170.759 40.2698 170.759 40.6312C170.781 40.9926 170.793 41.2636 170.793 41.4443C170.793 41.6024 170.793 41.8395 170.793 42.1557C170.815 42.4719 170.827 42.7316 170.827 42.9349C170.849 43.1381 170.872 43.3753 170.894 43.6463C170.917 43.8947 170.928 44.1319 170.928 44.3577C170.951 44.5836 170.985 44.8094 171.03 45.0353C169.991 44.8094 167.439 44.6401 163.373 44.5271C159.308 44.3916 156.508 44.3916 154.972 44.5271C155.13 41.0716 155.22 37.3338 155.243 33.3136C155.265 29.2934 155.175 25.4314 154.972 21.7274C161.205 21.6822 166.287 21.6032 170.217 21.4902C170.172 22.0549 170.138 22.6647 170.115 23.3196C170.093 23.9746 170.07 24.6296 170.047 25.2846C170.025 25.9395 170.002 26.5606 169.98 27.1478C168.624 26.8542 167.021 26.7187 165.169 26.7413C163.34 26.7413 161.962 26.8542 161.036 27.0801C161.036 29.2708 161.047 30.6824 161.07 31.3148C163.215 31.36 165.158 31.2245 166.897 30.9083C166.942 32.0375 167.066 33.8443 167.269 36.3287C166.592 36.3287 165.553 36.3174 164.153 36.2948C162.775 36.2497 161.792 36.2271 161.205 36.2271C161.205 36.4981 161.284 37.5709 161.442 39.4455C165.327 39.1744 168.421 38.8131 170.725 38.3614Z" fill="url(#paint28_linear_2076_8863)"/>
</g>
<defs>
<filter id="filter0_dddd_2076_8863" x="48.3369" y="15.9468" width="129.364" height="34.4306" filterUnits="userSpaceOnUse" color-interpolation-filters="sRGB">
<feFlood flood-opacity="0" result="BackgroundImageFix"/>
<feColorMatrix in="SourceAlpha" type="matrix" values="0 0 0 0 0 0 0 0 0 0 0 0 0 0 0 0 0 0 127 0" result="hardAlpha"/>
<feOffset dy="1.66746"/>
<feGaussianBlur stdDeviation="1.66746"/>
<feColorMatrix type="matrix" values="0 0 0 0 0 0 0 0 0 0 0 0 0 0 0 0 0 0 0.2 0"/>
<feBlend mode="overlay" in2="BackgroundImageFix" result="effect1_dropShadow_2076_8863"/>
<feColorMatrix in="SourceAlpha" type="matrix" values="0 0 0 0 0 0 0 0 0 0 0 0 0 0 0 0 0 0 127 0" result="hardAlpha"/>
<feOffset dy="1.66746"/>
<feGaussianBlur stdDeviation="0.833732"/>
<feColorMatrix type="matrix" values="0 0 0 0 0 0 0 0 0 0 0 0 0 0 0 0 0 0 0.22 0"/>
<feBlend mode="overlay" in2="effect1_dropShadow_2076_8863" result="effect2_dropShadow_2076_8863"/>
<feColorMatrix in="SourceAlpha" type="matrix" values="0 0 0 0 0 0 0 0 0 0 0 0 0 0 0 0 0 0 127 0" result="hardAlpha"/>
<feOffset dy="1.66746"/>
<feGaussianBlur stdDeviation="1.66746"/>
<feColorMatrix type="matrix" values="0 0 0 0 0 0 0 0 0 0 0 0 0 0 0 0 0 0 0.24 0"/>
<feBlend mode="overlay" in2="effect2_dropShadow_2076_8863" result="effect3_dropShadow_2076_8863"/>
<feColorMatrix in="SourceAlpha" type="matrix" values="0 0 0 0 0 0 0 0 0 0 0 0 0 0 0 0 0 0 127 0" result="hardAlpha"/>
<feOffset dx="1.66746"/>
<feGaussianBlur stdDeviation="2.5012"/>
<feColorMatrix type="matrix" values="0 0 0 0 0 0 0 0 0 0 0 0 0 0 0 0 0 0 0.35 0"/>
<feBlend mode="normal" in2="effect3_dropShadow_2076_8863" result="effect4_dropShadow_2076_8863"/>
<feBlend mode="normal" in="SourceGraphic" in2="effect4_dropShadow_2076_8863" result="shape"/>
</filter>
<radialGradient id="paint0_radial_2076_8863" cx="0" cy="0" r="1" gradientUnits="userSpaceOnUse" gradientTransform="translate(186.635 73.652) scale(17.0567 17.0567)">
<stop stop-color="#7C8FB2"/>
<stop offset="1" stop-color="#515682"/>
</radialGradient>
<radialGradient id="paint1_radial_2076_8863" cx="0" cy="0" r="1" gradientUnits="userSpaceOnUse" gradientTransform="translate(103.015 75.9583) scale(28.9007 28.9007)">
<stop stop-color="#7C8FB2"/>
<stop offset="1" stop-color="#515682"/>
</radialGradient>
<radialGradient id="paint2_radial_2076_8863" cx="0" cy="0" r="1" gradientUnits="userSpaceOnUse" gradientTransform="translate(119.611 77.5541) scale(27.3404)">
<stop stop-color="#7C8FB2"/>
<stop offset="1" stop-color="#515682"/>
</radialGradient>
<radialGradient id="paint3_radial_2076_8863" cx="0" cy="0" r="1" gradientUnits="userSpaceOnUse" gradientTransform="translate(38.2269 0.921675) scale(251.383 251.383)">
<stop stop-color="#676C94"/>
<stop offset="1" stop-color="#17233A"/>
</radialGradient>
<radialGradient id="paint4_radial_2076_8863" cx="0" cy="0" r="1" gradientUnits="userSpaceOnUse" gradientTransform="translate(0.319149 28.5447) scale(51.0993 51.0993)">
<stop stop-color="#5A6084"/>
<stop offset="1" stop-color="#323B63"/>
</radialGradient>
<radialGradient id="paint5_radial_2076_8863" cx="0" cy="0" r="1" gradientUnits="userSpaceOnUse" gradientTransform="translate(14.4333 10.2116) scale(18.9007 18.9007)">
<stop stop-color="#8899C2"/>
<stop offset="1" stop-color="#727696"/>
</radialGradient>
<radialGradient id="paint6_radial_2076_8863" cx="0" cy="0" r="1" gradientUnits="userSpaceOnUse" gradientTransform="translate(53.1531 -43.511) scale(76.6312 76.6312)">
<stop stop-color="#8899C2"/>
<stop offset="1" stop-color="#727696"/>
</radialGradient>
<radialGradient id="paint7_radial_2076_8863" cx="0" cy="0" r="1" gradientUnits="userSpaceOnUse" gradientTransform="translate(74.3281 -57.2698) scale(75.4255 75.4255)">
<stop stop-color="#8899C2"/>
<stop offset="1" stop-color="#727696"/>
</radialGradient>
<radialGradient id="paint8_radial_2076_8863" cx="0" cy="0" r="1" gradientUnits="userSpaceOnUse" gradientTransform="translate(118.51 -31.7728) scale(78.7943 78.7943)">
<stop stop-color="#8899C2"/>
<stop offset="1" stop-color="#727696"/>
</radialGradient>
<radialGradient id="paint9_radial_2076_8863" cx="0" cy="0" r="1" gradientUnits="userSpaceOnUse" gradientTransform="translate(150.604 -57.801) scale(96.4184 96.4185)">
<stop stop-color="#8899C2"/>
<stop offset="1" stop-color="#727696"/>
</radialGradient>
<radialGradient id="paint10_radial_2076_8863" cx="0" cy="0" r="1" gradientUnits="userSpaceOnUse" gradientTransform="translate(201.878 -19.4691) scale(30.9575 30.9575)">
<stop stop-color="#8899C2"/>
<stop offset="1" stop-color="#727696"/>
</radialGradient>
<radialGradient id="paint11_radial_2076_8863" cx="0" cy="0" r="1" gradientUnits="userSpaceOnUse" gradientTransform="translate(212.872 10.1771) scale(72.0568 72.0567)">
<stop stop-color="#5A6084"/>
<stop offset="1" stop-color="#323B63"/>
</radialGradient>
<radialGradient id="paint12_radial_2076_8863" cx="0" cy="0" r="1" gradientUnits="userSpaceOnUse" gradientTransform="translate(192.129 19.8574) scale(67.4114 67.4113)">
<stop stop-color="#5A6084"/>
<stop offset="1" stop-color="#323B63"/>
</radialGradient>
<radialGradient id="paint13_radial_2076_8863" cx="0" cy="0" r="1" gradientUnits="userSpaceOnUse" gradientTransform="translate(210.529 46.3137) scale(39.3971 39.3971)">
<stop stop-color="#5A6084"/>
<stop offset="1" stop-color="#323B63"/>
</radialGradient>
<radialGradient id="paint14_radial_2076_8863" cx="0" cy="0" r="1" gradientUnits="userSpaceOnUse" gradientTransform="translate(153.509 6.09833) scale(100.213 100.213)">
<stop stop-color="#4E5470"/>
<stop offset="1" stop-color="#252E4F"/>
</radialGradient>
<radialGradient id="paint15_radial_2076_8863" cx="0" cy="0" r="1" gradientUnits="userSpaceOnUse" gradientTransform="translate(82.5518 7.94264) scale(83.9716 83.9716)">
<stop stop-color="#4E5470"/>
<stop offset="1" stop-color="#252E4F"/>
</radialGradient>
<radialGradient id="paint16_radial_2076_8863" cx="0" cy="0" r="1" gradientUnits="userSpaceOnUse" gradientTransform="translate(47.3391 19.1117) scale(81.773 81.773)">
<stop stop-color="#4E5470"/>
<stop offset="1" stop-color="#252E4F"/>
</radialGradient>
<radialGradient id="paint17_radial_2076_8863" cx="0" cy="0" r="1" gradientUnits="userSpaceOnUse" gradientTransform="translate(14.2905 49.3955) scale(40.1773 40.1773)">
<stop stop-color="#5A6084"/>
<stop offset="1" stop-color="#323B63"/>
</radialGradient>
<radialGradient id="paint18_radial_2076_8863" cx="0" cy="0" r="1" gradientUnits="userSpaceOnUse" gradientTransform="translate(-0.425535 20.8863) scale(71.383 71.383)">
<stop stop-color="#5A6084"/>
<stop offset="1" stop-color="#323B63"/>
</radialGradient>
<radialGradient id="paint19_radial_2076_8863" cx="0" cy="0" r="1" gradientUnits="userSpaceOnUse" gradientTransform="translate(40.2125 18.7233) scale(86.0638 86.0638)">
<stop stop-color="#4E5B7D"/>
<stop offset="1" stop-color="#313556"/>
</radialGradient>
<radialGradient id="paint20_radial_2076_8863" cx="0" cy="0" r="1" gradientUnits="userSpaceOnUse" gradientTransform="translate(90.781 46.2424) scale(162.837 162.837)">
<stop stop-color="#4E5B7D"/>
<stop offset="1" stop-color="#313556"/>
</radialGradient>
<radialGradient id="paint21_radial_2076_8863" cx="0" cy="0" r="1" gradientUnits="userSpaceOnUse" gradientTransform="translate(68.9013 -21.0275) scale(195.993 195.993)">
<stop stop-color="#4E5B7D"/>
<stop offset="1" stop-color="#313556"/>
</radialGradient>
<radialGradient id="paint22_radial_2076_8863" cx="0" cy="0" r="1" gradientUnits="userSpaceOnUse" gradientTransform="translate(102.34 29.3954) scale(206.241 206.241)">
<stop stop-color="#4E5B7D"/>
<stop offset="1" stop-color="#313556"/>
</radialGradient>
<radialGradient id="paint23_radial_2076_8863" cx="0" cy="0" r="1" gradientUnits="userSpaceOnUse" gradientTransform="translate(165.393 13.5466) scale(100.355 100.355)">
<stop stop-color="#1A1F3A"/>
<stop offset="1" stop-color="#647394"/>
</radialGradient>
<radialGradient id="paint24_radial_2076_8863" cx="0" cy="0" r="1" gradientUnits="userSpaceOnUse" gradientTransform="translate(32.6592 -43.1901) scale(247.482 247.482)">
<stop stop-color="#7C8FB2"/>
<stop offset="1" stop-color="#515682"/>
</radialGradient>
<radialGradient id="paint25_radial_2076_8863" cx="0" cy="0" r="1" gradientUnits="userSpaceOnUse" gradientTransform="translate(202.587 43.9371) scale(19.8581 19.8581)">
<stop stop-color="#5A6084"/>
<stop offset="1" stop-color="#323B63"/>
</radialGradient>
<radialGradient id="paint26_radial_2076_8863" cx="0" cy="0" r="1" gradientUnits="userSpaceOnUse" gradientTransform="translate(39.3233 50.4271) scale(12.5532 12.5532)">
<stop stop-color="#5A6084"/>
<stop offset="1" stop-color="#323B63"/>
</radialGradient>
<radialGradient id="paint27_radial_2076_8863" cx="0" cy="0" r="1" gradientUnits="userSpaceOnUse" gradientTransform="translate(31.5237 42.6941) scale(21.5957 21.5957)">
<stop stop-color="#5A6084"/>
<stop offset="1" stop-color="#323B63"/>
</radialGradient>
<linearGradient id="paint28_linear_2076_8863" x1="111.277" y1="18.832" x2="111.277" y2="51.832" gradientUnits="userSpaceOnUse">
<stop stop-color="white"/>
<stop offset="1" stop-color="white" stop-opacity="0"/>
</linearGradient>
</defs>
</svg>
