<svg width="213" height="88" viewBox="0 0 213 88" fill="none" xmlns="http://www.w3.org/2000/svg">
<path d="M139.144 67.1981C143.435 69.9286 149.031 72.269 154.794 73.9002C160.431 75.4605 166.237 76.3116 171.033 76.0988C175.492 75.8861 179.489 74.9641 183.107 73.3683C186.725 71.7371 189.964 69.4322 192.867 66.418L193.33 66.7371C191.521 68.6166 189.586 70.2123 187.524 71.5598C186.767 72.0563 186.346 72.6946 186.22 73.5102L185.968 75.5669L185.673 73.6165C185.673 73.4392 185.505 73.262 185.295 73.191C185.084 73.1201 184.874 73.1201 184.664 73.191C184.243 73.4038 183.822 73.6166 183.359 73.7939C179.657 75.4605 175.577 76.3825 171.033 76.5953C167.71 76.7371 163.965 76.418 160.137 75.6733C159.8 75.6024 159.464 75.6733 159.169 75.8506C158.875 76.0279 158.707 76.2761 158.665 76.5598L158.202 80.8506L157.781 76.808C157.655 75.7797 156.898 74.9641 155.72 74.6449C155.341 74.5385 154.962 74.4322 154.584 74.3258C148.736 72.6946 143.099 70.3187 138.766 67.5527L139.144 67.1272V67.1981Z" fill="url(#paint0_radial_2116_7542)"/>
<path d="M113.773 68.3342C109.945 71.1356 105.065 73.5115 99.4275 75.2845C98.3757 75.6037 97.7026 76.3838 97.6606 77.3058L97.1136 86.4193L96.5667 77.3058C96.5667 77.0221 96.3984 76.7739 96.104 76.5966C95.8095 76.4193 95.4729 76.3838 95.1784 76.4547C87.7321 78.3342 79.234 79.2916 70.1891 79.1498C69.2635 79.1498 68.4642 79.7172 68.4222 80.4973L67.9594 85.9938L67.4546 80.3555C67.3704 79.6108 66.6973 79.0434 65.8138 79.0079C56.0537 78.4406 45.8728 76.5611 35.9023 73.086C35.7341 73.015 35.6078 73.0505 35.4396 73.086C35.3134 73.1569 35.2292 73.2633 35.2292 73.4051L34.8927 77.9796L34.5982 73.5469C34.5982 72.9441 34.1354 72.4122 33.4623 72.164C33.1257 72.0576 32.8312 71.9157 32.4947 71.7739C32.2843 71.703 32.074 71.703 31.9057 71.7739C31.6954 71.8803 31.6112 72.0221 31.5691 72.1994L31.0223 79.6817L30.5174 72.2704C30.4753 71.4193 29.8864 70.7101 29.0029 70.32C25.9739 69.0079 22.9449 67.554 20 65.9228L21.809 65.3555C37.543 74.0434 53.5295 78.086 69.4318 78.5115C87.6059 78.9725 102.667 75.2491 112.511 67.6959L113.773 68.2633V68.3342Z" fill="url(#paint1_radial_2116_7542)"/>
<path d="M130.851 67.9087C126.307 70.7456 121.974 73.1569 117.683 75.1782C116.673 75.6746 116.042 76.4902 116 77.4832L115.748 81.4193L115.453 77.4122C115.453 77.164 115.285 76.9512 115.033 76.8094C114.78 76.6675 114.486 76.6675 114.191 76.8094C110.11 78.547 106.156 79.9299 102.285 80.9583C101.528 81.1711 101.023 81.703 100.981 82.3768L100.729 87.5186L100.434 82.164C100.434 81.9867 100.308 81.8094 100.14 81.703C99.9717 81.5966 99.7613 81.5611 99.5509 81.5966C94.6709 82.7314 89.8749 83.3342 85.1211 83.4761C83.2279 83.547 81.3348 83.547 79.4837 83.4761C78.8527 83.4761 78.2637 83.8661 78.2216 84.398L77.9272 87.3413L77.6327 84.2207C77.5906 83.7243 77.1278 83.3342 76.5389 83.2987C65.2642 82.4477 54.0737 79.2916 42.168 74.8945L42.3363 74.5754C57.2289 80.0718 70.9436 83.6179 85.079 83.1214C99.2565 82.6604 113.855 78.1569 130.598 67.625L130.851 67.9087Z" fill="url(#paint2_radial_2116_7542)"/>
<path fill-rule="evenodd" clip-rule="evenodd" d="M6.9352 2.41104C20.9429 1.9855 33.6117 0.602532 47.7911 0.0351562C57.4043 0.247922 70.1417 0.850753 82.1925 0.389761C104.303 0.921675 127.237 0.95714 133.245 0.850757C156.832 1.66636 181.38 2.55289 206.442 3.33303C207.472 3.54579 209.841 5.35431 210.253 6.4536C211.009 9.96424 211.764 12.9075 212.313 15.9926C212.451 18.1203 212.966 24.5387 212.966 28.794C212.279 41.8082 211.283 54.3259 210.803 63.8649C210.219 64.8933 205.721 67.2337 203.147 68.0493C177.809 69.0068 151.75 69.5741 123.838 70.6025C98.8438 69.3614 67.3607 68.0139 42.0919 68.333C28.7708 67.5174 16.617 67.1273 5.83656 67.1983C4.63491 66.6663 2.60928 64.716 2.16296 63.9004C0.995648 50.9571 0.480658 38.9358 0 26.0281C0.37766 18.333 1.6823 12.943 2.12863 6.6309C2.64362 5.60253 5.73356 2.97842 6.90087 2.51743L6.9352 2.41104Z" fill="url(#paint3_radial_2116_7542)"/>
<path fill-rule="evenodd" clip-rule="evenodd" d="M4.70358 24.5376C5.4589 20.0341 7.0382 16.027 8.06818 10.566L2.12863 6.52344C1.71663 12.871 0.37766 18.2256 0 25.9206L4.66924 24.5022L4.70358 24.5376Z" fill="url(#paint4_radial_2116_7542)"/>
<path fill-rule="evenodd" clip-rule="evenodd" d="M2.12891 6.5591L8.06846 10.6016C8.27446 10.4243 9.71643 8.97045 9.92243 8.79314L6.93548 2.41016C5.76817 2.90661 2.67823 5.53072 2.16324 6.52363L2.12891 6.5591Z" fill="url(#paint5_radial_2116_7542)"/>
<path fill-rule="evenodd" clip-rule="evenodd" d="M6.93359 2.41104L9.92054 8.79402C22.967 8.33303 39.378 6.41814 51.3601 5.24793L47.7895 0.0351562C33.6101 0.602532 20.9757 1.9855 6.93359 2.41104Z" fill="url(#paint6_radial_2116_7542)"/>
<path fill-rule="evenodd" clip-rule="evenodd" d="M47.7578 0.0351562L51.3284 5.24793C61.4565 5.177 73.7133 5.24792 83.7385 6.91458L82.3652 0.425229C82.3652 0.425229 82.2278 0.425229 82.1592 0.425229C70.0741 0.886222 57.3366 0.247916 47.7578 0.0706113V0.0351562Z" fill="url(#paint7_radial_2116_7542)"/>
<path fill-rule="evenodd" clip-rule="evenodd" d="M82.3633 0.425781L83.7366 6.91514C94.5514 5.88677 103.65 5.85132 113.881 7.34068C120.404 6.87968 125.794 6.84422 131.837 5.85131L133.21 0.851309C127.236 0.957692 104.405 0.922235 82.3633 0.425781Z" fill="url(#paint8_radial_2116_7542)"/>
<path fill-rule="evenodd" clip-rule="evenodd" d="M133.244 0.851562L131.871 5.85156C154.256 7.41184 180.898 8.33384 203.489 9.68135L206.407 3.33383C181.344 2.55369 156.797 1.66717 133.21 0.851562H133.244Z" fill="url(#paint9_radial_2116_7542)"/>
<path fill-rule="evenodd" clip-rule="evenodd" d="M206.407 3.33234L203.488 9.67986C203.9 9.96355 204.312 10.3536 204.69 10.8146L210.252 6.41745C209.805 5.31816 207.437 3.5451 206.441 3.29688L206.407 3.33234Z" fill="url(#paint10_radial_2116_7542)"/>
<path fill-rule="evenodd" clip-rule="evenodd" d="M210.253 6.41827L204.691 10.8154C204.932 12.8722 205.035 14.9289 205.412 16.9147C206.408 20.9927 207.884 26.702 208.159 28.7587H212.966C212.966 24.4679 212.451 18.0495 212.313 15.9218C211.764 12.8722 211.009 9.92891 210.253 6.38281V6.41827Z" fill="url(#paint11_radial_2116_7542)"/>
<path fill-rule="evenodd" clip-rule="evenodd" d="M212.967 28.7227H208.161C207.337 38.9709 207.302 50.5666 206.719 61.1695L210.839 63.7936C211.319 54.2546 212.315 41.7723 213.002 28.7227H212.967Z" fill="url(#paint12_radial_2116_7542)"/>
<path fill-rule="evenodd" clip-rule="evenodd" d="M206.682 61.1719C205.789 61.6329 204.759 62.0939 204.004 62.413L203.18 67.9804C205.755 67.1648 210.252 64.8243 210.836 63.796L206.716 61.1719H206.682Z" fill="url(#paint13_radial_2116_7542)"/>
<path fill-rule="evenodd" clip-rule="evenodd" d="M204.002 62.375C177.943 63.3679 149.825 64.5736 123.801 65.531L123.869 70.531C151.816 69.5027 177.84 68.9353 203.178 67.9778L204.002 62.4105V62.375Z" fill="url(#paint14_radial_2116_7542)"/>
<path fill-rule="evenodd" clip-rule="evenodd" d="M123.767 65.5313C112.609 64.432 91.0478 62.4107 82.5677 62.3043C72.9889 62.0916 59.5305 62.5171 46.072 62.6944L42.3984 68.2618C67.5986 67.9426 98.91 69.2901 123.801 70.5313L123.733 65.5313H123.767Z" fill="url(#paint15_radial_2116_7542)"/>
<path fill-rule="evenodd" clip-rule="evenodd" d="M42.4354 68.2606L46.109 62.6932C35.6375 62.0549 19.3295 60.3173 8.75504 60.2109L5.87109 67.1613C16.6516 67.0904 28.8053 67.4804 42.1264 68.296C42.2294 68.296 42.3324 68.296 42.4354 68.296V68.2606Z" fill="url(#paint16_radial_2116_7542)"/>
<path fill-rule="evenodd" clip-rule="evenodd" d="M5.87364 67.1259L8.75758 60.1756C8.20826 60.1047 7.38428 59.6082 7.14395 59.2891L2.23438 63.8281C2.6807 64.6437 4.70633 66.5586 5.90797 67.1259H5.87364Z" fill="url(#paint17_radial_2116_7542)"/>
<path fill-rule="evenodd" clip-rule="evenodd" d="M2.19729 63.865L7.10687 59.326C6.14555 47.8012 5.1499 36.1345 4.66924 24.5742L0 25.9927C0.51499 38.9359 0.995648 50.9572 2.16296 63.865H2.19729Z" fill="url(#paint18_radial_2116_7542)"/>
<path fill-rule="evenodd" clip-rule="evenodd" d="M37.8344 19.007C40.478 17.234 43.0873 15.3546 45.6279 13.1205C46.7952 11.2056 47.9625 9.25527 49.1642 7.34038C49.7135 6.41839 49.9538 5.85101 49.3702 5.46094C37.594 6.63115 22.2473 8.36874 9.9219 8.82973C9.71591 8.97158 8.27393 10.4609 8.06793 10.6382C7.07229 15.7092 5.66465 19.539 4.875 23.6524C5.01233 23.8652 5.11533 23.9716 5.28699 24.0425C6.41997 24.6099 28.3929 20.3191 33.7145 19.3971C34.7788 19.2198 36.9761 19.2553 37.8687 19.0425L37.8344 19.007Z" fill="url(#paint19_radial_2116_7542)"/>
<path fill-rule="evenodd" clip-rule="evenodd" d="M46.3832 13.4764C44.4262 14.7885 42.5379 16.1715 40.6496 17.6254C39.654 18.4055 39.0703 18.9729 39.0703 19.1502C39.0703 19.292 39.654 19.6821 40.9243 20.0367C63.9272 26.2424 85.6254 33.9729 105.95 44.1857C106.946 44.2566 107.049 43.9729 107.976 42.6963C113.435 34.9658 120.679 28.4764 129.091 22.6963C130.533 21.7034 130.327 21.4197 130.292 20.4977C130.121 16.5615 130.567 10.9587 131.013 9.11474C130.704 12.98 130.67 16.8807 130.773 20.214C130.773 21.0651 130.739 21.4197 131.7 20.9587C133.348 20.1431 138.189 17.0935 143.51 14.4693C148.866 11.8452 154.668 9.75303 156.66 8.37005C157.93 7.48353 157.14 7.37716 156.248 7.34169C147.871 6.91616 139.631 6.45516 131.906 5.92325C125.863 6.91616 120.439 6.95161 113.95 7.4126C103.684 5.92324 94.6206 5.99417 83.8058 6.98708C73.815 5.35587 61.5926 5.24948 51.4987 5.32041C49.6104 6.84523 47.5162 10.9942 46.4518 13.5474L46.3832 13.4764Z" fill="url(#paint20_radial_2116_7542)"/>
<path fill-rule="evenodd" clip-rule="evenodd" d="M104.334 44.2916C91.6656 38.0859 57.9165 24.4689 41.8145 20.781C36.4243 19.5398 35.3943 20.1072 30.0727 20.9228C20.4939 22.4122 6.3145 24.4689 5.11286 24.8944C4.97553 24.9299 4.87253 25.0363 4.76953 25.1781C5.25019 36.5256 6.2115 47.9796 7.17282 59.2916C7.41314 59.6108 8.23713 60.0718 8.78646 60.1781C11.1897 60.1781 13.9364 60.32 16.8203 60.4973C26.5365 61.0646 38.0722 62.1994 46.1404 62.6959C59.5645 62.5186 73.0229 62.093 82.6361 62.3058C86.2067 62.3412 92.0432 62.7313 98.4634 63.2278C105.57 63.6533 112.677 64.5398 119.818 64.7171C121.295 64.7526 122.531 64.5753 122.702 64.4334C123.046 64.1852 121.81 61.632 120.539 59.2561C116.488 55.4973 112.54 51.7029 108.626 47.6604C106.841 45.8164 106.669 45.3554 104.369 44.2561L104.334 44.2916Z" fill="url(#paint21_radial_2116_7542)"/>
<path fill-rule="evenodd" clip-rule="evenodd" d="M143.648 14.6791C131.22 20.7429 116.766 31.4166 108.732 42.7642C107.668 44.2535 107.668 44.6436 108.114 46.0975C111.822 50.3883 116.216 54.7145 121.366 59.1117C122.053 60.4592 123.186 62.9769 124.182 64.0407C124.525 64.4308 125.006 64.6436 126.001 64.7854C132.112 65.5656 138.292 64.75 144.472 64.7145C154.635 62.5869 164.66 60.1755 174.136 56.6294C178.839 54.8209 183.234 52.5514 187.251 49.7145C192.95 45.4592 198.512 40.9911 203.833 36.2039C205.207 34.5727 206.305 32.5159 207.301 30.4592C207.988 29.1117 208.125 28.5443 208.022 27.8351C207.988 27.6223 207.919 27.4095 207.885 27.1613C207.267 24.5372 206.237 20.1755 205.413 16.9131C205.035 14.8918 204.932 12.8705 204.692 10.8138C204.314 10.3528 203.936 9.96275 203.49 9.67906C190.65 8.89892 176.47 8.29608 162.497 7.58686C161.845 7.58686 161.158 7.51593 160.506 7.48047C159.853 7.48047 159.201 7.58685 158.549 7.87054C157.931 8.15423 157.519 8.57976 156.351 9.50174C152.334 10.9202 147.768 12.6578 143.648 14.6791Z" fill="url(#paint22_radial_2116_7542)"/>
<path fill-rule="evenodd" clip-rule="evenodd" d="M185.911 51.8445C181.997 53.6175 178.221 55.6388 174.513 57.7665C165.037 60.7806 154.875 62.9083 144.438 64.7523C156.832 64.2558 169.432 63.7593 181.826 63.2629C189.345 62.9792 196.761 62.6601 204.039 62.4118C204.829 62.0927 205.859 61.6672 206.717 61.1707C207.266 51.5253 207.335 40.9934 207.987 31.4899C207.85 31.1352 207.747 30.9579 207.644 30.9225C207.266 30.7452 204.76 35.8516 204.382 37.0927C199.095 40.9225 195.147 44.1494 190.306 48.5111C188.246 50.3906 189.379 50.426 191.37 51.8445C193.087 53.0856 194.666 54.2558 196.417 55.7097C193.053 53.7239 189.448 50.2842 185.946 51.8799L185.911 51.8445Z" fill="url(#paint23_radial_2116_7542)"/>
<path opacity="0.75" fill-rule="evenodd" clip-rule="evenodd" d="M7.79538 4.25532C21.4598 3.72341 35.5362 3.97163 49.0289 1.84397L82.8123 2.44682C99.7727 1.66668 116.355 2.41135 132.698 2.87234C148.113 3.29788 192.78 2.12766 205.346 5.39007C206.032 5.31915 208.264 6.4539 208.436 7.87234C211.217 11.5957 211.766 15.7092 212.624 20.2128C212.487 18.3688 212.384 16.8085 212.315 15.9574C211.766 12.9078 211.011 9.96454 210.255 6.41844C209.809 5.31915 207.44 3.5461 206.444 3.29787C181.381 2.51773 156.834 1.63122 133.247 0.815615C127.239 0.921998 104.305 0.886533 82.1943 0.354618C70.1092 0.815611 57.3718 0.177305 47.793 0C33.6136 0.567376 20.9791 1.95036 6.93706 2.37589C5.76975 2.87235 2.67981 5.49646 2.16482 6.48937C1.78716 11.9858 0.757178 16.7376 0.242188 22.9078C1.82149 17.695 3.77846 12.6596 3.2978 7.23404C5.11743 6.48936 6.35341 5.67376 7.82971 4.1844L7.79538 4.25532Z" fill="#007AFF"/>
<path fill-rule="evenodd" clip-rule="evenodd" d="M181.791 63.2638C186.77 63.1929 191.782 63.0511 196.76 62.9447C198.923 62.9447 201.086 62.8028 203.215 62.9447C203.387 62.9447 203.558 63.1929 203.558 63.3702C203.558 64.5049 203.455 65.6751 203.318 66.7744C203.593 65.4978 203.696 64.1503 204.108 62.9447C204.279 62.4128 206.339 61.5262 206.923 61.739C208.09 62.2 209.155 62.9092 210.288 63.4766C209.498 62.8383 208.743 62.2354 207.953 61.5971C206.923 60.7815 207.06 60.7106 207.129 59.3631C207.232 57.2354 207.404 55.1078 207.507 52.9801C207.507 45.4624 207.747 38.6893 208.331 31.1716C208.399 30.4624 208.399 29.4695 208.708 29.1149C208.846 28.973 211.97 28.7603 212.382 28.6893C212.073 28.6893 208.743 28.4057 208.708 28.3347C208.228 27.6255 207.816 25.0369 207.438 23.8312C207.163 22.4482 206.854 21.0652 206.58 19.6823C206.408 18.8312 206.236 17.9092 206.477 17.661C206.58 17.5546 207.026 17.2709 207.575 17.1291C208.468 16.8454 209.395 16.5617 210.288 16.3135C209.017 16.5617 208.022 16.8099 206.751 16.739C205.618 16.6681 205.79 16.1362 205.687 14.9659C205.618 14.2213 205.241 13.4057 205.172 12.661C205.069 11.5262 204.863 11.1362 205.721 10.356C206.992 9.18581 208.228 8.05106 209.498 6.88084C208.262 7.80283 207.026 8.72481 205.79 9.6468C204.417 10.6752 203.902 9.54041 204.52 7.98013C205.069 6.56169 205.618 5.14325 206.168 3.76027C205.447 5.10779 204.691 6.45531 203.97 7.80282C203.112 9.39857 202.7 9.04396 200.915 8.97304C189.482 8.65389 178.152 7.83829 166.754 6.88084C162.016 6.739 133.897 6.20708 132.661 5.21417C132.249 4.85956 132.764 3.33475 133.108 1.13617C131.769 4.96595 132.49 5.14325 128.232 5.95885C124.627 6.24254 118.551 7.05814 115.186 6.66807C114.328 6.56169 114.156 6.56169 114.156 5.67517C114.156 4.75318 114.087 3.79573 114.053 2.87375C113.95 3.90212 113.813 4.85956 113.71 5.88793C113.641 6.59715 113.126 6.31347 112.439 6.24254C109.109 5.78155 105.813 5.42695 102.449 5.24964C96.5433 5.32056 91.6337 5.88793 85.7629 6.278C83.4282 6.20708 83.3596 4.0085 82.4326 0.958851C82.5356 1.77445 83.0849 4.75318 82.8103 5.35602C82.5699 5.85247 81.9519 5.74608 80.819 5.6397C78.038 5.35601 75.2571 5.07233 72.5104 4.78864C67.9442 4.61134 63.4123 4.54041 58.8117 4.50495C56.4771 4.46949 52.8721 4.93049 51.0525 4.29219C50.9152 4.22127 48.5462 1.13616 48.2029 0.746094C48.5119 1.38439 49.7135 3.5475 49.5762 4.11488C49.4045 4.75317 48.3059 4.71772 47.3789 4.78864C44.804 4.96595 42.4693 5.17872 39.8944 5.24964C30.3842 6.49078 21.5264 7.30637 11.9819 7.94467C10.6773 8.01559 10.334 8.40567 9.68163 7.27092C8.82331 5.81702 7.99933 4.39857 7.14101 2.94467C7.862 4.93049 8.51432 6.49076 9.02931 8.5475C9.1323 8.93757 7.82766 9.6468 7.34701 9.39857C5.63037 8.51205 4.22273 7.80283 2.57476 6.80992C3.70774 7.76737 4.49739 8.61843 5.63037 9.57587C7.31267 10.9943 7.14101 10.4269 6.62602 12.5901C5.83636 15.9943 5.01238 19.3986 4.22273 22.8028C3.87941 24.2213 3.84507 24.2213 2.54043 24.7177C1.75078 25.0369 1.27012 25.4269 0.480469 25.7461C1.27012 25.5688 2.0941 25.3915 2.88376 25.2496C3.74207 25.0723 4.29139 24.8241 4.32573 25.8525C4.32573 27.2709 4.36006 28.6893 4.39439 30.1432C4.77205 35.2496 5.14971 40.3206 5.52737 45.4269C5.8707 49.6468 6.24836 53.8666 6.59169 58.0865C6.59169 58.4057 6.52302 58.7603 6.38569 59.0794C5.9737 60.0014 3.87941 62.0581 3.12409 62.9092C4.3944 61.9518 5.69903 60.9943 6.96934 60.0014C7.07234 59.8596 8.13666 60.1787 8.27399 60.5688C7.99933 61.4908 7.69033 62.3773 7.41567 63.2993C7.89633 62.4482 8.34265 61.5617 8.82331 60.7106C8.99498 60.5333 9.2353 60.4269 9.5443 60.3915C10.8489 60.3915 12.1879 60.3915 13.4926 60.3915C14.5569 60.3915 15.6898 60.3915 16.7885 60.4269C13.9045 60.2496 11.1923 60.1432 8.75465 60.1078C8.20532 60.0369 7.38134 59.5404 7.14101 59.2213C6.1797 47.9092 5.21838 36.4553 4.73772 25.1078C4.84072 24.9659 4.94372 24.895 5.08105 24.8241C6.28269 24.3631 20.4621 22.3064 30.0409 20.8525C35.3625 20.0369 36.4268 19.4695 41.7827 20.7106C57.8847 24.3986 91.6337 38.0156 104.303 44.2213C106.603 45.356 106.774 45.817 108.56 47.6255C112.474 51.6326 116.422 55.4624 120.473 59.2213C121.744 61.6326 122.945 64.1858 122.636 64.3986C122.465 64.5404 121.263 64.7177 119.752 64.6823C112.611 64.5049 105.504 63.583 98.3973 63.1929C105.847 64.1858 113.435 64.6822 121.366 65.6752C122.361 65.7815 122.876 65.8525 123.22 66.1716C123.46 66.3844 123.735 68.0156 123.838 69.6468C124.078 67.4128 124.078 66.0652 124.49 65.9234C124.662 65.8525 125.554 65.8525 126.481 65.817C132.455 65.7106 138.429 65.3206 144.403 64.7177C154.84 62.8738 165.037 60.7106 174.479 57.7319C178.186 55.6397 181.963 53.6184 185.877 51.8099C189.379 50.2142 192.984 53.6184 196.348 55.6397C194.632 54.2213 193.052 53.0156 191.302 51.7745C189.31 50.356 188.177 50.3205 190.237 48.4411C195.078 44.0794 199.061 40.8525 204.314 37.0227C204.691 35.7815 207.198 30.6752 207.575 30.8525C207.678 30.8879 207.781 31.0652 207.919 31.4198C207.301 40.9588 207.198 51.4553 206.648 61.1007C205.756 61.5617 204.726 62.0227 203.97 62.3418C196.692 62.6255 189.276 62.9092 181.757 63.1929L181.791 63.2638ZM144.403 64.7532C138.258 64.7532 132.043 65.6042 125.932 64.8241C124.971 64.6823 124.49 64.4695 124.112 64.0794C123.117 62.9801 122.018 60.4979 121.297 59.1503C116.147 54.7532 111.753 50.3915 108.045 46.1362C107.633 44.7177 107.598 44.3277 108.663 42.8028C116.697 31.4553 131.151 20.7815 143.579 14.7177C147.699 12.6964 152.3 10.9943 156.282 9.54042C157.449 8.58297 157.861 8.15744 158.479 7.90922C159.784 7.34184 161.089 7.5546 162.462 7.62552C176.401 8.29928 190.581 8.93758 203.455 9.71772C203.867 10.0014 204.279 10.3915 204.657 10.8525C204.897 12.9092 205 14.9659 205.378 16.9518C206.168 20.2142 207.198 24.6113 207.85 27.2C208.125 28.3702 208.125 28.7603 207.266 30.4979C206.236 32.5901 205.138 34.6113 203.799 36.2425C198.443 41.0298 192.881 45.4624 187.216 49.7532C183.199 52.5901 178.804 54.8241 174.101 56.6681C164.625 60.2142 154.6 62.6255 144.437 64.7532H144.403ZM105.95 44.1858C85.6255 33.973 63.9273 26.2425 40.9244 20.0369C39.6541 19.6823 39.1047 19.3276 39.0704 19.1503C39.0704 18.973 39.6197 18.4057 40.6497 17.6255C42.538 16.1716 44.4263 14.7886 46.3833 13.4766C47.4819 10.9234 49.5762 6.77446 51.4302 5.24964C61.524 5.17872 73.7464 5.28509 83.7372 6.9163C94.552 5.88793 103.65 5.85248 113.881 7.34184C120.405 6.88085 125.795 6.84538 131.837 5.85247C139.459 6.38439 147.596 6.84538 155.905 7.27092C156.866 7.30638 157.965 7.34184 156.591 8.33474C154.634 9.71772 148.832 11.8099 143.442 14.434C138.086 17.0582 133.279 20.1078 131.631 20.9234C130.67 21.4198 130.739 21.0298 130.704 20.1787C130.636 16.8454 130.636 12.9092 130.945 9.07942C130.498 10.9234 130.086 16.5262 130.224 20.4624C130.258 21.3844 130.43 21.6681 129.022 22.661C120.611 28.4766 113.401 34.9305 107.907 42.661C106.98 43.973 106.877 44.2213 105.882 44.1503L105.95 44.1858ZM4.87505 23.6184C5.69904 19.4695 7.10667 15.6752 8.06799 10.6042C8.27399 10.4269 9.71596 8.97304 9.92196 8.79574C22.2474 8.37021 37.5941 6.63262 49.3702 5.42694C49.9539 5.81701 49.7135 6.38439 49.1642 7.30637C47.9969 9.22126 46.8296 11.1716 45.6279 13.0865C43.1217 15.356 40.5124 17.2355 37.8344 18.973C36.9418 19.1858 34.7445 19.1503 33.6802 19.3276C28.3586 20.2496 6.38569 24.5404 5.25271 23.973C5.11538 23.9021 4.97805 23.7957 4.84072 23.583L4.87505 23.6184Z" fill="url(#paint24_radial_2116_7542)"/>
<g style="mix-blend-mode:screen" opacity="0.5">
<path fill-rule="evenodd" clip-rule="evenodd" d="M36.2893 41.1721C35.6713 41.1012 34.9847 41.3494 34.5727 41.8458C33.7487 42.8742 33.1651 44.1508 32.8904 45.4274C32.6157 46.7749 34.8474 48.087 35.946 48.1224C36.8043 48.1224 37.8343 47.8033 38.3493 47.0941C39.1733 45.9593 37.9716 41.3494 36.255 41.1721H36.2893Z" fill="#373FA5"/>
</g>
<g style="mix-blend-mode:screen" opacity="0.5">
<path fill-rule="evenodd" clip-rule="evenodd" d="M23.9994 28.5819C22.2141 29.0429 20.3945 29.8231 19.0898 31.1351C17.5105 32.7309 15.5192 37.6954 16.6865 39.894C17.3388 41.0997 18.6778 42.1635 20.0168 42.2344C22.0768 42.3762 24.3084 41.7379 25.9564 40.4614C27.5357 39.2202 28.3596 37.4117 29.5956 35.816C30.3853 34.7876 31.3123 33.7592 31.9646 32.589C33.0632 30.6387 31.2779 28.6174 29.9046 28.3692C27.6387 27.9791 26.231 28.0146 23.9994 28.6174V28.5819Z" fill="#373FA5"/>
</g>
<g style="mix-blend-mode:screen" opacity="0.5">
<path fill-rule="evenodd" clip-rule="evenodd" d="M192.264 27.4477C189.964 27.9087 187.492 31.9513 186.942 34.3626C186.359 36.8449 187.423 38.1924 188.59 37.696C191.131 36.6676 198.341 33.6534 198.821 30.4619C199.062 28.8307 198.272 27.3768 196.624 27.0931C195.182 26.8449 193.706 27.164 192.264 27.4477Z" fill="#373FA5"/>
</g>
<path fill-rule="evenodd" clip-rule="evenodd" d="M191.885 26.9868C189.585 27.4478 187.113 31.4903 186.563 33.9017C185.98 36.384 187.044 37.7315 188.211 37.235C190.752 36.2066 197.962 33.1925 198.442 30.001C198.683 28.3698 197.893 26.9159 196.245 26.6322C194.803 26.384 193.327 26.7031 191.885 26.9868Z" fill="url(#paint25_radial_2116_7542)"/>
<path fill-rule="evenodd" clip-rule="evenodd" d="M35.9104 40.7463C35.2924 40.6754 34.6058 40.9236 34.1938 41.42C33.3698 42.4484 32.7862 43.725 32.5115 45.0016C32.2368 46.3491 34.4685 47.6612 35.5671 47.6966C36.4254 47.6966 37.4554 47.3775 37.9704 46.6683C38.7944 45.5335 37.5927 40.9236 35.8761 40.7463H35.9104Z" fill="url(#paint26_radial_2116_7542)"/>
<path fill-rule="evenodd" clip-rule="evenodd" d="M23.6208 28.1551C21.8355 28.6161 20.0159 29.3962 18.7113 30.7083C17.1663 32.304 15.1407 37.2686 16.308 39.4671C16.9603 40.6728 18.2993 41.7366 19.6383 41.8076C21.6982 41.9494 23.9298 41.3111 25.5778 40.0345C27.1571 38.7934 27.9811 36.9849 29.2171 35.3891C30.0067 34.3608 30.9337 33.3324 31.586 32.1622C32.6847 30.2118 30.8994 28.1905 29.5261 27.9423C27.2601 27.5522 25.8525 27.5877 23.6208 28.1551Z" fill="url(#paint27_radial_2116_7542)"/>
<g filter="url(#filter0_dddd_2116_7542)">
<path d="M69.0608 29.352C68.8848 29.448 68.6208 29.6 68.2688 29.808C67.9328 30 67.6528 30.16 67.4288 30.288C67.2048 30.416 66.9328 30.552 66.6128 30.696C66.3088 30.84 66.0208 30.96 65.7488 31.056C65.6528 30.56 65.4608 30.104 65.1728 29.688C64.8048 29.208 64.4128 28.984 63.9968 29.016C63.5968 29.032 63.2208 29.216 62.8688 29.568C62.5168 29.904 62.2848 30.296 62.1728 30.744C61.5648 32.904 61.4928 34.824 61.9568 36.504C62.1328 37.144 62.4368 37.648 62.8688 38.016C63.3008 38.384 63.7888 38.368 64.3328 37.968C64.6848 37.712 65.0288 37.184 65.3648 36.384C64.6128 36.624 64.0528 36.8 63.6848 36.912C63.5408 36.304 63.3808 35.224 63.2048 33.672C63.2208 33.752 64.1008 33.752 65.8448 33.672C67.5888 33.592 68.6928 33.528 69.1568 33.48C69.1248 36.072 69.4048 38.632 69.9968 41.16C68.9248 41.592 67.8288 41.968 66.7088 42.288C66.6608 41.936 66.6288 41.12 66.6128 39.84C66.6128 40.192 66.3408 40.544 65.7968 40.896C65.2688 41.232 64.7968 41.456 64.3808 41.568C63.1968 41.856 62.0128 41.736 60.8288 41.208C60.3008 40.968 59.8688 40.68 59.5328 40.344C59.0528 39.864 58.6688 39.184 58.3808 38.304C58.1088 37.456 57.9328 36.528 57.8528 35.52C57.7728 34.496 57.7968 33.48 57.9248 32.472C58.0528 31.448 58.3088 30.472 58.6928 29.544C59.0928 28.6 59.5808 27.776 60.1568 27.072C60.7328 26.368 61.4688 25.824 62.3648 25.44C63.2768 25.056 64.2768 24.912 65.3648 25.008C65.6848 25.04 65.9648 25.088 66.2048 25.152C66.9888 25.408 67.6368 25.984 68.1488 26.88C68.4368 27.392 68.7408 28.216 69.0608 29.352ZM82.0988 37.416C82.1148 37.496 82.1228 37.672 82.1228 37.944C82.1228 38.216 82.1228 38.4 82.1228 38.496C82.1228 38.592 82.1228 38.768 82.1228 39.024C82.1388 39.28 82.1468 39.472 82.1468 39.6C82.1468 39.712 82.1468 39.88 82.1468 40.104C82.1628 40.328 82.1708 40.512 82.1708 40.656C82.1868 40.8 82.2028 40.968 82.2188 41.16C82.2348 41.336 82.2428 41.504 82.2428 41.664C82.2588 41.824 82.2828 41.984 82.3148 42.144C81.5788 41.984 79.7708 41.864 76.8908 41.784C74.0108 41.688 72.0268 41.688 70.9388 41.784C71.0508 39.336 71.1148 36.688 71.1308 33.84C71.1468 30.992 71.0828 28.256 70.9388 25.632C75.3548 25.6 78.9548 25.544 81.7388 25.464C81.7068 25.864 81.6828 26.296 81.6668 26.76C81.6508 27.224 81.6348 27.688 81.6188 28.152C81.6028 28.616 81.5868 29.056 81.5708 29.472C80.6108 29.264 79.4748 29.168 78.1628 29.184C76.8668 29.184 75.8908 29.264 75.2348 29.424C75.2348 30.976 75.2428 31.976 75.2588 32.424C76.7788 32.456 78.1548 32.36 79.3868 32.136C79.4188 32.936 79.5068 34.216 79.6508 35.976C79.1708 35.976 78.4348 35.968 77.4428 35.952C76.4668 35.92 75.7708 35.904 75.3548 35.904C75.3548 36.096 75.4108 36.856 75.5228 38.184C78.2748 37.992 80.4668 37.736 82.0988 37.416ZM94.5954 29.856C94.0354 29.728 92.7794 29.672 90.8274 29.688C90.8914 34.056 91.1074 38.088 91.4754 41.784C89.2834 41.928 87.5874 42.04 86.3874 42.12C86.4194 41.688 86.4594 40.96 86.5074 39.936C86.5714 38.896 86.6194 38.16 86.6514 37.728C86.6834 37.296 86.7154 36.664 86.7474 35.832C86.7954 34.984 86.8274 34.296 86.8434 33.768C86.8594 33.224 86.8754 32.592 86.8914 31.872C86.9074 31.152 86.9074 30.456 86.8914 29.784C84.6514 29.896 83.2674 30.016 82.7394 30.144C82.7394 28.544 82.6514 27.008 82.4754 25.536C86.3954 25.888 90.5154 25.864 94.8354 25.464C94.5954 26.696 94.5154 28.16 94.5954 29.856ZM107.497 41.544C105.977 41.576 104.457 41.68 102.937 41.856C103.065 39.232 103.081 36.424 102.985 33.432C102.905 30.44 102.729 27.912 102.457 25.848C104.217 25.832 105.673 25.664 106.825 25.344C107.625 28.304 108.913 31.376 110.689 34.56C110.641 33.648 110.593 32.688 110.545 31.68C110.513 30.656 110.473 29.64 110.425 28.632C110.377 27.608 110.337 26.64 110.305 25.728C111.425 25.872 112.913 25.8 114.769 25.512C114.337 30.984 114.361 36.336 114.841 41.568C113.129 41.616 111.689 41.736 110.521 41.928C109.753 39.512 108.577 37.056 106.993 34.56C106.993 36.416 107.161 38.744 107.497 41.544ZM127.117 31.56C127.213 32.136 127.245 32.784 127.213 33.504C127.181 34.224 127.125 34.96 127.045 35.712C126.965 36.448 126.797 37.176 126.541 37.896C126.301 38.616 126.005 39.272 125.653 39.864C125.317 40.44 124.861 40.928 124.285 41.328C123.725 41.728 123.093 41.984 122.389 42.096C121.029 42.288 119.845 42.112 118.837 41.568C117.829 41.024 117.077 40.24 116.581 39.216C116.101 38.192 115.853 37 115.837 35.64C115.821 32.792 116.205 30.52 116.989 28.824C117.517 27.656 118.357 26.736 119.509 26.064C120.629 25.408 121.829 25.256 123.109 25.608C124.389 25.96 125.349 26.672 125.989 27.744C126.533 28.656 126.901 29.832 127.093 31.272C127.093 31.368 127.101 31.464 127.117 31.56ZM122.629 36.936C122.885 34.632 122.861 32.384 122.557 30.192C122.509 29.808 122.365 29.472 122.125 29.184C121.885 28.896 121.605 28.88 121.285 29.136C120.917 29.408 120.621 29.936 120.397 30.72C120.173 31.504 120.037 32.224 119.989 32.88C119.941 33.52 119.917 34.136 119.917 34.728C119.917 34.776 119.917 34.856 119.917 34.968C119.933 37.144 120.229 38.464 120.805 38.928C120.933 39.024 121.109 39.072 121.333 39.072C121.605 39.088 121.813 39.032 121.957 38.904C122.277 38.632 122.501 37.976 122.629 36.936ZM142.785 25.464C142.657 27.944 142.593 30.712 142.593 33.768C142.609 36.824 142.689 39.392 142.833 41.472C140.225 41.648 138.449 41.832 137.505 42.024C137.361 41 137.057 39.464 136.593 37.416C136.145 35.352 135.761 34.072 135.441 33.576C134.625 36.568 134.057 39.336 133.737 41.88C131.897 41.816 130.057 41.768 128.217 41.736C128.761 35.944 128.777 30.56 128.265 25.584C128.809 25.616 129.577 25.632 130.569 25.632C131.577 25.616 132.345 25.608 132.873 25.608C132.457 28.504 132.177 32.096 132.033 36.384C132.753 34.288 133.265 31.568 133.569 28.224C133.617 28.208 133.673 28.2 133.737 28.2C133.801 28.184 133.865 28.176 133.929 28.176C133.993 28.176 134.049 28.168 134.097 28.152C134.385 28.136 134.713 28.112 135.081 28.08C135.465 28.032 135.841 27.992 136.209 27.96C136.577 27.912 136.905 27.872 137.193 27.84C137.193 27.84 137.249 28.144 137.361 28.752C137.473 29.344 137.585 29.952 137.697 30.576C137.825 31.2 137.897 31.552 137.913 31.632C138.105 32.368 138.297 33.104 138.489 33.84C138.537 33.984 138.593 34.144 138.657 34.32C138.721 34.496 138.785 34.672 138.849 34.848C138.913 35.008 138.961 35.16 138.993 35.304C138.657 31.16 138.273 27.968 137.841 25.728C138.129 25.712 138.865 25.68 140.049 25.632C141.233 25.584 142.145 25.528 142.785 25.464Z" fill="#B6F6FF"/>
<path d="M69.0608 29.352C68.8848 29.448 68.6208 29.6 68.2688 29.808C67.9328 30 67.6528 30.16 67.4288 30.288C67.2048 30.416 66.9328 30.552 66.6128 30.696C66.3088 30.84 66.0208 30.96 65.7488 31.056C65.6528 30.56 65.4608 30.104 65.1728 29.688C64.8048 29.208 64.4128 28.984 63.9968 29.016C63.5968 29.032 63.2208 29.216 62.8688 29.568C62.5168 29.904 62.2848 30.296 62.1728 30.744C61.5648 32.904 61.4928 34.824 61.9568 36.504C62.1328 37.144 62.4368 37.648 62.8688 38.016C63.3008 38.384 63.7888 38.368 64.3328 37.968C64.6848 37.712 65.0288 37.184 65.3648 36.384C64.6128 36.624 64.0528 36.8 63.6848 36.912C63.5408 36.304 63.3808 35.224 63.2048 33.672C63.2208 33.752 64.1008 33.752 65.8448 33.672C67.5888 33.592 68.6928 33.528 69.1568 33.48C69.1248 36.072 69.4048 38.632 69.9968 41.16C68.9248 41.592 67.8288 41.968 66.7088 42.288C66.6608 41.936 66.6288 41.12 66.6128 39.84C66.6128 40.192 66.3408 40.544 65.7968 40.896C65.2688 41.232 64.7968 41.456 64.3808 41.568C63.1968 41.856 62.0128 41.736 60.8288 41.208C60.3008 40.968 59.8688 40.68 59.5328 40.344C59.0528 39.864 58.6688 39.184 58.3808 38.304C58.1088 37.456 57.9328 36.528 57.8528 35.52C57.7728 34.496 57.7968 33.48 57.9248 32.472C58.0528 31.448 58.3088 30.472 58.6928 29.544C59.0928 28.6 59.5808 27.776 60.1568 27.072C60.7328 26.368 61.4688 25.824 62.3648 25.44C63.2768 25.056 64.2768 24.912 65.3648 25.008C65.6848 25.04 65.9648 25.088 66.2048 25.152C66.9888 25.408 67.6368 25.984 68.1488 26.88C68.4368 27.392 68.7408 28.216 69.0608 29.352ZM82.0988 37.416C82.1148 37.496 82.1228 37.672 82.1228 37.944C82.1228 38.216 82.1228 38.4 82.1228 38.496C82.1228 38.592 82.1228 38.768 82.1228 39.024C82.1388 39.28 82.1468 39.472 82.1468 39.6C82.1468 39.712 82.1468 39.88 82.1468 40.104C82.1628 40.328 82.1708 40.512 82.1708 40.656C82.1868 40.8 82.2028 40.968 82.2188 41.16C82.2348 41.336 82.2428 41.504 82.2428 41.664C82.2588 41.824 82.2828 41.984 82.3148 42.144C81.5788 41.984 79.7708 41.864 76.8908 41.784C74.0108 41.688 72.0268 41.688 70.9388 41.784C71.0508 39.336 71.1148 36.688 71.1308 33.84C71.1468 30.992 71.0828 28.256 70.9388 25.632C75.3548 25.6 78.9548 25.544 81.7388 25.464C81.7068 25.864 81.6828 26.296 81.6668 26.76C81.6508 27.224 81.6348 27.688 81.6188 28.152C81.6028 28.616 81.5868 29.056 81.5708 29.472C80.6108 29.264 79.4748 29.168 78.1628 29.184C76.8668 29.184 75.8908 29.264 75.2348 29.424C75.2348 30.976 75.2428 31.976 75.2588 32.424C76.7788 32.456 78.1548 32.36 79.3868 32.136C79.4188 32.936 79.5068 34.216 79.6508 35.976C79.1708 35.976 78.4348 35.968 77.4428 35.952C76.4668 35.92 75.7708 35.904 75.3548 35.904C75.3548 36.096 75.4108 36.856 75.5228 38.184C78.2748 37.992 80.4668 37.736 82.0988 37.416ZM94.5954 29.856C94.0354 29.728 92.7794 29.672 90.8274 29.688C90.8914 34.056 91.1074 38.088 91.4754 41.784C89.2834 41.928 87.5874 42.04 86.3874 42.12C86.4194 41.688 86.4594 40.96 86.5074 39.936C86.5714 38.896 86.6194 38.16 86.6514 37.728C86.6834 37.296 86.7154 36.664 86.7474 35.832C86.7954 34.984 86.8274 34.296 86.8434 33.768C86.8594 33.224 86.8754 32.592 86.8914 31.872C86.9074 31.152 86.9074 30.456 86.8914 29.784C84.6514 29.896 83.2674 30.016 82.7394 30.144C82.7394 28.544 82.6514 27.008 82.4754 25.536C86.3954 25.888 90.5154 25.864 94.8354 25.464C94.5954 26.696 94.5154 28.16 94.5954 29.856ZM107.497 41.544C105.977 41.576 104.457 41.68 102.937 41.856C103.065 39.232 103.081 36.424 102.985 33.432C102.905 30.44 102.729 27.912 102.457 25.848C104.217 25.832 105.673 25.664 106.825 25.344C107.625 28.304 108.913 31.376 110.689 34.56C110.641 33.648 110.593 32.688 110.545 31.68C110.513 30.656 110.473 29.64 110.425 28.632C110.377 27.608 110.337 26.64 110.305 25.728C111.425 25.872 112.913 25.8 114.769 25.512C114.337 30.984 114.361 36.336 114.841 41.568C113.129 41.616 111.689 41.736 110.521 41.928C109.753 39.512 108.577 37.056 106.993 34.56C106.993 36.416 107.161 38.744 107.497 41.544ZM127.117 31.56C127.213 32.136 127.245 32.784 127.213 33.504C127.181 34.224 127.125 34.96 127.045 35.712C126.965 36.448 126.797 37.176 126.541 37.896C126.301 38.616 126.005 39.272 125.653 39.864C125.317 40.44 124.861 40.928 124.285 41.328C123.725 41.728 123.093 41.984 122.389 42.096C121.029 42.288 119.845 42.112 118.837 41.568C117.829 41.024 117.077 40.24 116.581 39.216C116.101 38.192 115.853 37 115.837 35.64C115.821 32.792 116.205 30.52 116.989 28.824C117.517 27.656 118.357 26.736 119.509 26.064C120.629 25.408 121.829 25.256 123.109 25.608C124.389 25.96 125.349 26.672 125.989 27.744C126.533 28.656 126.901 29.832 127.093 31.272C127.093 31.368 127.101 31.464 127.117 31.56ZM122.629 36.936C122.885 34.632 122.861 32.384 122.557 30.192C122.509 29.808 122.365 29.472 122.125 29.184C121.885 28.896 121.605 28.88 121.285 29.136C120.917 29.408 120.621 29.936 120.397 30.72C120.173 31.504 120.037 32.224 119.989 32.88C119.941 33.52 119.917 34.136 119.917 34.728C119.917 34.776 119.917 34.856 119.917 34.968C119.933 37.144 120.229 38.464 120.805 38.928C120.933 39.024 121.109 39.072 121.333 39.072C121.605 39.088 121.813 39.032 121.957 38.904C122.277 38.632 122.501 37.976 122.629 36.936ZM142.785 25.464C142.657 27.944 142.593 30.712 142.593 33.768C142.609 36.824 142.689 39.392 142.833 41.472C140.225 41.648 138.449 41.832 137.505 42.024C137.361 41 137.057 39.464 136.593 37.416C136.145 35.352 135.761 34.072 135.441 33.576C134.625 36.568 134.057 39.336 133.737 41.88C131.897 41.816 130.057 41.768 128.217 41.736C128.761 35.944 128.777 30.56 128.265 25.584C128.809 25.616 129.577 25.632 130.569 25.632C131.577 25.616 132.345 25.608 132.873 25.608C132.457 28.504 132.177 32.096 132.033 36.384C132.753 34.288 133.265 31.568 133.569 28.224C133.617 28.208 133.673 28.2 133.737 28.2C133.801 28.184 133.865 28.176 133.929 28.176C133.993 28.176 134.049 28.168 134.097 28.152C134.385 28.136 134.713 28.112 135.081 28.08C135.465 28.032 135.841 27.992 136.209 27.96C136.577 27.912 136.905 27.872 137.193 27.84C137.193 27.84 137.249 28.144 137.361 28.752C137.473 29.344 137.585 29.952 137.697 30.576C137.825 31.2 137.897 31.552 137.913 31.632C138.105 32.368 138.297 33.104 138.489 33.84C138.537 33.984 138.593 34.144 138.657 34.32C138.721 34.496 138.785 34.672 138.849 34.848C138.913 35.008 138.961 35.16 138.993 35.304C138.657 31.16 138.273 27.968 137.841 25.728C138.129 25.712 138.865 25.68 140.049 25.632C141.233 25.584 142.145 25.528 142.785 25.464Z" fill="url(#paint28_linear_2116_7542)"/>
</g>
<defs>
<filter id="filter0_dddd_2116_7542" x="54.3994" y="19.8609" width="95.1024" height="27.5243" filterUnits="userSpaceOnUse" color-interpolation-filters="sRGB">
<feFlood flood-opacity="0" result="BackgroundImageFix"/>
<feColorMatrix in="SourceAlpha" type="matrix" values="0 0 0 0 0 0 0 0 0 0 0 0 0 0 0 0 0 0 127 0" result="hardAlpha"/>
<feOffset dy="1.66746"/>
<feGaussianBlur stdDeviation="1.66746"/>
<feColorMatrix type="matrix" values="0 0 0 0 0 0 0 0 0 0 0 0 0 0 0 0 0 0 0.2 0"/>
<feBlend mode="overlay" in2="BackgroundImageFix" result="effect1_dropShadow_2116_7542"/>
<feColorMatrix in="SourceAlpha" type="matrix" values="0 0 0 0 0 0 0 0 0 0 0 0 0 0 0 0 0 0 127 0" result="hardAlpha"/>
<feOffset dy="1.66746"/>
<feGaussianBlur stdDeviation="0.833732"/>
<feColorMatrix type="matrix" values="0 0 0 0 0 0 0 0 0 0 0 0 0 0 0 0 0 0 0.22 0"/>
<feBlend mode="overlay" in2="effect1_dropShadow_2116_7542" result="effect2_dropShadow_2116_7542"/>
<feColorMatrix in="SourceAlpha" type="matrix" values="0 0 0 0 0 0 0 0 0 0 0 0 0 0 0 0 0 0 127 0" result="hardAlpha"/>
<feOffset dy="1.66746"/>
<feGaussianBlur stdDeviation="1.66746"/>
<feColorMatrix type="matrix" values="0 0 0 0 0 0 0 0 0 0 0 0 0 0 0 0 0 0 0.24 0"/>
<feBlend mode="overlay" in2="effect2_dropShadow_2116_7542" result="effect3_dropShadow_2116_7542"/>
<feColorMatrix in="SourceAlpha" type="matrix" values="0 0 0 0 0 0 0 0 0 0 0 0 0 0 0 0 0 0 127 0" result="hardAlpha"/>
<feOffset dx="1.66746"/>
<feGaussianBlur stdDeviation="2.5012"/>
<feColorMatrix type="matrix" values="0 0 0 0 0 0 0 0 0 0 0 0 0 0 0 0 0 0 0.35 0"/>
<feBlend mode="normal" in2="effect3_dropShadow_2116_7542" result="effect4_dropShadow_2116_7542"/>
<feBlend mode="normal" in="SourceGraphic" in2="effect4_dropShadow_2116_7542" result="shape"/>
</filter>
<radialGradient id="paint0_radial_2116_7542" cx="0" cy="0" r="1" gradientUnits="userSpaceOnUse" gradientTransform="translate(166.069 73.652) scale(20.2355 17.0567)">
<stop stop-color="#7C8FB2"/>
<stop offset="1" stop-color="#515682"/>
</radialGradient>
<radialGradient id="paint1_radial_2116_7542" cx="0" cy="0" r="1" gradientUnits="userSpaceOnUse" gradientTransform="translate(66.8656 75.9583) scale(34.2867 28.9007)">
<stop stop-color="#7C8FB2"/>
<stop offset="1" stop-color="#515682"/>
</radialGradient>
<radialGradient id="paint2_radial_2116_7542" cx="0" cy="0" r="1" gradientUnits="userSpaceOnUse" gradientTransform="translate(86.5514 77.5541) scale(32.4357 27.3404)">
<stop stop-color="#7C8FB2"/>
<stop offset="1" stop-color="#515682"/>
</radialGradient>
<radialGradient id="paint3_radial_2116_7542" cx="0" cy="0" r="1" gradientUnits="userSpaceOnUse" gradientTransform="translate(37.0106 0.921675) scale(243.384 251.383)">
<stop stop-color="#676C94"/>
<stop offset="1" stop-color="#17233A"/>
</radialGradient>
<radialGradient id="paint4_radial_2116_7542" cx="0" cy="0" r="1" gradientUnits="userSpaceOnUse" gradientTransform="translate(0.308995 28.5447) scale(49.4734 51.0993)">
<stop stop-color="#5A6084"/>
<stop offset="1" stop-color="#323B63"/>
</radialGradient>
<radialGradient id="paint5_radial_2116_7542" cx="0" cy="0" r="1" gradientUnits="userSpaceOnUse" gradientTransform="translate(13.9737 10.2116) scale(18.2993 18.9007)">
<stop stop-color="#8899C2"/>
<stop offset="1" stop-color="#727696"/>
</radialGradient>
<radialGradient id="paint6_radial_2116_7542" cx="0" cy="0" r="1" gradientUnits="userSpaceOnUse" gradientTransform="translate(51.4631 -43.511) scale(74.1929 76.6312)">
<stop stop-color="#8899C2"/>
<stop offset="1" stop-color="#727696"/>
</radialGradient>
<radialGradient id="paint7_radial_2116_7542" cx="0" cy="0" r="1" gradientUnits="userSpaceOnUse" gradientTransform="translate(71.9623 -57.2698) scale(73.0256 75.4255)">
<stop stop-color="#8899C2"/>
<stop offset="1" stop-color="#727696"/>
</radialGradient>
<radialGradient id="paint8_radial_2116_7542" cx="0" cy="0" r="1" gradientUnits="userSpaceOnUse" gradientTransform="translate(114.739 -31.7728) scale(76.2872 78.7943)">
<stop stop-color="#8899C2"/>
<stop offset="1" stop-color="#727696"/>
</radialGradient>
<radialGradient id="paint9_radial_2116_7542" cx="0" cy="0" r="1" gradientUnits="userSpaceOnUse" gradientTransform="translate(145.81 -57.801) scale(93.3506 96.4185)">
<stop stop-color="#8899C2"/>
<stop offset="1" stop-color="#727696"/>
</radialGradient>
<radialGradient id="paint10_radial_2116_7542" cx="0" cy="0" r="1" gradientUnits="userSpaceOnUse" gradientTransform="translate(195.454 -19.4691) scale(29.9725 30.9575)">
<stop stop-color="#8899C2"/>
<stop offset="1" stop-color="#727696"/>
</radialGradient>
<radialGradient id="paint11_radial_2116_7542" cx="0" cy="0" r="1" gradientUnits="userSpaceOnUse" gradientTransform="translate(206.099 10.1771) scale(69.7641 72.0567)">
<stop stop-color="#5A6084"/>
<stop offset="1" stop-color="#323B63"/>
</radialGradient>
<radialGradient id="paint12_radial_2116_7542" cx="0" cy="0" r="1" gradientUnits="userSpaceOnUse" gradientTransform="translate(186.016 19.8574) scale(65.2665 67.4113)">
<stop stop-color="#5A6084"/>
<stop offset="1" stop-color="#323B63"/>
</radialGradient>
<radialGradient id="paint13_radial_2116_7542" cx="0" cy="0" r="1" gradientUnits="userSpaceOnUse" gradientTransform="translate(203.832 46.3137) scale(38.1435 39.3971)">
<stop stop-color="#5A6084"/>
<stop offset="1" stop-color="#323B63"/>
</radialGradient>
<radialGradient id="paint14_radial_2116_7542" cx="0" cy="0" r="1" gradientUnits="userSpaceOnUse" gradientTransform="translate(148.623 6.09833) scale(97.0242 100.213)">
<stop stop-color="#4E5470"/>
<stop offset="1" stop-color="#252E4F"/>
</radialGradient>
<radialGradient id="paint15_radial_2116_7542" cx="0" cy="0" r="1" gradientUnits="userSpaceOnUse" gradientTransform="translate(79.9241 7.94264) scale(81.2998 83.9716)">
<stop stop-color="#4E5470"/>
<stop offset="1" stop-color="#252E4F"/>
</radialGradient>
<radialGradient id="paint16_radial_2116_7542" cx="0" cy="0" r="1" gradientUnits="userSpaceOnUse" gradientTransform="translate(45.8343 19.1117) scale(79.1712 81.773)">
<stop stop-color="#4E5470"/>
<stop offset="1" stop-color="#252E4F"/>
</radialGradient>
<radialGradient id="paint17_radial_2116_7542" cx="0" cy="0" r="1" gradientUnits="userSpaceOnUse" gradientTransform="translate(13.8388 49.3955) scale(38.8989 40.1773)">
<stop stop-color="#5A6084"/>
<stop offset="1" stop-color="#323B63"/>
</radialGradient>
<radialGradient id="paint18_radial_2116_7542" cx="0" cy="0" r="1" gradientUnits="userSpaceOnUse" gradientTransform="translate(-0.411996 20.8863) scale(69.1117 71.383)">
<stop stop-color="#5A6084"/>
<stop offset="1" stop-color="#323B63"/>
</radialGradient>
<radialGradient id="paint19_radial_2116_7542" cx="0" cy="0" r="1" gradientUnits="userSpaceOnUse" gradientTransform="translate(38.933 18.7233) scale(83.3254 86.0638)">
<stop stop-color="#4E5B7D"/>
<stop offset="1" stop-color="#313556"/>
</radialGradient>
<radialGradient id="paint20_radial_2116_7542" cx="0" cy="0" r="1" gradientUnits="userSpaceOnUse" gradientTransform="translate(87.8914 46.2424) scale(157.656 162.837)">
<stop stop-color="#4E5B7D"/>
<stop offset="1" stop-color="#313556"/>
</radialGradient>
<radialGradient id="paint21_radial_2116_7542" cx="0" cy="0" r="1" gradientUnits="userSpaceOnUse" gradientTransform="translate(66.7057 -21.0275) scale(189.757 195.993)">
<stop stop-color="#4E5B7D"/>
<stop offset="1" stop-color="#313556"/>
</radialGradient>
<radialGradient id="paint22_radial_2116_7542" cx="0" cy="0" r="1" gradientUnits="userSpaceOnUse" gradientTransform="translate(99.0844 29.3954) scale(199.679 206.241)">
<stop stop-color="#4E5B7D"/>
<stop offset="1" stop-color="#313556"/>
</radialGradient>
<radialGradient id="paint23_radial_2116_7542" cx="0" cy="0" r="1" gradientUnits="userSpaceOnUse" gradientTransform="translate(160.128 13.5466) scale(97.1615 100.355)">
<stop stop-color="#1A1F3A"/>
<stop offset="1" stop-color="#647394"/>
</radialGradient>
<radialGradient id="paint24_radial_2116_7542" cx="0" cy="0" r="1" gradientUnits="userSpaceOnUse" gradientTransform="translate(31.6202 -43.1901) scale(239.608 247.482)">
<stop stop-color="#7C8FB2"/>
<stop offset="1" stop-color="#515682"/>
</radialGradient>
<radialGradient id="paint25_radial_2116_7542" cx="0" cy="0" r="1" gradientUnits="userSpaceOnUse" gradientTransform="translate(196.142 43.9371) scale(19.2263 19.8581)">
<stop stop-color="#5A6084"/>
<stop offset="1" stop-color="#323B63"/>
</radialGradient>
<radialGradient id="paint26_radial_2116_7542" cx="0" cy="0" r="1" gradientUnits="userSpaceOnUse" gradientTransform="translate(38.0734 50.4271) scale(12.1538 12.5532)">
<stop stop-color="#5A6084"/>
<stop offset="1" stop-color="#323B63"/>
</radialGradient>
<radialGradient id="paint27_radial_2116_7542" cx="0" cy="0" r="1" gradientUnits="userSpaceOnUse" gradientTransform="translate(30.5217 42.6941) scale(20.9086 21.5957)">
<stop stop-color="#5A6084"/>
<stop offset="1" stop-color="#323B63"/>
</radialGradient>
<linearGradient id="paint28_linear_2116_7542" x1="100.5" y1="23" x2="100.5" y2="47" gradientUnits="userSpaceOnUse">
<stop stop-color="white"/>
<stop offset="1" stop-color="white" stop-opacity="0"/>
</linearGradient>
</defs>
</svg>
