<svg width="229" height="88" viewBox="0 0 229 88" fill="none" xmlns="http://www.w3.org/2000/svg">
<path d="M174.492 67.1981C178.783 69.9286 184.378 72.269 190.142 73.9002C195.779 75.4605 201.585 76.3116 206.381 76.0988C210.84 75.8861 214.837 74.9641 218.455 73.3683C222.073 71.7371 225.312 69.4322 228.215 66.418L228.678 66.7371C226.869 68.6166 224.933 70.2123 222.872 71.5598C222.115 72.0563 221.694 72.6946 221.568 73.5102L221.315 75.5669L221.021 73.6165C221.021 73.4392 220.853 73.262 220.642 73.191C220.432 73.1201 220.222 73.1201 220.011 73.191C219.591 73.4038 219.17 73.6166 218.707 73.7939C215.005 75.4605 210.924 76.3825 206.381 76.5953C203.057 76.7371 199.313 76.418 195.485 75.6733C195.148 75.6024 194.812 75.6733 194.517 75.8506C194.223 76.0279 194.054 76.2761 194.012 76.5598L193.549 80.8506L193.129 76.808C193.003 75.7797 192.245 74.9641 191.067 74.6449C190.689 74.5385 190.31 74.4322 189.931 74.3258C184.084 72.6946 178.446 70.3187 174.113 67.5527L174.492 67.1272V67.1981Z" fill="url(#paint0_radial_2116_7470)"/>
<path d="M149.121 68.3342C145.293 71.1356 140.412 73.5115 134.775 75.2845C133.723 75.6037 133.05 76.3838 133.008 77.3058L132.461 86.4193L131.914 77.3058C131.914 77.0221 131.746 76.7739 131.452 76.5966C131.157 76.4193 130.821 76.3838 130.526 76.4547C123.08 78.3342 114.582 79.2916 105.537 79.1498C104.611 79.1498 103.812 79.7172 103.77 80.4973L103.307 85.9938L102.802 80.3555C102.718 79.6108 102.045 79.0434 101.161 79.0079C91.4013 78.4406 81.2205 76.5611 71.25 73.086C71.0817 73.015 70.9555 73.0505 70.7872 73.086C70.661 73.1569 70.5769 73.2633 70.5769 73.4051L70.2403 77.9796L69.9458 73.5469C69.9458 72.9441 69.4831 72.4122 68.8099 72.164C68.4734 72.0576 68.1789 71.9157 67.8423 71.7739C67.632 71.703 67.4216 71.703 67.2534 71.7739C67.043 71.8803 66.9589 72.0221 66.9168 72.1994L66.3699 79.6817L65.8651 72.2704C65.823 71.4193 65.234 70.7101 64.3506 70.32C61.3215 69.0079 58.2925 67.554 55.3477 65.9228L57.1567 65.3555C72.8907 74.0434 88.8772 78.086 104.779 78.5115C122.954 78.9725 138.014 75.2491 147.859 67.6959L149.121 68.2633V68.3342Z" fill="url(#paint1_radial_2116_7470)"/>
<path d="M166.198 67.9087C161.655 70.7456 157.322 73.1569 153.031 75.1782C152.021 75.6746 151.39 76.4902 151.348 77.4832L151.095 81.4193L150.801 77.4122C150.801 77.164 150.633 76.9512 150.38 76.8094C150.128 76.6675 149.833 76.6675 149.539 76.8094C145.458 78.547 141.504 79.9299 137.633 80.9583C136.876 81.1711 136.371 81.703 136.329 82.3768L136.077 87.5186L135.782 82.164C135.782 81.9867 135.656 81.8094 135.488 81.703C135.319 81.5966 135.109 81.5611 134.899 81.5966C130.019 82.7314 125.223 83.3342 120.469 83.4761C118.576 83.547 116.682 83.547 114.831 83.4761C114.2 83.4761 113.611 83.8661 113.569 84.398L113.275 87.3413L112.98 84.2207C112.938 83.7243 112.475 83.3342 111.887 83.2987C100.612 82.4477 89.4213 79.2916 77.5156 74.8945L77.6839 74.5754C92.5766 80.0718 106.291 83.6179 120.427 83.1214C134.604 82.6604 149.202 78.1569 165.946 67.625L166.198 67.9087Z" fill="url(#paint2_radial_2116_7470)"/>
<path fill-rule="evenodd" clip-rule="evenodd" d="M7.19568 2.41104C21.7295 1.9855 34.8741 0.602532 49.5861 0.0351562C59.5603 0.247922 72.7761 0.850753 85.2795 0.389761C108.22 0.921675 132.016 0.95714 138.25 0.850757C162.722 1.66636 188.192 2.55289 214.196 3.33303C215.265 3.54579 217.723 5.35431 218.15 6.4536C218.934 9.96424 219.718 12.9075 220.288 15.9926C220.43 18.1203 220.964 24.5387 220.964 28.794C220.252 41.8082 219.219 54.3259 218.72 63.8649C218.115 64.8933 213.448 67.2337 210.776 68.0493C184.487 69.0068 157.45 69.5741 128.489 70.6025C102.556 69.3614 69.8907 68.0139 43.6728 68.333C29.8514 67.5174 17.2411 67.1273 6.05577 67.1983C4.80899 66.6663 2.70729 64.716 2.2442 63.9004C1.03304 50.9571 0.49871 38.9358 0 26.0281C0.391844 18.333 1.74549 12.943 2.20857 6.6309C2.74291 5.60253 5.9489 2.97842 7.16005 2.51743L7.19568 2.41104Z" fill="url(#paint3_radial_2116_7470)"/>
<path fill-rule="evenodd" clip-rule="evenodd" d="M4.88024 24.5376C5.66393 20.0341 7.30254 16.027 8.37121 10.566L2.20857 6.52344C1.78111 12.871 0.391844 18.2256 0 25.9206L4.84461 24.5022L4.88024 24.5376Z" fill="url(#paint4_radial_2116_7470)"/>
<path fill-rule="evenodd" clip-rule="evenodd" d="M2.21094 6.5591L8.37357 10.6016C8.58731 10.4243 10.0834 8.97045 10.2972 8.79314L7.19804 2.41016C5.98689 2.90661 2.78089 5.53072 2.24656 6.52363L2.21094 6.5591Z" fill="url(#paint5_radial_2116_7470)"/>
<path fill-rule="evenodd" clip-rule="evenodd" d="M7.19531 2.41104L10.2944 8.79402C23.8309 8.33303 40.8583 6.41814 53.2904 5.24793L49.5857 0.0351562C34.8737 0.602532 21.7648 1.9855 7.19531 2.41104Z" fill="url(#paint6_radial_2116_7470)"/>
<path fill-rule="evenodd" clip-rule="evenodd" d="M49.5508 0.0351562L53.2555 5.24793C63.764 5.177 76.4811 5.24792 86.8828 6.91458L85.4579 0.425229C85.4579 0.425229 85.3154 0.425229 85.2442 0.425229C72.7052 0.886222 59.4894 0.247916 49.5508 0.0706113V0.0351562Z" fill="url(#paint7_radial_2116_7470)"/>
<path fill-rule="evenodd" clip-rule="evenodd" d="M85.457 0.425781L86.8819 6.91514C98.1029 5.88677 107.543 5.85132 118.158 7.34068C124.926 6.87968 130.519 6.84422 136.789 5.85131L138.213 0.851309C132.015 0.957692 108.326 0.922235 85.457 0.425781Z" fill="url(#paint8_radial_2116_7470)"/>
<path fill-rule="evenodd" clip-rule="evenodd" d="M138.249 0.851562L136.824 5.85156C160.05 7.41184 187.693 8.33384 211.132 9.68135L214.16 3.33383C188.156 2.55369 162.686 1.66717 138.213 0.851562H138.249Z" fill="url(#paint9_radial_2116_7470)"/>
<path fill-rule="evenodd" clip-rule="evenodd" d="M214.161 3.33234L211.133 9.67986C211.56 9.96355 211.988 10.3536 212.38 10.8146L218.15 6.41745C217.687 5.31816 215.229 3.5451 214.196 3.29688L214.161 3.33234Z" fill="url(#paint10_radial_2116_7470)"/>
<path fill-rule="evenodd" clip-rule="evenodd" d="M218.15 6.41827L212.379 10.8154C212.628 12.8722 212.735 14.9289 213.127 16.9147C214.16 20.9927 215.692 26.702 215.977 28.7587H220.964C220.964 24.4679 220.43 18.0495 220.287 15.9218C219.717 12.8722 218.933 9.92891 218.15 6.38281V6.41827Z" fill="url(#paint11_radial_2116_7470)"/>
<path fill-rule="evenodd" clip-rule="evenodd" d="M220.964 28.7227H215.977C215.122 38.9709 215.086 50.5666 214.48 61.1695L218.755 63.7936C219.254 54.2546 220.287 41.7723 220.999 28.7227H220.964Z" fill="url(#paint12_radial_2116_7470)"/>
<path fill-rule="evenodd" clip-rule="evenodd" d="M214.446 61.1719C213.52 61.6329 212.451 62.0939 211.667 62.413L210.812 67.9804C213.484 67.1648 218.151 64.8243 218.756 63.796L214.482 61.1719H214.446Z" fill="url(#paint13_radial_2116_7470)"/>
<path fill-rule="evenodd" clip-rule="evenodd" d="M211.667 62.375C184.629 63.3679 155.455 64.5736 128.453 65.531L128.524 70.531C157.521 69.5027 184.522 68.9353 210.812 67.9778L211.667 62.4105V62.375Z" fill="url(#paint14_radial_2116_7470)"/>
<path fill-rule="evenodd" clip-rule="evenodd" d="M128.417 65.5313C116.84 64.432 94.4688 62.4107 85.6701 62.3043C75.7315 62.0916 61.7677 62.5171 47.8038 62.6944L43.9922 68.2618C70.1389 67.9426 102.626 69.2901 128.452 70.5313L128.381 65.5313H128.417Z" fill="url(#paint15_radial_2116_7470)"/>
<path fill-rule="evenodd" clip-rule="evenodd" d="M44.0275 68.2606L47.839 62.6932C36.9743 62.0549 20.0537 60.3173 9.08211 60.2109L6.08984 67.1613C17.2752 67.0904 29.8855 67.4804 43.7069 68.296C43.8137 68.296 43.9206 68.296 44.0275 68.296V68.2606Z" fill="url(#paint16_radial_2116_7470)"/>
<path fill-rule="evenodd" clip-rule="evenodd" d="M6.09235 67.1259L9.08462 60.1756C8.51466 60.1047 7.65973 59.6082 7.41038 59.2891L2.31641 63.8281C2.77949 64.6437 4.8812 66.5586 6.12798 67.1259H6.09235Z" fill="url(#paint17_radial_2116_7470)"/>
<path fill-rule="evenodd" clip-rule="evenodd" d="M2.27982 63.865L7.37379 59.326C6.37637 47.8012 5.34333 36.1345 4.84461 24.5742L0 25.9927C0.534333 38.9359 1.03304 50.9572 2.2442 63.865H2.27982Z" fill="url(#paint18_radial_2116_7470)"/>
<path fill-rule="evenodd" clip-rule="evenodd" d="M39.2559 19.007C41.9988 17.234 44.7061 15.3546 47.3421 13.1205C48.5533 11.2056 49.7644 9.25527 51.0112 7.34038C51.5812 6.41839 51.8305 5.85101 51.2249 5.46094C39.0065 6.63115 23.0834 8.36874 10.2951 8.82973C10.0813 8.97158 8.58518 10.4609 8.37145 10.6382C7.33841 15.7092 5.8779 19.539 5.05859 23.6524C5.20108 23.8652 5.30795 23.9716 5.48606 24.0425C6.66159 24.6099 29.4598 20.3191 34.9812 19.3971C36.0855 19.2198 38.3653 19.2553 39.2915 19.0425L39.2559 19.007Z" fill="url(#paint19_radial_2116_7470)"/>
<path fill-rule="evenodd" clip-rule="evenodd" d="M48.1266 13.4764C46.0961 14.7885 44.1369 16.1715 42.1777 17.6254C41.1446 18.4055 40.5391 18.9729 40.5391 19.1502C40.5391 19.292 41.1446 19.6821 42.4627 20.0367C66.3295 26.2424 88.8427 33.9729 109.931 44.1857C110.964 44.2566 111.071 43.9729 112.033 42.6963C117.697 34.9658 125.213 28.4764 133.94 22.6963C135.437 21.7034 135.223 21.4197 135.187 20.4977C135.009 16.5615 135.472 10.9587 135.935 9.11474C135.615 12.98 135.579 16.8807 135.686 20.214C135.686 21.0651 135.65 21.4197 136.648 20.9587C138.358 20.1431 143.38 17.0935 148.902 14.4693C154.459 11.8452 160.479 9.75303 162.545 8.37005C163.863 7.48353 163.044 7.37716 162.118 7.34169C153.426 6.91616 144.876 6.45516 136.861 5.92325C130.592 6.91616 124.964 6.95161 118.231 7.4126C107.58 5.92324 98.1757 5.99417 86.9548 6.98708C76.5887 5.35587 63.9072 5.24948 53.4343 5.32041C51.4751 6.84523 49.3021 10.9942 48.1978 13.5474L48.1266 13.4764Z" fill="url(#paint20_radial_2116_7470)"/>
<path fill-rule="evenodd" clip-rule="evenodd" d="M108.254 44.2916C95.1089 38.0859 60.0923 24.4689 43.3855 20.781C37.7929 19.5398 36.7242 20.1072 31.2028 20.9228C21.2642 22.4122 6.55222 24.4689 5.30544 24.8944C5.16295 24.9299 5.05609 25.0363 4.94922 25.1781C5.44793 36.5256 6.44535 47.9796 7.44277 59.2916C7.69212 59.6108 8.54706 60.0718 9.11701 60.1781C11.6106 60.1781 14.4603 60.32 17.4526 60.4973C27.5337 61.0646 39.5027 62.1994 47.8739 62.6959C61.8022 62.5186 75.7661 62.093 85.7403 62.3058C89.445 62.3412 95.5008 62.7313 102.162 63.2278C109.536 63.6533 116.91 64.5398 124.319 64.7171C125.851 64.7526 127.133 64.5753 127.311 64.4334C127.668 64.1852 126.385 61.632 125.067 59.2561C120.864 55.4973 116.767 51.7029 112.706 47.6604C110.854 45.8164 110.676 45.3554 108.289 44.2561L108.254 44.2916Z" fill="url(#paint21_radial_2116_7470)"/>
<path fill-rule="evenodd" clip-rule="evenodd" d="M149.044 14.683C136.149 20.7468 121.152 31.4205 112.817 42.7681C111.712 44.2574 111.712 44.6475 112.175 46.1014C116.022 50.3922 120.582 54.7184 125.925 59.1156C126.638 60.4631 127.813 62.9808 128.846 64.0447C129.203 64.4347 129.701 64.6475 130.734 64.7893C137.075 65.5695 143.487 64.7539 149.899 64.7184C160.443 62.5908 170.845 60.1794 180.677 56.6333C185.557 54.8248 190.117 52.5553 194.284 49.7184C200.198 45.4631 205.968 40.995 211.49 36.2078C212.915 34.5766 214.055 32.5198 215.088 30.4631C215.8 29.1156 215.943 28.5482 215.836 27.839C215.8 27.6262 215.729 27.4134 215.693 27.1652C215.052 24.5411 213.983 20.1794 213.129 16.917C212.737 14.8957 212.63 12.8745 212.38 10.8177C211.989 10.3567 211.597 9.96665 211.134 9.68297C197.811 8.90282 183.099 8.29999 168.601 7.59077C167.924 7.59077 167.212 7.51984 166.535 7.48438C165.858 7.48438 165.181 7.59076 164.504 7.87445C163.863 8.15814 163.436 8.58366 162.224 9.50565C158.057 10.9241 153.319 12.6617 149.044 14.683Z" fill="url(#paint22_radial_2116_7470)"/>
<path fill-rule="evenodd" clip-rule="evenodd" d="M192.895 51.8445C188.834 53.6175 184.915 55.6388 181.068 57.7665C171.237 60.7806 160.692 62.9083 149.863 64.7523C162.723 64.2558 175.796 63.7593 188.656 63.2629C196.457 62.9792 204.151 62.6601 211.703 62.4118C212.523 62.0927 213.591 61.6672 214.482 61.1707C215.052 51.5253 215.123 40.9934 215.8 31.4899C215.657 31.1352 215.551 30.9579 215.444 30.9225C215.052 30.7452 212.451 35.8516 212.06 37.0927C206.574 40.9225 202.477 44.1494 197.455 48.5111C195.317 50.3906 196.493 50.426 198.559 51.8445C200.34 53.0856 201.979 54.2558 203.795 55.7097C200.304 53.7239 196.564 50.2842 192.93 51.8799L192.895 51.8445Z" fill="url(#paint23_radial_2116_7470)"/>
<path opacity="0.75" fill-rule="evenodd" clip-rule="evenodd" d="M8.08688 4.25532C22.2645 3.72341 36.8696 3.97163 50.8691 1.84397L85.9213 2.44682C103.519 1.66668 120.724 2.41135 137.68 2.87234C153.675 3.29788 200.019 2.12766 213.057 5.39007C213.769 5.31915 216.085 6.4539 216.263 7.87234C219.148 11.5957 219.718 15.7092 220.609 20.2128C220.466 18.3688 220.359 16.8085 220.288 15.9574C219.718 12.9078 218.935 9.96454 218.151 6.41844C217.688 5.31915 215.23 3.5461 214.197 3.29787C188.193 2.51773 162.723 1.63122 138.25 0.815615C132.016 0.921998 108.221 0.886533 85.2801 0.354618C72.7411 0.815611 59.5253 0.177305 49.5867 0C34.8748 0.567376 21.7658 1.95036 7.19632 2.37589C5.98517 2.87235 2.77918 5.49646 2.24484 6.48937C1.853 11.9858 0.784333 16.7376 0.25 22.9078C1.88862 17.695 3.91909 12.6596 3.42037 7.23404C5.30835 6.48936 6.59075 5.67376 8.1225 4.1844L8.08688 4.25532Z" fill="#007AFF"/>
<path fill-rule="evenodd" clip-rule="evenodd" d="M188.617 63.2638C193.782 63.1929 198.983 63.0511 204.148 62.9447C206.392 62.9447 208.636 62.8028 210.845 62.9447C211.023 62.9447 211.201 63.1929 211.201 63.3702C211.201 64.5049 211.094 65.6751 210.952 66.7744C211.237 65.4978 211.344 64.1503 211.771 62.9447C211.949 62.4128 214.087 61.5262 214.692 61.739C215.903 62.2 217.008 62.9092 218.183 63.4766C217.364 62.8383 216.58 62.2354 215.761 61.5971C214.692 60.7815 214.835 60.7106 214.906 59.3631C215.013 57.2354 215.191 55.1078 215.298 52.9801C215.298 45.4624 215.547 38.6893 216.153 31.1716C216.224 30.4624 216.224 29.4695 216.545 29.1149C216.687 28.973 219.929 28.7603 220.356 28.6893C220.036 28.6893 216.58 28.4057 216.545 28.3347C216.046 27.6255 215.618 25.0369 215.227 23.8312C214.942 22.4482 214.621 21.0652 214.336 19.6823C214.158 18.8312 213.98 17.9092 214.229 17.661C214.336 17.5546 214.799 17.2709 215.369 17.1291C216.295 16.8454 217.257 16.5617 218.183 16.3135C216.865 16.5617 215.832 16.8099 214.514 16.739C213.339 16.6681 213.517 16.1362 213.41 14.9659C213.339 14.2213 212.947 13.4057 212.875 12.661C212.769 11.5262 212.555 11.1362 213.445 10.356C214.763 9.18581 216.046 8.05106 217.364 6.88084C216.081 7.80283 214.799 8.72481 213.517 9.6468C212.092 10.6752 211.557 9.54041 212.199 7.98013C212.769 6.56169 213.339 5.14325 213.909 3.76027C213.16 5.10779 212.377 6.45531 211.629 7.80282C210.738 9.39857 210.311 9.04396 208.458 8.97304C196.596 8.65389 184.841 7.83829 173.014 6.88084C168.098 6.739 138.924 6.20708 137.641 5.21417C137.214 4.85956 137.748 3.33475 138.105 1.13617C136.715 4.96595 137.463 5.14325 133.046 5.95885C129.306 6.24254 123.001 7.05814 119.51 6.66807C118.619 6.56169 118.441 6.56169 118.441 5.67517C118.441 4.75318 118.37 3.79573 118.334 2.87375C118.227 3.90212 118.085 4.85956 117.978 5.88793C117.907 6.59715 117.372 6.31347 116.66 6.24254C113.205 5.78155 109.785 5.42695 106.294 5.24964C100.167 5.32056 95.073 5.88793 88.9816 6.278C86.5593 6.20708 86.488 4.0085 85.5262 0.958851C85.6331 1.77445 86.2031 4.75318 85.9181 5.35602C85.6687 5.85247 85.0275 5.74608 83.852 5.6397C80.9666 5.35601 78.0812 5.07233 75.2314 4.78864C70.4937 4.61134 65.7915 4.54041 61.0182 4.50495C58.5959 4.46949 54.8555 4.93049 52.9676 4.29219C52.8251 4.22127 50.3671 1.13616 50.0109 0.746094C50.3315 1.38439 51.5783 3.5475 51.4358 4.11488C51.2577 4.75317 50.1178 4.71772 49.156 4.78864C46.4843 4.96595 44.062 5.17872 41.3904 5.24964C31.523 6.49078 22.3325 7.30637 12.4295 7.94467C11.0759 8.01559 10.7197 8.40567 10.0428 7.27092C9.15228 5.81702 8.29735 4.39857 7.4068 2.94467C8.15486 4.93049 8.83168 6.49076 9.36602 8.5475C9.47288 8.93757 8.11924 9.6468 7.62053 9.39857C5.83942 8.51205 4.37891 7.80283 2.66905 6.80992C3.84458 7.76737 4.66389 8.61843 5.83942 9.57587C7.58491 10.9943 7.40679 10.4269 6.87246 12.5901C6.05315 15.9943 5.19822 19.3986 4.37891 22.8028C4.02269 24.2213 3.98707 24.2213 2.63342 24.7177C1.81411 25.0369 1.3154 25.4269 0.496094 25.7461C1.3154 25.5688 2.17034 25.3915 2.98965 25.2496C3.8802 25.0723 4.45015 24.8241 4.48577 25.8525C4.48577 27.2709 4.5214 28.6893 4.55702 30.1432C4.94886 35.2496 5.34071 40.3206 5.73255 45.4269C6.08877 49.6468 6.48062 53.8666 6.83684 58.0865C6.83684 58.4057 6.76559 58.7603 6.62311 59.0794C6.19564 60.0014 4.02269 62.0581 3.239 62.9092C4.55702 61.9518 5.91066 60.9943 7.22868 60.0014C7.33555 59.8596 8.43984 60.1787 8.58233 60.5688C8.29735 61.4908 7.97675 62.3773 7.69178 63.2993C8.19049 62.4482 8.65357 61.5617 9.15228 60.7106C9.33039 60.5333 9.57975 60.4269 9.90035 60.3915C11.254 60.3915 12.6433 60.3915 13.9969 60.3915C15.1012 60.3915 16.2767 60.3915 17.4166 60.4269C14.4244 60.2496 11.6102 60.1432 9.08104 60.1078C8.51108 60.0369 7.65615 59.5404 7.4068 59.2213C6.40938 47.9092 5.41195 36.4553 4.91324 25.1078C5.02011 24.9659 5.12698 24.895 5.26947 24.8241C6.51624 24.3631 21.2282 22.3064 31.1668 20.8525C36.6882 20.0369 37.7925 19.4695 43.3496 20.7106C60.0564 24.3986 95.073 38.0156 108.218 44.2213C110.604 45.356 110.782 45.817 112.635 47.6255C116.696 51.6326 120.792 55.4624 124.996 59.2213C126.314 61.6326 127.56 64.1858 127.24 64.3986C127.062 64.5404 125.815 64.7177 124.248 64.6823C116.838 64.5049 109.464 63.583 102.091 63.1929C109.821 64.1858 117.693 64.6822 125.922 65.6752C126.955 65.7815 127.489 65.8525 127.845 66.1716C128.095 66.3844 128.38 68.0156 128.487 69.6468C128.736 67.4128 128.736 66.0652 129.163 65.9234C129.342 65.8525 130.268 65.8525 131.229 65.817C137.428 65.7106 143.626 65.3206 149.824 64.7177C160.653 62.8738 171.233 60.7106 181.029 57.7319C184.876 55.6397 188.795 53.6184 192.856 51.8099C196.489 50.2142 200.23 53.6184 203.721 55.6397C201.939 54.2213 200.301 53.0156 198.484 51.7745C196.418 50.356 195.243 50.3205 197.38 48.4411C202.403 44.0794 206.535 40.8525 211.985 37.0227C212.377 35.7815 214.977 30.6752 215.369 30.8525C215.476 30.8879 215.583 31.0652 215.725 31.4198C215.084 40.9588 214.977 51.4553 214.407 61.1007C213.481 61.5617 212.412 62.0227 211.629 62.3418C204.077 62.6255 196.382 62.9092 188.581 63.1929L188.617 63.2638ZM149.824 64.7532C143.448 64.7532 137 65.6042 130.66 64.8241C129.662 64.6823 129.163 64.4695 128.772 64.0794C127.739 62.9801 126.599 60.4979 125.851 59.1503C120.507 54.7532 115.948 50.3915 112.1 46.1362C111.673 44.7177 111.637 44.3277 112.742 42.8028C121.077 31.4553 136.074 20.7815 148.969 14.7177C153.244 12.6964 158.017 10.9943 162.15 9.54042C163.361 8.58297 163.788 8.15744 164.429 7.90922C165.783 7.34184 167.137 7.5546 168.562 7.62552C183.024 8.29928 197.736 8.93758 211.094 9.71772C211.522 10.0014 211.949 10.3915 212.341 10.8525C212.591 12.9092 212.697 14.9659 213.089 16.9518C213.909 20.2142 214.977 24.6113 215.654 27.2C215.939 28.3702 215.939 28.7603 215.048 30.4979C213.98 32.5901 212.84 34.6113 211.451 36.2425C205.894 41.0298 200.123 45.4624 194.245 49.7532C190.077 52.5901 185.518 54.8241 180.637 56.6681C170.806 60.2142 160.404 62.6255 149.86 64.7532H149.824ZM109.927 44.1858C88.8391 33.973 66.3259 26.2425 42.459 20.0369C41.141 19.6823 40.571 19.3276 40.5354 19.1503C40.5354 18.973 41.1054 18.4057 42.174 17.6255C44.1333 16.1716 46.0925 14.7886 48.1229 13.4766C49.2629 10.9234 51.4358 6.77446 53.3594 5.24964C63.8323 5.17872 76.5138 5.28509 86.8799 6.9163C98.1009 5.88793 107.541 5.85248 118.156 7.34184C124.924 6.88085 130.517 6.84538 136.787 5.85247C144.695 6.38439 153.137 6.84538 161.758 7.27092C162.755 7.30638 163.895 7.34184 162.47 8.33474C160.44 9.71772 154.42 11.8099 148.827 14.434C143.27 17.0582 138.283 20.1078 136.573 20.9234C135.575 21.4198 135.647 21.0298 135.611 20.1787C135.54 16.8454 135.54 12.9092 135.86 9.07942C135.397 10.9234 134.97 16.5262 135.112 20.4624C135.148 21.3844 135.326 21.6681 133.866 22.661C125.138 28.4766 117.657 34.9305 111.958 42.661C110.996 43.973 110.889 44.2213 109.856 44.1503L109.927 44.1858ZM5.05573 23.6184C5.91067 19.4695 7.37117 15.6752 8.36859 10.6042C8.58232 10.4269 10.0785 8.97304 10.2922 8.79574C23.0806 8.37021 39.0037 6.63262 51.2221 5.42694C51.8277 5.81701 51.5783 6.38439 51.0083 7.30637C49.7972 9.22126 48.586 11.1716 47.3393 13.0865C44.7388 15.356 42.0315 17.2355 39.253 18.973C38.3268 19.1858 36.047 19.1503 34.9427 19.3276C29.4213 20.2496 6.62311 24.5404 5.44757 23.973C5.30509 23.9021 5.1626 23.7957 5.02011 23.583L5.05573 23.6184Z" fill="url(#paint24_radial_2116_7470)"/>
<g style="mix-blend-mode:screen" opacity="0.5">
<path fill-rule="evenodd" clip-rule="evenodd" d="M37.6522 41.1682C37.011 41.0972 36.2986 41.3455 35.8711 41.8419C35.0162 42.8703 34.4106 44.1469 34.1256 45.4235C33.8407 46.771 36.1561 48.0831 37.296 48.1185C38.1866 48.1185 39.2552 47.7994 39.7896 47.0902C40.6445 45.9554 39.3977 41.3455 37.6166 41.1682H37.6522Z" fill="#373FA5"/>
</g>
<g style="mix-blend-mode:screen" opacity="0.5">
<path fill-rule="evenodd" clip-rule="evenodd" d="M24.9005 28.5819C23.0482 29.0429 21.1602 29.8231 19.8065 31.1351C18.1679 32.7309 16.1018 37.6954 17.313 39.894C17.9898 41.0997 19.3791 42.1635 20.7683 42.2344C22.9057 42.3762 25.2211 41.7379 26.931 40.4614C28.5696 39.2202 29.4245 37.4117 30.7069 35.816C31.5262 34.7876 32.488 33.7592 33.1648 32.589C34.3048 30.6387 32.4524 28.6174 31.0275 28.3692C28.6765 27.9791 27.2159 28.0146 24.9005 28.6174V28.5819Z" fill="#373FA5"/>
</g>
<g style="mix-blend-mode:screen" opacity="0.5">
<path fill-rule="evenodd" clip-rule="evenodd" d="M199.486 27.4477C197.099 27.9087 194.534 31.9513 193.964 34.3626C193.358 36.8449 194.463 38.1924 195.674 37.696C198.31 36.6676 205.791 33.6534 206.289 30.4619C206.539 28.8307 205.719 27.3768 204.01 27.0931C202.513 26.8449 200.982 27.164 199.486 27.4477Z" fill="#373FA5"/>
</g>
<path fill-rule="evenodd" clip-rule="evenodd" d="M199.091 26.9868C196.704 27.4478 194.139 31.4903 193.57 33.9017C192.964 36.384 194.068 37.7315 195.279 37.235C197.915 36.2066 205.396 33.1925 205.895 30.001C206.144 28.3698 205.325 26.9159 203.615 26.6322C202.119 26.384 200.587 26.7031 199.091 26.9868Z" fill="url(#paint25_radial_2116_7470)"/>
<path fill-rule="evenodd" clip-rule="evenodd" d="M37.2616 40.7463C36.6204 40.6754 35.908 40.9236 35.4805 41.42C34.6256 42.4484 34.02 43.725 33.735 45.0016C33.45 46.3491 35.7655 47.6612 36.9054 47.6966C37.7959 47.6966 38.8646 47.3775 39.3989 46.6683C40.2539 45.5335 39.0071 40.9236 37.226 40.7463H37.2616Z" fill="url(#paint26_radial_2116_7470)"/>
<path fill-rule="evenodd" clip-rule="evenodd" d="M24.5062 28.1551C22.6538 28.6161 20.7659 29.3962 19.4122 30.7083C17.8092 32.304 15.7075 37.2686 16.9187 39.4671C17.5955 40.6728 18.9848 41.7366 20.374 41.8076C22.5114 41.9494 24.8268 41.3111 26.5367 40.0345C28.1753 38.7934 29.0302 36.9849 30.3126 35.3891C31.1319 34.3608 32.0937 33.3324 32.7705 32.1622C33.9104 30.2118 32.0581 28.1905 30.6332 27.9423C28.2821 27.5522 26.8216 27.5877 24.5062 28.1551Z" fill="url(#paint27_radial_2116_7470)"/>
<g filter="url(#filter0_dddd_2116_7470)">
<path d="M42.5866 30.024C42.4906 30.04 42.4026 30.056 42.3226 30.072C42.2746 29.528 42.1946 29.056 42.0826 28.656C41.9706 28.176 41.7786 27.904 41.5066 27.84C41.2826 27.776 41.0586 27.792 40.8346 27.888C40.6266 27.984 40.4506 28.128 40.3066 28.32C40.1626 28.496 40.0666 28.688 40.0186 28.896C39.9706 29.152 39.9866 29.392 40.0666 29.616C40.1466 29.824 40.2826 30.008 40.4746 30.168C40.6666 30.328 40.8426 30.464 41.0026 30.576C41.1786 30.672 41.3946 30.776 41.6506 30.888C43.2026 31.576 44.2746 32.104 44.8666 32.472C46.1626 33.272 47.0426 34.096 47.5066 34.944C48.1146 36.064 48.2906 37.184 48.0346 38.304C47.8906 38.864 47.6666 39.376 47.3626 39.84C47.0746 40.304 46.7066 40.704 46.2586 41.04C45.8266 41.376 45.3386 41.624 44.7946 41.784C44.5546 41.864 44.2986 41.92 44.0266 41.952C43.7546 41.968 43.4986 41.968 43.2586 41.952C43.0346 41.936 42.7786 41.936 42.4906 41.952C41.7226 41.984 40.9706 41.848 40.2346 41.544C39.4986 41.224 38.8666 40.768 38.3386 40.176C37.4426 39.184 36.9226 37.848 36.7786 36.168C38.4906 36.36 40.2026 36.336 41.9146 36.096C41.9146 36.704 41.9786 37.296 42.1066 37.872C42.1866 38.224 42.2906 38.488 42.4186 38.664C42.6266 38.936 42.8986 39.024 43.2346 38.928C43.5866 38.832 43.7946 38.624 43.8586 38.304C43.9386 37.968 43.8826 37.592 43.6906 37.176C43.2586 36.28 42.3066 35.448 40.8346 34.68C40.7226 34.632 40.5146 34.536 40.2106 34.392C39.9226 34.232 39.7066 34.112 39.5626 34.032C39.4186 33.952 39.2266 33.848 38.9866 33.72C38.7626 33.576 38.5546 33.44 38.3626 33.312C38.1866 33.168 38.0186 33.016 37.8586 32.856C37.5706 32.568 37.3146 32.256 37.0906 31.92C36.6746 31.216 36.4826 30.488 36.5146 29.736C36.5626 28.984 36.7946 28.256 37.2106 27.552C37.7866 26.624 38.5706 25.992 39.5626 25.656C40.5706 25.32 41.6586 25.232 42.8266 25.392C43.8986 25.552 44.7866 26.04 45.4906 26.856C46.2266 27.688 46.6026 28.68 46.6186 29.832C45.2586 29.768 43.9146 29.832 42.5866 30.024ZM60.1769 37.416C60.1929 37.496 60.2009 37.672 60.2009 37.944C60.2009 38.216 60.2009 38.4 60.2009 38.496C60.2009 38.592 60.2009 38.768 60.2009 39.024C60.2169 39.28 60.2249 39.472 60.2249 39.6C60.2249 39.712 60.2249 39.88 60.2249 40.104C60.2409 40.328 60.2489 40.512 60.2489 40.656C60.2649 40.8 60.2809 40.968 60.2969 41.16C60.3129 41.336 60.3209 41.504 60.3209 41.664C60.3369 41.824 60.3609 41.984 60.3929 42.144C59.6569 41.984 57.8489 41.864 54.9689 41.784C52.0889 41.688 50.1049 41.688 49.0169 41.784C49.1289 39.336 49.1929 36.688 49.2089 33.84C49.2249 30.992 49.1609 28.256 49.0169 25.632C53.4329 25.6 57.0329 25.544 59.8169 25.464C59.7849 25.864 59.7609 26.296 59.7449 26.76C59.7289 27.224 59.7129 27.688 59.6969 28.152C59.6809 28.616 59.6649 29.056 59.6489 29.472C58.6889 29.264 57.5529 29.168 56.2409 29.184C54.9449 29.184 53.9689 29.264 53.3129 29.424C53.3129 30.976 53.3209 31.976 53.3369 32.424C54.8569 32.456 56.2329 32.36 57.4649 32.136C57.4969 32.936 57.5849 34.216 57.7289 35.976C57.2489 35.976 56.5129 35.968 55.5209 35.952C54.5449 35.92 53.8489 35.904 53.4329 35.904C53.4329 36.096 53.4889 36.856 53.6009 38.184C56.3529 37.992 58.5449 37.736 60.1769 37.416ZM73.5136 25.464C73.4656 25.464 73.4176 26.224 73.3696 27.744C73.3216 29.248 73.3136 31.352 73.3456 34.056C73.3776 36.744 73.4656 39.36 73.6096 41.904C73.6096 41.872 73.2656 41.88 72.5776 41.928C71.8896 41.96 71.1456 42 70.3456 42.048C69.5456 42.096 69.1296 42.12 69.0976 42.12C69.0176 42.12 68.9616 42.104 68.9296 42.072C68.8976 42.056 68.8736 42.016 68.8576 41.952C68.7776 41.696 68.6736 41.376 68.5456 40.992C68.4336 40.592 68.3376 40.256 68.2576 39.984C68.1776 39.712 68.0736 39.4 67.9456 39.048C67.8336 38.696 67.7216 38.376 67.6096 38.088C67.0496 36.632 66.4576 35.376 65.8336 34.32C65.8496 35.664 65.8496 37.016 65.8336 38.376C65.8176 40.472 65.8176 41.688 65.8336 42.024C65.8336 41.944 65.2176 41.888 63.9856 41.856C62.7536 41.824 61.7936 41.816 61.1056 41.832V41.76C61.1376 41.408 61.2416 40.024 61.4176 37.608C61.4816 36.632 61.5696 34.416 61.6816 30.96C61.8096 27.488 61.8176 25.752 61.7056 25.752C63.1776 25.688 64.6416 25.576 66.0976 25.416C66.7536 27.72 67.8496 30.592 69.3856 34.032C69.3696 33.104 69.3456 31.72 69.3136 29.88C69.2976 28.024 69.2896 26.632 69.2896 25.704C70.1216 25.704 71.5296 25.624 73.5136 25.464ZM86.9611 34.536C87.0411 36.088 86.7131 37.52 85.9771 38.832C85.2411 40.144 84.1771 41.072 82.7851 41.616C81.4251 42.144 79.6731 42.336 77.5291 42.192C77.3211 42.176 77.0731 42.152 76.7851 42.12C76.4971 42.088 76.2171 42.056 75.9451 42.024C75.6731 41.992 75.4251 41.968 75.2011 41.952C75.6331 36.912 75.4731 31.584 74.7211 25.968C75.2331 25.792 75.8011 25.68 76.4251 25.632C77.0651 25.584 77.5931 25.576 78.0091 25.608C78.4251 25.64 79.0091 25.704 79.7611 25.8C80.7851 25.912 81.7931 26.216 82.7851 26.712C83.7931 27.208 84.5691 27.832 85.1131 28.584C86.2011 30.104 86.8171 32.088 86.9611 34.536ZM82.5451 35.448C82.6411 34.28 82.3531 33.112 81.6811 31.944C81.0411 30.776 80.2171 30.104 79.2091 29.928C79.4491 32.776 79.4571 35.592 79.2331 38.376C80.1291 38.28 80.8651 38.024 81.4411 37.608C82.0971 37.128 82.4651 36.408 82.5451 35.448ZM105.724 42.192C105.66 40.32 105.516 37.784 105.292 34.584C105.228 34.968 105.1 35.576 104.908 36.408C104.732 37.24 104.588 37.976 104.476 38.616C104.364 39.24 104.284 39.856 104.236 40.464C102.844 40.144 101.604 40.088 100.516 40.296C100.436 39.768 100.308 38.968 100.132 37.896C99.9562 36.824 99.8282 36.016 99.7482 35.472C99.6202 36.208 99.5082 37.328 99.4122 38.832C99.3322 40.32 99.3082 41.44 99.3402 42.192C97.7562 41.68 96.2282 41.504 94.7562 41.664C95.6042 36.784 96.0682 31.464 96.1482 25.704C96.6282 25.64 97.3482 25.536 98.3082 25.392C99.2842 25.232 100.02 25.128 100.516 25.08C100.868 27.64 101.516 30.496 102.46 33.648C103.244 29.808 103.756 27.032 103.996 25.32C104.636 25.4 106.164 25.512 108.58 25.656C108.708 31.336 109.388 36.656 110.62 41.616C108.844 41.664 107.212 41.856 105.724 42.192ZM122.614 37.416C122.63 37.496 122.638 37.672 122.638 37.944C122.638 38.216 122.638 38.4 122.638 38.496C122.638 38.592 122.638 38.768 122.638 39.024C122.654 39.28 122.662 39.472 122.662 39.6C122.662 39.712 122.662 39.88 122.662 40.104C122.678 40.328 122.686 40.512 122.686 40.656C122.702 40.8 122.718 40.968 122.734 41.16C122.75 41.336 122.758 41.504 122.758 41.664C122.774 41.824 122.798 41.984 122.83 42.144C122.094 41.984 120.286 41.864 117.406 41.784C114.526 41.688 112.542 41.688 111.454 41.784C111.566 39.336 111.63 36.688 111.646 33.84C111.662 30.992 111.598 28.256 111.454 25.632C115.87 25.6 119.47 25.544 122.254 25.464C122.222 25.864 122.198 26.296 122.182 26.76C122.166 27.224 122.15 27.688 122.134 28.152C122.118 28.616 122.102 29.056 122.086 29.472C121.126 29.264 119.99 29.168 118.678 29.184C117.382 29.184 116.406 29.264 115.75 29.424C115.75 30.976 115.758 31.976 115.774 32.424C117.294 32.456 118.67 32.36 119.902 32.136C119.934 32.936 120.022 34.216 120.166 35.976C119.686 35.976 118.95 35.968 117.958 35.952C116.982 35.92 116.286 35.904 115.87 35.904C115.87 36.096 115.926 36.856 116.038 38.184C118.79 37.992 120.982 37.736 122.614 37.416ZM130.407 32.712C132.151 33.8 133.279 35.104 133.791 36.624C133.967 37.136 134.047 37.664 134.031 38.208C134.031 38.736 133.951 39.24 133.791 39.72C133.631 40.184 133.367 40.608 132.999 40.992C132.631 41.36 132.191 41.64 131.679 41.832C130.719 42.168 129.655 42.256 128.487 42.096C127.335 41.952 126.359 41.56 125.559 40.92C124.407 40.024 123.727 38.848 123.519 37.392C125.007 37.056 126.511 36.752 128.031 36.48C128.111 37.072 128.167 37.416 128.199 37.512C128.327 38.2 128.543 38.712 128.847 39.048C129.007 39.24 129.215 39.36 129.471 39.408C129.727 39.456 129.951 39.408 130.143 39.264C130.367 39.056 130.447 38.776 130.383 38.424C130.335 38.2 130.207 37.936 129.999 37.632C129.903 37.504 129.807 37.384 129.711 37.272C129.615 37.16 129.519 37.056 129.423 36.96C129.343 36.864 129.239 36.76 129.111 36.648C128.983 36.536 128.879 36.448 128.799 36.384C128.719 36.32 128.599 36.232 128.439 36.12C128.279 35.992 128.167 35.912 128.103 35.88C128.039 35.832 127.911 35.752 127.719 35.64C127.543 35.512 127.431 35.432 127.383 35.4C127.335 35.368 127.207 35.288 126.999 35.16C126.791 35.032 126.671 34.96 126.639 34.944C125.343 34.144 124.463 33.32 123.999 32.472C123.375 31.336 123.199 30.208 123.471 29.088C123.663 28.256 124.039 27.536 124.599 26.928C125.175 26.304 125.871 25.864 126.687 25.608C126.879 25.56 127.071 25.52 127.263 25.488C127.471 25.456 127.663 25.44 127.839 25.44C128.015 25.44 128.199 25.448 128.391 25.464C128.599 25.464 128.799 25.456 128.991 25.44C129.759 25.408 130.511 25.552 131.247 25.872C131.983 26.192 132.615 26.64 133.143 27.216C133.479 27.584 133.775 28.04 134.031 28.584C134.303 29.128 134.447 29.616 134.463 30.048C134.399 30.08 134.199 30.152 133.863 30.264C133.527 30.36 133.143 30.472 132.711 30.6C132.279 30.712 131.855 30.824 131.439 30.936C131.023 31.048 130.671 31.136 130.383 31.2C130.095 31.264 129.951 31.288 129.951 31.272C129.935 31.224 129.903 31.024 129.855 30.672C129.823 30.32 129.783 30.056 129.735 29.88C129.703 29.688 129.639 29.472 129.543 29.232C129.447 28.976 129.335 28.784 129.207 28.656C128.951 28.448 128.639 28.392 128.271 28.488C127.903 28.584 127.679 28.8 127.599 29.136C127.535 29.456 127.607 29.824 127.815 30.24C128.055 30.752 128.383 31.192 128.799 31.56C129.215 31.912 129.751 32.296 130.407 32.712ZM142.079 32.712C143.823 33.8 144.951 35.104 145.463 36.624C145.639 37.136 145.719 37.664 145.703 38.208C145.703 38.736 145.623 39.24 145.463 39.72C145.303 40.184 145.039 40.608 144.671 40.992C144.303 41.36 143.863 41.64 143.351 41.832C142.391 42.168 141.327 42.256 140.159 42.096C139.007 41.952 138.031 41.56 137.231 40.92C136.079 40.024 135.399 38.848 135.191 37.392C136.679 37.056 138.183 36.752 139.703 36.48C139.783 37.072 139.839 37.416 139.871 37.512C139.999 38.2 140.215 38.712 140.519 39.048C140.679 39.24 140.887 39.36 141.143 39.408C141.399 39.456 141.623 39.408 141.815 39.264C142.039 39.056 142.119 38.776 142.055 38.424C142.007 38.2 141.879 37.936 141.671 37.632C141.575 37.504 141.479 37.384 141.383 37.272C141.287 37.16 141.191 37.056 141.095 36.96C141.015 36.864 140.911 36.76 140.783 36.648C140.655 36.536 140.551 36.448 140.471 36.384C140.391 36.32 140.271 36.232 140.111 36.12C139.951 35.992 139.839 35.912 139.775 35.88C139.711 35.832 139.583 35.752 139.391 35.64C139.215 35.512 139.103 35.432 139.055 35.4C139.007 35.368 138.879 35.288 138.671 35.16C138.463 35.032 138.343 34.96 138.311 34.944C137.015 34.144 136.135 33.32 135.671 32.472C135.047 31.336 134.871 30.208 135.143 29.088C135.335 28.256 135.711 27.536 136.271 26.928C136.847 26.304 137.543 25.864 138.359 25.608C138.551 25.56 138.743 25.52 138.935 25.488C139.143 25.456 139.335 25.44 139.511 25.44C139.687 25.44 139.871 25.448 140.063 25.464C140.271 25.464 140.471 25.456 140.663 25.44C141.431 25.408 142.183 25.552 142.919 25.872C143.655 26.192 144.287 26.64 144.815 27.216C145.151 27.584 145.447 28.04 145.703 28.584C145.975 29.128 146.119 29.616 146.135 30.048C146.071 30.08 145.871 30.152 145.535 30.264C145.199 30.36 144.815 30.472 144.383 30.6C143.951 30.712 143.527 30.824 143.111 30.936C142.695 31.048 142.343 31.136 142.055 31.2C141.767 31.264 141.623 31.288 141.623 31.272C141.607 31.224 141.575 31.024 141.527 30.672C141.495 30.32 141.455 30.056 141.407 29.88C141.375 29.688 141.311 29.472 141.215 29.232C141.119 28.976 141.007 28.784 140.879 28.656C140.623 28.448 140.311 28.392 139.943 28.488C139.575 28.584 139.351 28.8 139.271 29.136C139.207 29.456 139.279 29.824 139.487 30.24C139.727 30.752 140.055 31.192 140.471 31.56C140.887 31.912 141.423 32.296 142.079 32.712ZM155.674 25.8C157.066 31.816 158.714 36.792 160.618 40.728C158.746 41.16 157.33 41.552 156.37 41.904C156.258 41.392 156.034 40.64 155.698 39.648C155.362 38.656 155.098 37.968 154.906 37.584C154.01 37.488 152.81 37.56 151.306 37.8C151.13 38.184 150.962 38.592 150.802 39.024C150.642 39.456 150.53 39.776 150.466 39.984C150.418 40.192 150.314 40.576 150.154 41.136C150.01 41.696 149.922 42.032 149.89 42.144C148.962 41.776 147.682 41.448 146.05 41.16C147.122 38.968 148.09 36.488 148.954 33.72C149.818 30.952 150.498 28.2 150.994 25.464C151.602 25.624 152.378 25.744 153.322 25.824C154.282 25.904 155.066 25.896 155.674 25.8ZM152.122 34.68H154.306C153.986 33.48 153.682 31.72 153.394 29.4C153.33 29.896 153.226 30.464 153.082 31.104C152.954 31.744 152.802 32.392 152.626 33.048C152.45 33.704 152.282 34.248 152.122 34.68ZM166.34 32.616C168.308 32.84 170.292 32.928 172.292 32.88C172.228 33.728 172.172 34.392 172.124 34.872C172.076 35.352 171.972 35.952 171.812 36.672C171.668 37.376 171.476 38 171.236 38.544C170.868 39.376 170.356 40.08 169.7 40.656C169.06 41.232 168.364 41.632 167.612 41.856C166.86 42.08 166.06 42.112 165.212 41.952C164.364 41.776 163.58 41.384 162.86 40.776C161.708 39.832 160.916 38.528 160.484 36.864C160.132 35.504 160.06 33.952 160.268 32.208C160.524 30.032 161.276 28.376 162.524 27.24C163.196 26.616 163.956 26.152 164.804 25.848C165.668 25.528 166.532 25.408 167.396 25.488C168.26 25.552 168.932 25.784 169.412 26.184C169.94 26.648 170.268 27.304 170.396 28.152C170.476 28.648 170.476 29.392 170.396 30.384C170.252 30.4 169.98 30.424 169.58 30.456C169.18 30.472 168.876 30.488 168.668 30.504C168.46 30.52 168.196 30.552 167.876 30.6C167.556 30.632 167.268 30.68 167.012 30.744C166.98 30.216 166.844 29.72 166.604 29.256C166.38 28.808 166.108 28.576 165.788 28.56C165.372 28.528 165.036 28.856 164.78 29.544C164.412 30.52 164.188 31.584 164.108 32.736C164.028 33.888 164.084 34.976 164.276 36C164.42 36.752 164.612 37.344 164.852 37.776C165.076 38.176 165.404 38.528 165.836 38.832C166.284 39.12 166.692 39.136 167.06 38.88C167.14 38.816 167.228 38.696 167.324 38.52C167.692 37.816 167.932 36.928 168.044 35.856C167.5 35.984 166.956 36.088 166.412 36.168C166.588 34.744 166.564 33.56 166.34 32.616ZM184.349 37.416C184.365 37.496 184.373 37.672 184.373 37.944C184.373 38.216 184.373 38.4 184.373 38.496C184.373 38.592 184.373 38.768 184.373 39.024C184.389 39.28 184.397 39.472 184.397 39.6C184.397 39.712 184.397 39.88 184.397 40.104C184.413 40.328 184.421 40.512 184.421 40.656C184.437 40.8 184.453 40.968 184.469 41.16C184.485 41.336 184.493 41.504 184.493 41.664C184.509 41.824 184.533 41.984 184.565 42.144C183.829 41.984 182.021 41.864 179.141 41.784C176.261 41.688 174.277 41.688 173.189 41.784C173.301 39.336 173.365 36.688 173.381 33.84C173.397 30.992 173.333 28.256 173.189 25.632C177.605 25.6 181.205 25.544 183.989 25.464C183.957 25.864 183.933 26.296 183.917 26.76C183.901 27.224 183.885 27.688 183.869 28.152C183.853 28.616 183.837 29.056 183.821 29.472C182.861 29.264 181.725 29.168 180.413 29.184C179.117 29.184 178.141 29.264 177.485 29.424C177.485 30.976 177.493 31.976 177.509 32.424C179.029 32.456 180.405 32.36 181.637 32.136C181.669 32.936 181.757 34.216 181.901 35.976C181.421 35.976 180.685 35.968 179.693 35.952C178.717 35.92 178.021 35.904 177.605 35.904C177.605 36.096 177.661 36.856 177.773 38.184C180.525 37.992 182.717 37.736 184.349 37.416Z" fill="#B6F6FF"/>
<path d="M42.5866 30.024C42.4906 30.04 42.4026 30.056 42.3226 30.072C42.2746 29.528 42.1946 29.056 42.0826 28.656C41.9706 28.176 41.7786 27.904 41.5066 27.84C41.2826 27.776 41.0586 27.792 40.8346 27.888C40.6266 27.984 40.4506 28.128 40.3066 28.32C40.1626 28.496 40.0666 28.688 40.0186 28.896C39.9706 29.152 39.9866 29.392 40.0666 29.616C40.1466 29.824 40.2826 30.008 40.4746 30.168C40.6666 30.328 40.8426 30.464 41.0026 30.576C41.1786 30.672 41.3946 30.776 41.6506 30.888C43.2026 31.576 44.2746 32.104 44.8666 32.472C46.1626 33.272 47.0426 34.096 47.5066 34.944C48.1146 36.064 48.2906 37.184 48.0346 38.304C47.8906 38.864 47.6666 39.376 47.3626 39.84C47.0746 40.304 46.7066 40.704 46.2586 41.04C45.8266 41.376 45.3386 41.624 44.7946 41.784C44.5546 41.864 44.2986 41.92 44.0266 41.952C43.7546 41.968 43.4986 41.968 43.2586 41.952C43.0346 41.936 42.7786 41.936 42.4906 41.952C41.7226 41.984 40.9706 41.848 40.2346 41.544C39.4986 41.224 38.8666 40.768 38.3386 40.176C37.4426 39.184 36.9226 37.848 36.7786 36.168C38.4906 36.36 40.2026 36.336 41.9146 36.096C41.9146 36.704 41.9786 37.296 42.1066 37.872C42.1866 38.224 42.2906 38.488 42.4186 38.664C42.6266 38.936 42.8986 39.024 43.2346 38.928C43.5866 38.832 43.7946 38.624 43.8586 38.304C43.9386 37.968 43.8826 37.592 43.6906 37.176C43.2586 36.28 42.3066 35.448 40.8346 34.68C40.7226 34.632 40.5146 34.536 40.2106 34.392C39.9226 34.232 39.7066 34.112 39.5626 34.032C39.4186 33.952 39.2266 33.848 38.9866 33.72C38.7626 33.576 38.5546 33.44 38.3626 33.312C38.1866 33.168 38.0186 33.016 37.8586 32.856C37.5706 32.568 37.3146 32.256 37.0906 31.92C36.6746 31.216 36.4826 30.488 36.5146 29.736C36.5626 28.984 36.7946 28.256 37.2106 27.552C37.7866 26.624 38.5706 25.992 39.5626 25.656C40.5706 25.32 41.6586 25.232 42.8266 25.392C43.8986 25.552 44.7866 26.04 45.4906 26.856C46.2266 27.688 46.6026 28.68 46.6186 29.832C45.2586 29.768 43.9146 29.832 42.5866 30.024ZM60.1769 37.416C60.1929 37.496 60.2009 37.672 60.2009 37.944C60.2009 38.216 60.2009 38.4 60.2009 38.496C60.2009 38.592 60.2009 38.768 60.2009 39.024C60.2169 39.28 60.2249 39.472 60.2249 39.6C60.2249 39.712 60.2249 39.88 60.2249 40.104C60.2409 40.328 60.2489 40.512 60.2489 40.656C60.2649 40.8 60.2809 40.968 60.2969 41.16C60.3129 41.336 60.3209 41.504 60.3209 41.664C60.3369 41.824 60.3609 41.984 60.3929 42.144C59.6569 41.984 57.8489 41.864 54.9689 41.784C52.0889 41.688 50.1049 41.688 49.0169 41.784C49.1289 39.336 49.1929 36.688 49.2089 33.84C49.2249 30.992 49.1609 28.256 49.0169 25.632C53.4329 25.6 57.0329 25.544 59.8169 25.464C59.7849 25.864 59.7609 26.296 59.7449 26.76C59.7289 27.224 59.7129 27.688 59.6969 28.152C59.6809 28.616 59.6649 29.056 59.6489 29.472C58.6889 29.264 57.5529 29.168 56.2409 29.184C54.9449 29.184 53.9689 29.264 53.3129 29.424C53.3129 30.976 53.3209 31.976 53.3369 32.424C54.8569 32.456 56.2329 32.36 57.4649 32.136C57.4969 32.936 57.5849 34.216 57.7289 35.976C57.2489 35.976 56.5129 35.968 55.5209 35.952C54.5449 35.92 53.8489 35.904 53.4329 35.904C53.4329 36.096 53.4889 36.856 53.6009 38.184C56.3529 37.992 58.5449 37.736 60.1769 37.416ZM73.5136 25.464C73.4656 25.464 73.4176 26.224 73.3696 27.744C73.3216 29.248 73.3136 31.352 73.3456 34.056C73.3776 36.744 73.4656 39.36 73.6096 41.904C73.6096 41.872 73.2656 41.88 72.5776 41.928C71.8896 41.96 71.1456 42 70.3456 42.048C69.5456 42.096 69.1296 42.12 69.0976 42.12C69.0176 42.12 68.9616 42.104 68.9296 42.072C68.8976 42.056 68.8736 42.016 68.8576 41.952C68.7776 41.696 68.6736 41.376 68.5456 40.992C68.4336 40.592 68.3376 40.256 68.2576 39.984C68.1776 39.712 68.0736 39.4 67.9456 39.048C67.8336 38.696 67.7216 38.376 67.6096 38.088C67.0496 36.632 66.4576 35.376 65.8336 34.32C65.8496 35.664 65.8496 37.016 65.8336 38.376C65.8176 40.472 65.8176 41.688 65.8336 42.024C65.8336 41.944 65.2176 41.888 63.9856 41.856C62.7536 41.824 61.7936 41.816 61.1056 41.832V41.76C61.1376 41.408 61.2416 40.024 61.4176 37.608C61.4816 36.632 61.5696 34.416 61.6816 30.96C61.8096 27.488 61.8176 25.752 61.7056 25.752C63.1776 25.688 64.6416 25.576 66.0976 25.416C66.7536 27.72 67.8496 30.592 69.3856 34.032C69.3696 33.104 69.3456 31.72 69.3136 29.88C69.2976 28.024 69.2896 26.632 69.2896 25.704C70.1216 25.704 71.5296 25.624 73.5136 25.464ZM86.9611 34.536C87.0411 36.088 86.7131 37.52 85.9771 38.832C85.2411 40.144 84.1771 41.072 82.7851 41.616C81.4251 42.144 79.6731 42.336 77.5291 42.192C77.3211 42.176 77.0731 42.152 76.7851 42.12C76.4971 42.088 76.2171 42.056 75.9451 42.024C75.6731 41.992 75.4251 41.968 75.2011 41.952C75.6331 36.912 75.4731 31.584 74.7211 25.968C75.2331 25.792 75.8011 25.68 76.4251 25.632C77.0651 25.584 77.5931 25.576 78.0091 25.608C78.4251 25.64 79.0091 25.704 79.7611 25.8C80.7851 25.912 81.7931 26.216 82.7851 26.712C83.7931 27.208 84.5691 27.832 85.1131 28.584C86.2011 30.104 86.8171 32.088 86.9611 34.536ZM82.5451 35.448C82.6411 34.28 82.3531 33.112 81.6811 31.944C81.0411 30.776 80.2171 30.104 79.2091 29.928C79.4491 32.776 79.4571 35.592 79.2331 38.376C80.1291 38.28 80.8651 38.024 81.4411 37.608C82.0971 37.128 82.4651 36.408 82.5451 35.448ZM105.724 42.192C105.66 40.32 105.516 37.784 105.292 34.584C105.228 34.968 105.1 35.576 104.908 36.408C104.732 37.24 104.588 37.976 104.476 38.616C104.364 39.24 104.284 39.856 104.236 40.464C102.844 40.144 101.604 40.088 100.516 40.296C100.436 39.768 100.308 38.968 100.132 37.896C99.9562 36.824 99.8282 36.016 99.7482 35.472C99.6202 36.208 99.5082 37.328 99.4122 38.832C99.3322 40.32 99.3082 41.44 99.3402 42.192C97.7562 41.68 96.2282 41.504 94.7562 41.664C95.6042 36.784 96.0682 31.464 96.1482 25.704C96.6282 25.64 97.3482 25.536 98.3082 25.392C99.2842 25.232 100.02 25.128 100.516 25.08C100.868 27.64 101.516 30.496 102.46 33.648C103.244 29.808 103.756 27.032 103.996 25.32C104.636 25.4 106.164 25.512 108.58 25.656C108.708 31.336 109.388 36.656 110.62 41.616C108.844 41.664 107.212 41.856 105.724 42.192ZM122.614 37.416C122.63 37.496 122.638 37.672 122.638 37.944C122.638 38.216 122.638 38.4 122.638 38.496C122.638 38.592 122.638 38.768 122.638 39.024C122.654 39.28 122.662 39.472 122.662 39.6C122.662 39.712 122.662 39.88 122.662 40.104C122.678 40.328 122.686 40.512 122.686 40.656C122.702 40.8 122.718 40.968 122.734 41.16C122.75 41.336 122.758 41.504 122.758 41.664C122.774 41.824 122.798 41.984 122.83 42.144C122.094 41.984 120.286 41.864 117.406 41.784C114.526 41.688 112.542 41.688 111.454 41.784C111.566 39.336 111.63 36.688 111.646 33.84C111.662 30.992 111.598 28.256 111.454 25.632C115.87 25.6 119.47 25.544 122.254 25.464C122.222 25.864 122.198 26.296 122.182 26.76C122.166 27.224 122.15 27.688 122.134 28.152C122.118 28.616 122.102 29.056 122.086 29.472C121.126 29.264 119.99 29.168 118.678 29.184C117.382 29.184 116.406 29.264 115.75 29.424C115.75 30.976 115.758 31.976 115.774 32.424C117.294 32.456 118.67 32.36 119.902 32.136C119.934 32.936 120.022 34.216 120.166 35.976C119.686 35.976 118.95 35.968 117.958 35.952C116.982 35.92 116.286 35.904 115.87 35.904C115.87 36.096 115.926 36.856 116.038 38.184C118.79 37.992 120.982 37.736 122.614 37.416ZM130.407 32.712C132.151 33.8 133.279 35.104 133.791 36.624C133.967 37.136 134.047 37.664 134.031 38.208C134.031 38.736 133.951 39.24 133.791 39.72C133.631 40.184 133.367 40.608 132.999 40.992C132.631 41.36 132.191 41.64 131.679 41.832C130.719 42.168 129.655 42.256 128.487 42.096C127.335 41.952 126.359 41.56 125.559 40.92C124.407 40.024 123.727 38.848 123.519 37.392C125.007 37.056 126.511 36.752 128.031 36.48C128.111 37.072 128.167 37.416 128.199 37.512C128.327 38.2 128.543 38.712 128.847 39.048C129.007 39.24 129.215 39.36 129.471 39.408C129.727 39.456 129.951 39.408 130.143 39.264C130.367 39.056 130.447 38.776 130.383 38.424C130.335 38.2 130.207 37.936 129.999 37.632C129.903 37.504 129.807 37.384 129.711 37.272C129.615 37.16 129.519 37.056 129.423 36.96C129.343 36.864 129.239 36.76 129.111 36.648C128.983 36.536 128.879 36.448 128.799 36.384C128.719 36.32 128.599 36.232 128.439 36.12C128.279 35.992 128.167 35.912 128.103 35.88C128.039 35.832 127.911 35.752 127.719 35.64C127.543 35.512 127.431 35.432 127.383 35.4C127.335 35.368 127.207 35.288 126.999 35.16C126.791 35.032 126.671 34.96 126.639 34.944C125.343 34.144 124.463 33.32 123.999 32.472C123.375 31.336 123.199 30.208 123.471 29.088C123.663 28.256 124.039 27.536 124.599 26.928C125.175 26.304 125.871 25.864 126.687 25.608C126.879 25.56 127.071 25.52 127.263 25.488C127.471 25.456 127.663 25.44 127.839 25.44C128.015 25.44 128.199 25.448 128.391 25.464C128.599 25.464 128.799 25.456 128.991 25.44C129.759 25.408 130.511 25.552 131.247 25.872C131.983 26.192 132.615 26.64 133.143 27.216C133.479 27.584 133.775 28.04 134.031 28.584C134.303 29.128 134.447 29.616 134.463 30.048C134.399 30.08 134.199 30.152 133.863 30.264C133.527 30.36 133.143 30.472 132.711 30.6C132.279 30.712 131.855 30.824 131.439 30.936C131.023 31.048 130.671 31.136 130.383 31.2C130.095 31.264 129.951 31.288 129.951 31.272C129.935 31.224 129.903 31.024 129.855 30.672C129.823 30.32 129.783 30.056 129.735 29.88C129.703 29.688 129.639 29.472 129.543 29.232C129.447 28.976 129.335 28.784 129.207 28.656C128.951 28.448 128.639 28.392 128.271 28.488C127.903 28.584 127.679 28.8 127.599 29.136C127.535 29.456 127.607 29.824 127.815 30.24C128.055 30.752 128.383 31.192 128.799 31.56C129.215 31.912 129.751 32.296 130.407 32.712ZM142.079 32.712C143.823 33.8 144.951 35.104 145.463 36.624C145.639 37.136 145.719 37.664 145.703 38.208C145.703 38.736 145.623 39.24 145.463 39.72C145.303 40.184 145.039 40.608 144.671 40.992C144.303 41.36 143.863 41.64 143.351 41.832C142.391 42.168 141.327 42.256 140.159 42.096C139.007 41.952 138.031 41.56 137.231 40.92C136.079 40.024 135.399 38.848 135.191 37.392C136.679 37.056 138.183 36.752 139.703 36.48C139.783 37.072 139.839 37.416 139.871 37.512C139.999 38.2 140.215 38.712 140.519 39.048C140.679 39.24 140.887 39.36 141.143 39.408C141.399 39.456 141.623 39.408 141.815 39.264C142.039 39.056 142.119 38.776 142.055 38.424C142.007 38.2 141.879 37.936 141.671 37.632C141.575 37.504 141.479 37.384 141.383 37.272C141.287 37.16 141.191 37.056 141.095 36.96C141.015 36.864 140.911 36.76 140.783 36.648C140.655 36.536 140.551 36.448 140.471 36.384C140.391 36.32 140.271 36.232 140.111 36.12C139.951 35.992 139.839 35.912 139.775 35.88C139.711 35.832 139.583 35.752 139.391 35.64C139.215 35.512 139.103 35.432 139.055 35.4C139.007 35.368 138.879 35.288 138.671 35.16C138.463 35.032 138.343 34.96 138.311 34.944C137.015 34.144 136.135 33.32 135.671 32.472C135.047 31.336 134.871 30.208 135.143 29.088C135.335 28.256 135.711 27.536 136.271 26.928C136.847 26.304 137.543 25.864 138.359 25.608C138.551 25.56 138.743 25.52 138.935 25.488C139.143 25.456 139.335 25.44 139.511 25.44C139.687 25.44 139.871 25.448 140.063 25.464C140.271 25.464 140.471 25.456 140.663 25.44C141.431 25.408 142.183 25.552 142.919 25.872C143.655 26.192 144.287 26.64 144.815 27.216C145.151 27.584 145.447 28.04 145.703 28.584C145.975 29.128 146.119 29.616 146.135 30.048C146.071 30.08 145.871 30.152 145.535 30.264C145.199 30.36 144.815 30.472 144.383 30.6C143.951 30.712 143.527 30.824 143.111 30.936C142.695 31.048 142.343 31.136 142.055 31.2C141.767 31.264 141.623 31.288 141.623 31.272C141.607 31.224 141.575 31.024 141.527 30.672C141.495 30.32 141.455 30.056 141.407 29.88C141.375 29.688 141.311 29.472 141.215 29.232C141.119 28.976 141.007 28.784 140.879 28.656C140.623 28.448 140.311 28.392 139.943 28.488C139.575 28.584 139.351 28.8 139.271 29.136C139.207 29.456 139.279 29.824 139.487 30.24C139.727 30.752 140.055 31.192 140.471 31.56C140.887 31.912 141.423 32.296 142.079 32.712ZM155.674 25.8C157.066 31.816 158.714 36.792 160.618 40.728C158.746 41.16 157.33 41.552 156.37 41.904C156.258 41.392 156.034 40.64 155.698 39.648C155.362 38.656 155.098 37.968 154.906 37.584C154.01 37.488 152.81 37.56 151.306 37.8C151.13 38.184 150.962 38.592 150.802 39.024C150.642 39.456 150.53 39.776 150.466 39.984C150.418 40.192 150.314 40.576 150.154 41.136C150.01 41.696 149.922 42.032 149.89 42.144C148.962 41.776 147.682 41.448 146.05 41.16C147.122 38.968 148.09 36.488 148.954 33.72C149.818 30.952 150.498 28.2 150.994 25.464C151.602 25.624 152.378 25.744 153.322 25.824C154.282 25.904 155.066 25.896 155.674 25.8ZM152.122 34.68H154.306C153.986 33.48 153.682 31.72 153.394 29.4C153.33 29.896 153.226 30.464 153.082 31.104C152.954 31.744 152.802 32.392 152.626 33.048C152.45 33.704 152.282 34.248 152.122 34.68ZM166.34 32.616C168.308 32.84 170.292 32.928 172.292 32.88C172.228 33.728 172.172 34.392 172.124 34.872C172.076 35.352 171.972 35.952 171.812 36.672C171.668 37.376 171.476 38 171.236 38.544C170.868 39.376 170.356 40.08 169.7 40.656C169.06 41.232 168.364 41.632 167.612 41.856C166.86 42.08 166.06 42.112 165.212 41.952C164.364 41.776 163.58 41.384 162.86 40.776C161.708 39.832 160.916 38.528 160.484 36.864C160.132 35.504 160.06 33.952 160.268 32.208C160.524 30.032 161.276 28.376 162.524 27.24C163.196 26.616 163.956 26.152 164.804 25.848C165.668 25.528 166.532 25.408 167.396 25.488C168.26 25.552 168.932 25.784 169.412 26.184C169.94 26.648 170.268 27.304 170.396 28.152C170.476 28.648 170.476 29.392 170.396 30.384C170.252 30.4 169.98 30.424 169.58 30.456C169.18 30.472 168.876 30.488 168.668 30.504C168.46 30.52 168.196 30.552 167.876 30.6C167.556 30.632 167.268 30.68 167.012 30.744C166.98 30.216 166.844 29.72 166.604 29.256C166.38 28.808 166.108 28.576 165.788 28.56C165.372 28.528 165.036 28.856 164.78 29.544C164.412 30.52 164.188 31.584 164.108 32.736C164.028 33.888 164.084 34.976 164.276 36C164.42 36.752 164.612 37.344 164.852 37.776C165.076 38.176 165.404 38.528 165.836 38.832C166.284 39.12 166.692 39.136 167.06 38.88C167.14 38.816 167.228 38.696 167.324 38.52C167.692 37.816 167.932 36.928 168.044 35.856C167.5 35.984 166.956 36.088 166.412 36.168C166.588 34.744 166.564 33.56 166.34 32.616ZM184.349 37.416C184.365 37.496 184.373 37.672 184.373 37.944C184.373 38.216 184.373 38.4 184.373 38.496C184.373 38.592 184.373 38.768 184.373 39.024C184.389 39.28 184.397 39.472 184.397 39.6C184.397 39.712 184.397 39.88 184.397 40.104C184.413 40.328 184.421 40.512 184.421 40.656C184.437 40.8 184.453 40.968 184.469 41.16C184.485 41.336 184.493 41.504 184.493 41.664C184.509 41.824 184.533 41.984 184.565 42.144C183.829 41.984 182.021 41.864 179.141 41.784C176.261 41.688 174.277 41.688 173.189 41.784C173.301 39.336 173.365 36.688 173.381 33.84C173.397 30.992 173.333 28.256 173.189 25.632C177.605 25.6 181.205 25.544 183.989 25.464C183.957 25.864 183.933 26.296 183.917 26.76C183.901 27.224 183.885 27.688 183.869 28.152C183.853 28.616 183.837 29.056 183.821 29.472C182.861 29.264 181.725 29.168 180.413 29.184C179.117 29.184 178.141 29.264 177.485 29.424C177.485 30.976 177.493 31.976 177.509 32.424C179.029 32.456 180.405 32.36 181.637 32.136C181.669 32.936 181.757 34.216 181.901 35.976C181.421 35.976 180.685 35.968 179.693 35.952C178.717 35.92 178.021 35.904 177.605 35.904C177.605 36.096 177.661 36.856 177.773 38.184C180.525 37.992 182.717 37.736 184.349 37.416Z" fill="url(#paint28_linear_2116_7470)"/>
</g>
<defs>
<filter id="filter0_dddd_2116_7470" x="33.1299" y="20.0757" width="158.106" height="27.3329" filterUnits="userSpaceOnUse" color-interpolation-filters="sRGB">
<feFlood flood-opacity="0" result="BackgroundImageFix"/>
<feColorMatrix in="SourceAlpha" type="matrix" values="0 0 0 0 0 0 0 0 0 0 0 0 0 0 0 0 0 0 127 0" result="hardAlpha"/>
<feOffset dy="1.66746"/>
<feGaussianBlur stdDeviation="1.66746"/>
<feColorMatrix type="matrix" values="0 0 0 0 0 0 0 0 0 0 0 0 0 0 0 0 0 0 0.2 0"/>
<feBlend mode="overlay" in2="BackgroundImageFix" result="effect1_dropShadow_2116_7470"/>
<feColorMatrix in="SourceAlpha" type="matrix" values="0 0 0 0 0 0 0 0 0 0 0 0 0 0 0 0 0 0 127 0" result="hardAlpha"/>
<feOffset dy="1.66746"/>
<feGaussianBlur stdDeviation="0.833732"/>
<feColorMatrix type="matrix" values="0 0 0 0 0 0 0 0 0 0 0 0 0 0 0 0 0 0 0.22 0"/>
<feBlend mode="overlay" in2="effect1_dropShadow_2116_7470" result="effect2_dropShadow_2116_7470"/>
<feColorMatrix in="SourceAlpha" type="matrix" values="0 0 0 0 0 0 0 0 0 0 0 0 0 0 0 0 0 0 127 0" result="hardAlpha"/>
<feOffset dy="1.66746"/>
<feGaussianBlur stdDeviation="1.66746"/>
<feColorMatrix type="matrix" values="0 0 0 0 0 0 0 0 0 0 0 0 0 0 0 0 0 0 0.24 0"/>
<feBlend mode="overlay" in2="effect2_dropShadow_2116_7470" result="effect3_dropShadow_2116_7470"/>
<feColorMatrix in="SourceAlpha" type="matrix" values="0 0 0 0 0 0 0 0 0 0 0 0 0 0 0 0 0 0 127 0" result="hardAlpha"/>
<feOffset dx="1.66746"/>
<feGaussianBlur stdDeviation="2.5012"/>
<feColorMatrix type="matrix" values="0 0 0 0 0 0 0 0 0 0 0 0 0 0 0 0 0 0 0.35 0"/>
<feBlend mode="normal" in2="effect3_dropShadow_2116_7470" result="effect4_dropShadow_2116_7470"/>
<feBlend mode="normal" in="SourceGraphic" in2="effect4_dropShadow_2116_7470" result="shape"/>
</filter>
<radialGradient id="paint0_radial_2116_7470" cx="0" cy="0" r="1" gradientUnits="userSpaceOnUse" gradientTransform="translate(201.416 73.652) scale(20.2355 17.0567)">
<stop stop-color="#7C8FB2"/>
<stop offset="1" stop-color="#515682"/>
</radialGradient>
<radialGradient id="paint1_radial_2116_7470" cx="0" cy="0" r="1" gradientUnits="userSpaceOnUse" gradientTransform="translate(102.213 75.9583) scale(34.2867 28.9007)">
<stop stop-color="#7C8FB2"/>
<stop offset="1" stop-color="#515682"/>
</radialGradient>
<radialGradient id="paint2_radial_2116_7470" cx="0" cy="0" r="1" gradientUnits="userSpaceOnUse" gradientTransform="translate(121.899 77.5541) scale(32.4357 27.3404)">
<stop stop-color="#7C8FB2"/>
<stop offset="1" stop-color="#515682"/>
</radialGradient>
<radialGradient id="paint3_radial_2116_7470" cx="0" cy="0" r="1" gradientUnits="userSpaceOnUse" gradientTransform="translate(38.4007 0.921675) scale(252.526 251.383)">
<stop stop-color="#676C94"/>
<stop offset="1" stop-color="#17233A"/>
</radialGradient>
<radialGradient id="paint4_radial_2116_7470" cx="0" cy="0" r="1" gradientUnits="userSpaceOnUse" gradientTransform="translate(0.3206 28.5447) scale(51.3315 51.0993)">
<stop stop-color="#5A6084"/>
<stop offset="1" stop-color="#323B63"/>
</radialGradient>
<radialGradient id="paint5_radial_2116_7470" cx="0" cy="0" r="1" gradientUnits="userSpaceOnUse" gradientTransform="translate(14.5006 10.2116) scale(18.9866 18.9007)">
<stop stop-color="#8899C2"/>
<stop offset="1" stop-color="#727696"/>
</radialGradient>
<radialGradient id="paint6_radial_2116_7470" cx="0" cy="0" r="1" gradientUnits="userSpaceOnUse" gradientTransform="translate(53.3973 -43.511) scale(76.9795 76.6312)">
<stop stop-color="#8899C2"/>
<stop offset="1" stop-color="#727696"/>
</radialGradient>
<radialGradient id="paint7_radial_2116_7470" cx="0" cy="0" r="1" gradientUnits="userSpaceOnUse" gradientTransform="translate(74.6644 -57.2698) scale(75.7683 75.4255)">
<stop stop-color="#8899C2"/>
<stop offset="1" stop-color="#727696"/>
</radialGradient>
<radialGradient id="paint8_radial_2116_7470" cx="0" cy="0" r="1" gradientUnits="userSpaceOnUse" gradientTransform="translate(119.049 -31.7728) scale(79.1525 78.7943)">
<stop stop-color="#8899C2"/>
<stop offset="1" stop-color="#727696"/>
</radialGradient>
<radialGradient id="paint9_radial_2116_7470" cx="0" cy="0" r="1" gradientUnits="userSpaceOnUse" gradientTransform="translate(151.287 -57.801) scale(96.8567 96.4185)">
<stop stop-color="#8899C2"/>
<stop offset="1" stop-color="#727696"/>
</radialGradient>
<radialGradient id="paint10_radial_2116_7470" cx="0" cy="0" r="1" gradientUnits="userSpaceOnUse" gradientTransform="translate(202.797 -19.4691) scale(31.0982 30.9575)">
<stop stop-color="#8899C2"/>
<stop offset="1" stop-color="#727696"/>
</radialGradient>
<radialGradient id="paint11_radial_2116_7470" cx="0" cy="0" r="1" gradientUnits="userSpaceOnUse" gradientTransform="translate(213.839 10.1771) scale(72.3844 72.0567)">
<stop stop-color="#5A6084"/>
<stop offset="1" stop-color="#323B63"/>
</radialGradient>
<radialGradient id="paint12_radial_2116_7470" cx="0" cy="0" r="1" gradientUnits="userSpaceOnUse" gradientTransform="translate(193 19.8574) scale(67.7178 67.4113)">
<stop stop-color="#5A6084"/>
<stop offset="1" stop-color="#323B63"/>
</radialGradient>
<radialGradient id="paint13_radial_2116_7470" cx="0" cy="0" r="1" gradientUnits="userSpaceOnUse" gradientTransform="translate(211.489 46.3137) scale(39.5762 39.3971)">
<stop stop-color="#5A6084"/>
<stop offset="1" stop-color="#323B63"/>
</radialGradient>
<radialGradient id="paint14_radial_2116_7470" cx="0" cy="0" r="1" gradientUnits="userSpaceOnUse" gradientTransform="translate(154.208 6.09833) scale(100.668 100.213)">
<stop stop-color="#4E5470"/>
<stop offset="1" stop-color="#252E4F"/>
</radialGradient>
<radialGradient id="paint15_radial_2116_7470" cx="0" cy="0" r="1" gradientUnits="userSpaceOnUse" gradientTransform="translate(82.9272 7.94264) scale(84.3533 83.9716)">
<stop stop-color="#4E5470"/>
<stop offset="1" stop-color="#252E4F"/>
</radialGradient>
<radialGradient id="paint16_radial_2116_7470" cx="0" cy="0" r="1" gradientUnits="userSpaceOnUse" gradientTransform="translate(47.5541 19.1117) scale(82.1447 81.773)">
<stop stop-color="#4E5470"/>
<stop offset="1" stop-color="#252E4F"/>
</radialGradient>
<radialGradient id="paint17_radial_2116_7470" cx="0" cy="0" r="1" gradientUnits="userSpaceOnUse" gradientTransform="translate(14.3567 49.3955) scale(40.3599 40.1773)">
<stop stop-color="#5A6084"/>
<stop offset="1" stop-color="#323B63"/>
</radialGradient>
<radialGradient id="paint18_radial_2116_7470" cx="0" cy="0" r="1" gradientUnits="userSpaceOnUse" gradientTransform="translate(-0.42747 20.8863) scale(71.7075 71.383)">
<stop stop-color="#5A6084"/>
<stop offset="1" stop-color="#323B63"/>
</radialGradient>
<radialGradient id="paint19_radial_2116_7470" cx="0" cy="0" r="1" gradientUnits="userSpaceOnUse" gradientTransform="translate(40.3958 18.7233) scale(86.455 86.0638)">
<stop stop-color="#4E5B7D"/>
<stop offset="1" stop-color="#313556"/>
</radialGradient>
<radialGradient id="paint20_radial_2116_7470" cx="0" cy="0" r="1" gradientUnits="userSpaceOnUse" gradientTransform="translate(91.1938 46.2424) scale(163.577 162.837)">
<stop stop-color="#4E5B7D"/>
<stop offset="1" stop-color="#313556"/>
</radialGradient>
<radialGradient id="paint21_radial_2116_7470" cx="0" cy="0" r="1" gradientUnits="userSpaceOnUse" gradientTransform="translate(69.2116 -21.0275) scale(196.884 195.993)">
<stop stop-color="#4E5B7D"/>
<stop offset="1" stop-color="#313556"/>
</radialGradient>
<radialGradient id="paint22_radial_2116_7470" cx="0" cy="0" r="1" gradientUnits="userSpaceOnUse" gradientTransform="translate(102.807 29.3993) scale(207.179 206.241)">
<stop stop-color="#4E5B7D"/>
<stop offset="1" stop-color="#313556"/>
</radialGradient>
<radialGradient id="paint23_radial_2116_7470" cx="0" cy="0" r="1" gradientUnits="userSpaceOnUse" gradientTransform="translate(166.143 13.5466) scale(100.811 100.355)">
<stop stop-color="#1A1F3A"/>
<stop offset="1" stop-color="#647394"/>
</radialGradient>
<radialGradient id="paint24_radial_2116_7470" cx="0" cy="0" r="1" gradientUnits="userSpaceOnUse" gradientTransform="translate(32.8054 -43.1901) scale(248.607 247.482)">
<stop stop-color="#7C8FB2"/>
<stop offset="1" stop-color="#515682"/>
</radialGradient>
<radialGradient id="paint25_radial_2116_7470" cx="0" cy="0" r="1" gradientUnits="userSpaceOnUse" gradientTransform="translate(203.508 43.9371) scale(19.9484 19.8581)">
<stop stop-color="#5A6084"/>
<stop offset="1" stop-color="#323B63"/>
</radialGradient>
<radialGradient id="paint26_radial_2116_7470" cx="0" cy="0" r="1" gradientUnits="userSpaceOnUse" gradientTransform="translate(39.5058 50.4271) scale(12.6102 12.5532)">
<stop stop-color="#5A6084"/>
<stop offset="1" stop-color="#323B63"/>
</radialGradient>
<radialGradient id="paint27_radial_2116_7470" cx="0" cy="0" r="1" gradientUnits="userSpaceOnUse" gradientTransform="translate(31.6663 42.6941) scale(21.6939 21.5957)">
<stop stop-color="#5A6084"/>
<stop offset="1" stop-color="#323B63"/>
</radialGradient>
<linearGradient id="paint28_linear_2116_7470" x1="110.5" y1="23" x2="110.5" y2="47" gradientUnits="userSpaceOnUse">
<stop stop-color="white"/>
<stop offset="1" stop-color="white" stop-opacity="0"/>
</linearGradient>
</defs>
</svg>
